<svg width="16" height="16" viewBox="0 0 16 16" fill="none" xmlns="http://www.w3.org/2000/svg">
<path d="M13 1.25H4C3.66848 1.25 3.35054 1.3817 3.11612 1.61612C2.8817 1.85054 2.75 2.16848 2.75 2.5V3.75H2C1.80109 3.75 1.61032 3.82902 1.46967 3.96967C1.32902 4.11032 1.25 4.30109 1.25 4.5C1.25 4.69891 1.32902 4.88968 1.46967 5.03033C1.61032 5.17098 1.80109 5.25 2 5.25H2.75V7.25H2C1.80109 7.25 1.61032 7.32902 1.46967 7.46967C1.32902 7.61032 1.25 7.80109 1.25 8C1.25 8.19891 1.32902 8.38968 1.46967 8.53033C1.61032 8.67098 1.80109 8.75 2 8.75H2.75V10.75H2C1.80109 10.75 1.61032 10.829 1.46967 10.9697C1.32902 11.1103 1.25 11.3011 1.25 11.5C1.25 11.6989 1.32902 11.8897 1.46967 12.0303C1.61032 12.171 1.80109 12.25 2 12.25H2.75V13.5C2.75 13.8315 2.8817 14.1495 3.11612 14.3839C3.35054 14.6183 3.66848 14.75 4 14.75H13C13.3315 14.75 13.6495 14.6183 13.8839 14.3839C14.1183 14.1495 14.25 13.8315 14.25 13.5V2.5C14.25 2.16848 14.1183 1.85054 13.8839 1.61612C13.6495 1.3817 13.3315 1.25 13 1.25ZM12.75 13.25H4.25V2.75H12.75V13.25ZM6.3 10.7106C6.58083 10.4077 6.92119 10.1661 7.29976 10.0008C7.67832 9.83554 8.08694 9.75023 8.5 9.75023C8.91306 9.75023 9.32168 9.83554 9.70024 10.0008C10.0788 10.1661 10.4192 10.4077 10.7 10.7106C10.8353 10.8565 11.0229 10.9427 11.2217 10.9502C11.4205 10.9577 11.6141 10.8859 11.76 10.7506C11.9059 10.6154 11.992 10.4277 11.9995 10.2289C12.007 10.0301 11.9353 9.83649 11.8 9.69063C11.4544 9.3193 11.0484 9.0091 10.5994 8.77312C10.938 8.37274 11.1551 7.88388 11.2251 7.36418C11.2951 6.84447 11.215 6.3156 10.9943 5.83991C10.7736 5.36421 10.4215 4.96154 9.97953 4.67935C9.53754 4.39716 9.02408 4.24723 8.49969 4.24723C7.9753 4.24723 7.46184 4.39716 7.01985 4.67935C6.57785 4.96154 6.22576 5.36421 6.00507 5.83991C5.78438 6.3156 5.70431 6.84447 5.77428 7.36418C5.84425 7.88388 6.06136 8.37274 6.4 8.77312C5.95124 9.00928 5.54554 9.31947 5.2 9.69063C5.06474 9.83649 4.99297 10.0301 5.00047 10.2289C5.00797 10.4277 5.09413 10.6154 5.24 10.7506C5.38587 10.8859 5.5795 10.9577 5.77828 10.9502C5.97707 10.9427 6.16474 10.8565 6.3 10.7106ZM7.25 7C7.25 6.75277 7.32331 6.5111 7.46066 6.30554C7.59801 6.09998 7.79324 5.93976 8.02165 5.84515C8.25005 5.75054 8.50139 5.72579 8.74386 5.77402C8.98634 5.82225 9.20907 5.9413 9.38388 6.11612C9.5587 6.29093 9.67775 6.51366 9.72598 6.75614C9.77421 6.99861 9.74946 7.24995 9.65485 7.47835C9.56024 7.70676 9.40002 7.90199 9.19446 8.03934C8.9889 8.17669 8.74723 8.25 8.5 8.25C8.16848 8.25 7.85054 8.1183 7.61612 7.88388C7.3817 7.64946 7.25 7.33152 7.25 7Z" fill="#737373"/>
</svg>
