<svg width="16" height="16" viewBox="0 0 16 16" fill="none" xmlns="http://www.w3.org/2000/svg">
<path d="M8.46935 13.0306C8.39943 12.9609 8.34395 12.8781 8.3061 12.787C8.26824 12.6958 8.24876 12.5981 8.24876 12.4993C8.24876 12.4006 8.26824 12.3029 8.3061 12.2117C8.34395 12.1206 8.39943 12.0378 8.46935 11.9681L11.6875 8.74997L2.49997 8.74997C2.30106 8.74997 2.1103 8.67095 1.96964 8.5303C1.82899 8.38965 1.74997 8.19889 1.74997 7.99997C1.74997 7.80106 1.82899 7.61029 1.96964 7.46964C2.1103 7.32899 2.30106 7.24997 2.49997 7.24997L11.6875 7.24997L8.46935 4.0306C8.32845 3.8897 8.2493 3.69861 8.2493 3.49935C8.2493 3.30009 8.32845 3.10899 8.46935 2.9681C8.61025 2.8272 8.80134 2.74805 9.0006 2.74805C9.19986 2.74805 9.39095 2.8272 9.53185 2.9681L14.0319 7.4681C14.1018 7.53778 14.1572 7.62057 14.1951 7.71173C14.233 7.8029 14.2524 7.90064 14.2524 7.99935C14.2524 8.09806 14.233 8.1958 14.1951 8.28696C14.1572 8.37813 14.1018 8.46092 14.0319 8.5306L9.53185 13.0306C9.46217 13.1005 9.37938 13.156 9.28821 13.1939C9.19705 13.2317 9.09931 13.2512 9.0006 13.2512C8.90189 13.2512 8.80415 13.2317 8.71299 13.1939C8.62182 13.156 8.53903 13.1005 8.46935 13.0306Z" fill="white"/>
</svg>
