<svg width="40" height="40" viewBox="0 0 40 40" fill="none" xmlns="http://www.w3.org/2000/svg">
<path d="M9.78515 4.60803C9.51679 4.33861 9.29687 4.1092 9.29687 4.09822C9.29687 4.08724 9.30546 4.07861 9.3164 4.07861C9.32734 4.07861 9.55546 4.29901 9.82421 4.56881C10.0926 4.83822 10.3035 5.06763 10.293 5.07861C10.2824 5.08959 10.0539 4.87783 9.78515 4.60803Z" fill="#95BAF9" fill-opacity="0.52"/>
<path d="M22.5976 13.6276C22.5871 13.6171 24.4105 11.7653 26.6504 9.51313C28.8902 7.26097 30.7359 5.41705 30.7519 5.41509C30.768 5.41352 30.7812 5.42058 30.7812 5.43156C30.7812 5.44214 28.9445 7.29509 26.6992 9.54921C24.4539 11.8033 22.6082 13.6382 22.5976 13.6276Z" fill="#95BAF9" fill-opacity="0.52"/>
<path d="M1.44531 6.11783C1.4668 6.11783 1.48437 6.08254 1.48437 6.0394C1.48437 5.99626 1.50195 5.96097 1.52344 5.96097C1.54492 5.96097 1.5625 5.99626 1.5625 6.0394C1.5625 6.08254 1.54492 6.11783 1.52344 6.11783C1.50195 6.11783 1.48437 6.15313 1.48437 6.19626C1.48437 6.2394 1.4668 6.27469 1.44531 6.27469C1.42383 6.27469 1.40625 6.2394 1.40625 6.19626C1.40625 6.15313 1.42383 6.11783 1.44531 6.11783Z" fill="#95BAF9" fill-opacity="0.52"/>
<path d="M26.1914 17.7845C26.1808 17.7735 28.0746 15.8516 30.4004 13.5131C32.7262 11.1747 34.6422 9.26019 34.6582 9.25823C34.6742 9.25666 34.6875 9.26372 34.6875 9.2747C34.6875 9.28529 32.7801 11.2088 30.4492 13.5492C28.1183 15.8892 26.2019 17.7951 26.1914 17.7845Z" fill="#95BAF9" fill-opacity="0.52"/>
<path d="M0.117187 11.2159C0.0957031 11.2159 0.078125 11.1453 0.078125 11.059C0.078125 10.9727 0.0957031 10.9022 0.117187 10.9022C0.138672 10.9022 0.15625 10.9727 0.15625 11.059C0.15625 11.1453 0.138672 11.2159 0.117187 11.2159Z" fill="#95BAF9" fill-opacity="0.52"/>
<path d="M0.0390625 12.2355C0.0164062 12.2355 0 12.1049 0 11.9218C0 11.7386 0.0164062 11.608 0.0390625 11.608C0.0617187 11.608 0.078125 11.7386 0.078125 11.9218C0.078125 12.1049 0.0617187 12.2355 0.0390625 12.2355Z" fill="#95BAF9" fill-opacity="0.52"/>
<path d="M0.0390625 14.8237C0.0160156 14.8237 0 14.6798 0 14.4708C0 14.2618 0.0160156 14.1178 0.0390625 14.1178C0.0621093 14.1178 0.078125 14.2618 0.078125 14.4708C0.078125 14.6798 0.0621093 14.8237 0.0390625 14.8237Z" fill="#95BAF9" fill-opacity="0.52"/>
<path d="M21.9922 14.51C22.0137 14.51 22.0312 14.4747 22.0312 14.4316C22.0312 14.3884 22.0488 14.3531 22.0703 14.3531C22.0918 14.3531 22.1094 14.3884 22.1094 14.4316C22.1094 14.4747 22.0918 14.51 22.0703 14.51C22.0488 14.51 22.0312 14.5453 22.0312 14.5884C22.0312 14.6316 22.0137 14.6669 21.9922 14.6669C21.9707 14.6669 21.9531 14.6316 21.9531 14.5884C21.9531 14.5453 21.9707 14.51 21.9922 14.51Z" fill="#95BAF9" fill-opacity="0.52"/>
<path d="M0.117187 15.5296C0.0953125 15.5296 0.078125 15.4249 0.078125 15.2943C0.078125 15.1637 0.0953125 15.059 0.117187 15.059C0.139062 15.059 0.15625 15.1637 0.15625 15.2943C0.15625 15.4249 0.139062 15.5296 0.117187 15.5296Z" fill="#95BAF9" fill-opacity="0.52"/>
<path d="M21.8359 15.4512C21.8144 15.4512 21.7969 15.3629 21.7969 15.2551C21.7969 15.1473 21.8144 15.059 21.8359 15.059C21.8574 15.059 21.875 15.1473 21.875 15.2551C21.875 15.3629 21.8574 15.4512 21.8359 15.4512Z" fill="#95BAF9" fill-opacity="0.52"/>
<path d="M10.6641 16.1571C10.6426 16.1571 10.625 16.0688 10.625 15.961C10.625 15.8531 10.6426 15.7649 10.6641 15.7649C10.6855 15.7649 10.7031 15.8531 10.7031 15.961C10.7031 16.0688 10.6855 16.1571 10.6641 16.1571Z" fill="#95BAF9" fill-opacity="0.52"/>
<path d="M21.8359 16.1571C21.8144 16.1571 21.7969 16.0688 21.7969 15.961C21.7969 15.8531 21.8144 15.7649 21.8359 15.7649C21.8574 15.7649 21.875 15.8531 21.875 15.961C21.875 16.0688 21.8574 16.1571 21.8359 16.1571Z" fill="#95BAF9" fill-opacity="0.52"/>
<path d="M0.273437 16.5492C0.251953 16.5492 0.234375 16.4786 0.234375 16.3924C0.234375 16.3061 0.251953 16.2355 0.273437 16.2355C0.294922 16.2355 0.3125 16.3061 0.3125 16.3924C0.3125 16.4786 0.294922 16.5492 0.273437 16.5492Z" fill="#95BAF9" fill-opacity="0.52"/>
<path d="M22.5976 17.5492C22.4578 17.4088 22.3437 17.2853 22.3437 17.2747C22.3437 17.2637 22.3527 17.2551 22.3633 17.2551C22.3738 17.2551 22.4969 17.3696 22.6367 17.51C22.7766 17.65 22.8816 17.7735 22.8711 17.7845C22.8605 17.7951 22.7375 17.6892 22.5976 17.5492Z" fill="#95BAF9" fill-opacity="0.52"/>
<path d="M11.2109 18.0394C11.1894 18.0394 11.1719 18.0041 11.1719 17.961C11.1719 17.9178 11.1894 17.8826 11.2109 17.8826C11.2324 17.8826 11.25 17.9178 11.25 17.961C11.25 18.0041 11.2676 18.0394 11.2891 18.0394C11.3105 18.0394 11.3281 18.0747 11.3281 18.1178C11.3281 18.161 11.3457 18.1963 11.3672 18.1963C11.3887 18.1963 11.4062 18.2316 11.4062 18.2747C11.4062 18.3178 11.4281 18.3594 11.4551 18.3673C11.482 18.3751 11.4906 18.3927 11.4746 18.4065C11.4586 18.4202 11.4187 18.4049 11.3867 18.3727C11.3547 18.3402 11.3281 18.2873 11.3281 18.2551C11.3281 18.2226 11.3105 18.1963 11.2891 18.1963C11.2676 18.1963 11.25 18.161 11.25 18.1178C11.25 18.0747 11.2324 18.0394 11.2109 18.0394Z" fill="#95BAF9" fill-opacity="0.52"/>
<path d="M24.5312 18.3531C24.2969 18.3531 24.1406 18.3375 24.1406 18.3139C24.1406 18.2904 24.2969 18.2747 24.5312 18.2747C24.7656 18.2747 24.9219 18.2904 24.9219 18.3139C24.9219 18.3375 24.7656 18.3531 24.5312 18.3531Z" fill="#95BAF9" fill-opacity="0.52"/>
<path d="M11.7578 18.9806C11.7363 18.9806 11.7187 18.9629 11.7187 18.9414C11.7187 18.9198 11.7277 18.9022 11.7383 18.9022C11.7488 18.9022 11.7844 18.9284 11.8164 18.961C11.8484 18.9931 11.8758 19.0418 11.8766 19.0688C11.8773 19.0959 11.9172 19.1488 11.9644 19.1869C12.0121 19.2245 12.0375 19.2641 12.0215 19.2751C12.0055 19.2857 11.9484 19.25 11.8945 19.1963C11.841 19.1422 11.7969 19.0716 11.7969 19.0394C11.7969 19.0069 11.7793 18.9806 11.7578 18.9806Z" fill="#95BAF9" fill-opacity="0.52"/>
<path d="M12.168 19.5492C12.0926 19.4735 12.0312 19.4029 12.0312 19.3924C12.0312 19.3814 12.0402 19.3728 12.0508 19.3728C12.0613 19.3728 12.1316 19.4343 12.207 19.51C12.2824 19.5853 12.3348 19.6559 12.3242 19.6669C12.3137 19.6775 12.2434 19.6245 12.168 19.5492Z" fill="#95BAF9" fill-opacity="0.52"/>
<path d="M16.1914 23.6669C14.075 21.5426 12.3437 19.7951 12.3437 19.7845C12.3437 19.7735 12.3527 19.7649 12.3633 19.7649C12.3738 19.7649 14.1141 21.5033 16.2305 23.6277C18.3469 25.752 20.0691 27.499 20.0586 27.51C20.048 27.5206 18.3078 25.7912 16.1914 23.6669Z" fill="#95BAF9" fill-opacity="0.52"/>
<path d="M1.75781 21.1767C1.73633 21.1767 1.71875 21.1414 1.71875 21.0982C1.71875 21.0551 1.73633 21.0198 1.75781 21.0198C1.7793 21.0198 1.79687 21.0551 1.79687 21.0982C1.79687 21.1414 1.81445 21.1767 1.83594 21.1767C1.85742 21.1767 1.875 21.212 1.875 21.2551C1.875 21.2982 1.89258 21.3335 1.91406 21.3335C1.93555 21.3335 1.95312 21.3688 1.95312 21.412C1.95312 21.4551 1.9707 21.4904 1.99219 21.4904C2.01367 21.4904 2.03125 21.5257 2.03125 21.5688C2.03125 21.612 2.04883 21.6473 2.07031 21.6473C2.0918 21.6473 2.10937 21.6826 2.10937 21.7257C2.10937 21.7688 2.12695 21.8041 2.14844 21.8041C2.16992 21.8041 2.1875 21.8394 2.1875 21.8826C2.1875 21.9257 2.20937 21.9673 2.23633 21.9751C2.26328 21.9829 2.27187 22.0006 2.25586 22.0143C2.23984 22.028 2.20039 22.0131 2.16797 21.9806C2.13555 21.948 2.10937 21.8955 2.10937 21.8629C2.10937 21.8304 2.0918 21.8041 2.07031 21.8041C2.04883 21.8041 2.03125 21.7688 2.03125 21.7257C2.03125 21.6826 2.01367 21.6473 1.99219 21.6473C1.9707 21.6473 1.95312 21.612 1.95312 21.5688C1.95312 21.5257 1.93555 21.4904 1.91406 21.4904C1.89258 21.4904 1.875 21.4551 1.875 21.412C1.875 21.3688 1.85742 21.3335 1.83594 21.3335C1.81445 21.3335 1.79687 21.2982 1.79687 21.2551C1.79687 21.212 1.7793 21.1767 1.75781 21.1767Z" fill="#95BAF9" fill-opacity="0.52"/>
<path d="M2.46094 22.51C2.43945 22.51 2.42187 22.4924 2.42187 22.4708C2.42187 22.4492 2.43086 22.4316 2.44141 22.4316C2.45195 22.4316 2.48711 22.4579 2.51953 22.4904C2.55195 22.523 2.57812 22.5755 2.57812 22.608C2.57812 22.6406 2.6 22.6731 2.62695 22.681C2.6539 22.6888 2.6625 22.7065 2.64648 22.7202C2.63047 22.7339 2.59101 22.719 2.55859 22.6865C2.52617 22.6539 2.5 22.6014 2.5 22.5688C2.5 22.5363 2.48242 22.51 2.46094 22.51Z" fill="#95BAF9" fill-opacity="0.52"/>
<path d="M2.85156 23.1375C2.83008 23.1375 2.8125 23.1198 2.8125 23.0982C2.8125 23.0767 2.82109 23.059 2.83203 23.059C2.84297 23.059 2.87773 23.0853 2.91015 23.1179C2.94258 23.1504 2.96875 23.203 2.96875 23.2355C2.96875 23.268 2.99062 23.3006 3.01758 23.3084C3.04453 23.3163 3.05312 23.3339 3.03711 23.3477C3.02109 23.3614 2.98164 23.3465 2.94922 23.3139C2.9168 23.2814 2.89062 23.2288 2.89062 23.1963C2.89062 23.1637 2.87305 23.1375 2.85156 23.1375Z" fill="#95BAF9" fill-opacity="0.52"/>
<path d="M3.73047 24.412C3.65547 24.3367 3.59375 24.2657 3.59375 24.2551C3.59375 24.2441 3.60234 24.2355 3.61328 24.2355C3.62422 24.2355 3.69453 24.2975 3.76953 24.3728C3.84453 24.4481 3.89765 24.5186 3.88672 24.5296C3.87578 24.5402 3.80547 24.4873 3.73047 24.412Z" fill="#95BAF9" fill-opacity="0.52"/>
<path d="M4.04297 24.8041C3.96797 24.7288 3.90625 24.6579 3.90625 24.6473C3.90625 24.6363 3.91484 24.6277 3.92578 24.6277C3.93672 24.6277 4.00703 24.6896 4.08203 24.7649C4.15703 24.8402 4.21015 24.9108 4.19922 24.9218C4.18828 24.9324 4.11797 24.8794 4.04297 24.8041Z" fill="#95BAF9" fill-opacity="0.52"/>
<path d="M4.47265 25.3139C4.33281 25.1735 4.21875 25.05 4.21875 25.0394C4.21875 25.0284 4.22734 25.0198 4.23828 25.0198C4.24922 25.0198 4.37187 25.1343 4.51172 25.2747C4.65156 25.4151 4.75703 25.5382 4.74609 25.5492C4.73515 25.5598 4.6125 25.4543 4.47265 25.3139Z" fill="#95BAF9" fill-opacity="0.52"/>
<path d="M9.58984 30.5296C7.02265 27.952 4.92187 25.8343 4.92187 25.8237C4.92187 25.8128 4.93047 25.8041 4.9414 25.8041C4.95234 25.8041 7.06172 27.9128 9.6289 30.4904C12.1965 33.0677 14.2879 35.1853 14.2773 35.1963C14.2668 35.2069 12.1574 33.1069 9.58984 30.5296Z" fill="#95BAF9" fill-opacity="0.52"/>
<path d="M21.1523 28.3335C21.1199 28.301 21.0937 28.2657 21.0937 28.2551C21.0937 28.2441 21.1113 28.2355 21.1328 28.2355C21.1543 28.2355 21.1719 28.2532 21.1719 28.2747C21.1719 28.2963 21.198 28.3139 21.2305 28.3139C21.2629 28.3139 21.3152 28.3402 21.3476 28.3728C21.3801 28.4053 21.3949 28.4449 21.3812 28.461C21.3676 28.4771 21.35 28.4684 21.3422 28.4414C21.3344 28.4143 21.3019 28.3924 21.2695 28.3924C21.2371 28.3924 21.1848 28.3661 21.1523 28.3335Z" fill="#95BAF9" fill-opacity="0.52"/>
<path d="M22.3437 28.9414C22.3008 28.9414 22.2656 28.9237 22.2656 28.9022C22.2656 28.8806 22.3008 28.863 22.3437 28.863C22.3867 28.863 22.4219 28.8806 22.4219 28.9022C22.4219 28.9237 22.457 28.9414 22.5 28.9414C22.543 28.9414 22.5781 28.959 22.5781 28.9806C22.5781 29.0022 22.543 29.0198 22.5 29.0198C22.457 29.0198 22.4219 29.0022 22.4219 28.9806C22.4219 28.959 22.3867 28.9414 22.3437 28.9414Z" fill="#95BAF9" fill-opacity="0.52"/>
<path d="M24.4141 29.4904C24.3066 29.4904 24.2187 29.4728 24.2187 29.4512C24.2187 29.4296 24.3066 29.412 24.4141 29.412C24.5215 29.412 24.6094 29.4296 24.6094 29.4512C24.6094 29.4728 24.5215 29.4904 24.4141 29.4904Z" fill="#95BAF9" fill-opacity="0.52"/>
<path d="M14.668 35.5492C14.55 35.4304 14.4531 35.3245 14.4531 35.3139C14.4531 35.303 14.4621 35.2943 14.4726 35.2943C14.4832 35.2943 14.5891 35.3912 14.707 35.51C14.825 35.6285 14.9129 35.7343 14.9023 35.7453C14.8918 35.7559 14.7859 35.6677 14.668 35.5492Z" fill="#95BAF9" fill-opacity="0.52"/>
<path d="M15.1367 35.9414C15.0613 35.8661 15 35.7951 15 35.7845C15 35.7736 15.009 35.7649 15.0195 35.7649C15.0301 35.7649 15.1004 35.8269 15.1758 35.9022C15.2512 35.9775 15.3035 36.0481 15.293 36.059C15.2824 36.0696 15.2121 36.0167 15.1367 35.9414Z" fill="#95BAF9" fill-opacity="0.52"/>
<path d="M17.0117 37.2747C16.9797 37.2422 16.9531 37.2069 16.9531 37.1963C16.9531 37.1853 16.9707 37.1767 16.9922 37.1767C17.0137 37.1767 17.0312 37.1943 17.0312 37.2159C17.0312 37.2375 17.0578 37.2551 17.0898 37.2551C17.1219 37.2551 17.175 37.2814 17.207 37.3139C17.2391 37.3465 17.2543 37.3861 17.2406 37.4022C17.2269 37.4183 17.2094 37.4096 17.2016 37.3826C17.1937 37.3555 17.1609 37.3336 17.1289 37.3336C17.0969 37.3336 17.0437 37.3073 17.0117 37.2747Z" fill="#95BAF9" fill-opacity="0.52"/>
<path d="M17.5586 37.5885C17.5266 37.5559 17.5 37.5206 17.5 37.51C17.5 37.499 17.5176 37.4904 17.5391 37.4904C17.5605 37.4904 17.5781 37.5081 17.5781 37.5296C17.5781 37.5512 17.6047 37.5689 17.6367 37.5689C17.6687 37.5689 17.7219 37.5951 17.7539 37.6277C17.7859 37.6602 17.8012 37.6998 17.7875 37.7159C17.7738 37.732 17.7562 37.7234 17.7484 37.6963C17.7406 37.6692 17.7078 37.6473 17.6758 37.6473C17.6437 37.6473 17.5906 37.621 17.5586 37.5885Z" fill="#95BAF9" fill-opacity="0.52"/>
<path d="M18.9062 38.2747C18.8633 38.2747 18.8281 38.2571 18.8281 38.2355C18.8281 38.214 18.8633 38.1963 18.9062 38.1963C18.9492 38.1963 18.9844 38.214 18.9844 38.2355C18.9844 38.2571 19.0195 38.2747 19.0625 38.2747C19.1055 38.2747 19.1406 38.2924 19.1406 38.3139C19.1406 38.3355 19.1055 38.3532 19.0625 38.3532C19.0195 38.3532 18.9844 38.3355 18.9844 38.3139C18.9844 38.2924 18.9492 38.2747 18.9062 38.2747Z" fill="#95BAF9" fill-opacity="0.52"/>
<path d="M33.125 38.6669C33.168 38.6669 33.2031 38.6492 33.2031 38.6277C33.2031 38.6061 33.2383 38.5885 33.2812 38.5885C33.3242 38.5885 33.3594 38.6061 33.3594 38.6277C33.3594 38.6492 33.3242 38.6669 33.2812 38.6669C33.2383 38.6669 33.2031 38.6845 33.2031 38.7061C33.2031 38.7277 33.168 38.7453 33.125 38.7453C33.082 38.7453 33.0469 38.7277 33.0469 38.7061C33.0469 38.6845 33.082 38.6669 33.125 38.6669Z" fill="#95BAF9" fill-opacity="0.52"/>
<path d="M32.7344 38.8238C32.7773 38.8238 32.8125 38.8061 32.8125 38.7845C32.8125 38.763 32.8476 38.7453 32.8906 38.7453C32.9336 38.7453 32.9687 38.763 32.9687 38.7845C32.9687 38.8061 32.9336 38.8238 32.8906 38.8238C32.8476 38.8238 32.8125 38.8414 32.8125 38.863C32.8125 38.8845 32.7773 38.9022 32.7344 38.9022C32.6914 38.9022 32.6562 38.8845 32.6562 38.863C32.6562 38.8414 32.6914 38.8238 32.7344 38.8238Z" fill="#95BAF9" fill-opacity="0.52"/>
<path d="M29.9219 39.6865C29.8359 39.6865 29.7656 39.6689 29.7656 39.6473C29.7656 39.6257 29.8359 39.6081 29.9219 39.6081C30.0078 39.6081 30.0781 39.6257 30.0781 39.6473C30.0781 39.6689 30.0078 39.6865 29.9219 39.6865Z" fill="#95BAF9" fill-opacity="0.52"/>
<path d="M23.8281 39.7649C23.7422 39.7649 23.6719 39.7473 23.6719 39.7257C23.6719 39.7041 23.7422 39.6865 23.8281 39.6865C23.9141 39.6865 23.9844 39.7041 23.9844 39.7257C23.9844 39.7473 23.9141 39.7649 23.8281 39.7649Z" fill="#95BAF9" fill-opacity="0.52"/>
<path d="M24.3359 39.8434C24.2285 39.8434 24.1406 39.8257 24.1406 39.8041C24.1406 39.7826 24.2285 39.7649 24.3359 39.7649C24.4433 39.7649 24.5312 39.7826 24.5312 39.8041C24.5312 39.8257 24.4433 39.8434 24.3359 39.8434Z" fill="#95BAF9" fill-opacity="0.52"/>
<path d="M28.9453 39.8434C28.8379 39.8434 28.75 39.8257 28.75 39.8041C28.75 39.7826 28.8379 39.7649 28.9453 39.7649C29.0527 39.7649 29.1406 39.7826 29.1406 39.8041C29.1406 39.8257 29.0527 39.8434 28.9453 39.8434Z" fill="#95BAF9" fill-opacity="0.52"/>
<path d="M25.1172 39.9218C24.9609 39.9218 24.8437 39.9049 24.8437 39.8826C24.8437 39.8602 24.9609 39.8434 25.1172 39.8434C25.2734 39.8434 25.3906 39.8602 25.3906 39.8826C25.3906 39.9049 25.2734 39.9218 25.1172 39.9218Z" fill="#95BAF9" fill-opacity="0.52"/>
<path d="M28.2031 39.9218C28.0207 39.9218 27.8906 39.9053 27.8906 39.8826C27.8906 39.8598 28.0207 39.8434 28.2031 39.8434C28.3855 39.8434 28.5156 39.8598 28.5156 39.8826C28.5156 39.9053 28.3855 39.9218 28.2031 39.9218Z" fill="#95BAF9" fill-opacity="0.52"/>
<path d="M26.6015 40.0002C26.1328 40.0002 25.8594 39.9857 25.8594 39.961C25.8594 39.9363 26.1328 39.9218 26.6015 39.9218C27.0703 39.9218 27.3437 39.9363 27.3437 39.961C27.3437 39.9857 27.0703 40.0002 26.6015 40.0002Z" fill="#95BAF9" fill-opacity="0.52"/>
<path d="M31.4451 0.0784315C28.5283 0.0784315 27.0311 0.0650981 27.0311 0.0392157C27.0311 0.0133333 28.5283 0 31.4451 0C34.3619 0 35.8592 0.0133333 35.8592 0.0392157C35.8592 0.0650981 34.3619 0.0784315 31.4451 0.0784315Z" fill="#3F6EE3" fill-opacity="0.66"/>
<path d="M36.2498 0.156863C36.1639 0.156863 36.0936 0.139216 36.0936 0.117647C36.0936 0.0960785 36.1639 0.0784315 36.2498 0.0784315C36.3357 0.0784315 36.4061 0.0960785 36.4061 0.117647C36.4061 0.139216 36.3357 0.156863 36.2498 0.156863Z" fill="#3F6EE3" fill-opacity="0.66"/>
<path d="M36.9529 0.313726C36.91 0.313726 36.8748 0.296079 36.8748 0.27451C36.8748 0.252941 36.91 0.235294 36.9529 0.235294C36.9959 0.235294 37.0311 0.252941 37.0311 0.27451C37.0311 0.296079 37.0662 0.313726 37.1092 0.313726C37.1521 0.313726 37.1873 0.331373 37.1873 0.352942C37.1873 0.37451 37.1521 0.392157 37.1092 0.392157C37.0662 0.392157 37.0311 0.37451 37.0311 0.352942C37.0311 0.331373 36.9959 0.313726 36.9529 0.313726Z" fill="#3F6EE3" fill-opacity="0.66"/>
<path d="M25.8002 0.470589C25.8326 0.470589 25.8592 0.452942 25.8592 0.431373C25.8592 0.409804 25.8768 0.392157 25.8982 0.392157C25.9197 0.392157 25.9373 0.400785 25.9373 0.411765C25.9373 0.422746 25.9123 0.45804 25.8814 0.490197C25.851 0.522354 25.8057 0.54902 25.7811 0.54902C25.7568 0.54902 25.5975 0.690197 25.4268 0.862746C25.2564 1.0353 25.108 1.16745 25.0975 1.15686C25.0869 1.14628 25.2271 0.987452 25.4096 0.803923C25.5916 0.620393 25.7674 0.470589 25.8002 0.470589Z" fill="#3F6EE3" fill-opacity="0.66"/>
<path d="M37.3436 0.470589C37.3006 0.470589 37.2654 0.452942 37.2654 0.431373C37.2654 0.409804 37.3006 0.392157 37.3436 0.392157C37.3865 0.392157 37.4217 0.409804 37.4217 0.431373C37.4217 0.452942 37.4568 0.470589 37.4998 0.470589C37.5428 0.470589 37.5779 0.488236 37.5779 0.509805C37.5779 0.531373 37.6041 0.54902 37.6365 0.54902C37.6689 0.54902 37.7213 0.575687 37.7537 0.607844C37.7861 0.640001 37.801 0.680001 37.7873 0.696079C37.7736 0.712158 37.7561 0.70353 37.7482 0.676471C37.7404 0.649413 37.699 0.627452 37.6561 0.627452C37.6131 0.627452 37.5779 0.609805 37.5779 0.588236C37.5779 0.566667 37.5428 0.54902 37.4998 0.54902C37.4568 0.54902 37.4217 0.531373 37.4217 0.509805C37.4217 0.488236 37.3865 0.470589 37.3436 0.470589Z" fill="#3F6EE3" fill-opacity="0.66"/>
<path d="M37.949 0.803923C37.9166 0.771766 37.8904 0.736079 37.8904 0.725491C37.8904 0.714903 37.908 0.705883 37.9295 0.705883C37.951 0.705883 37.9685 0.72353 37.9685 0.745099C37.9685 0.766668 37.9908 0.784315 38.0182 0.784315C38.0455 0.784315 38.1244 0.837256 38.1939 0.901962C38.2635 0.966668 38.3377 1.01961 38.3592 1.01961C38.3807 1.01961 38.5303 1.15177 38.6912 1.31373C38.8525 1.4753 38.9752 1.61686 38.9646 1.62745C38.9541 1.63804 38.8221 1.52353 38.6717 1.37255C38.5213 1.22157 38.3807 1.09804 38.3592 1.09804C38.3377 1.09804 38.2674 1.0451 38.2029 0.980393C38.1385 0.915687 38.0682 0.862746 38.0467 0.862746C38.0252 0.862746 37.9814 0.836079 37.949 0.803923Z" fill="#3F6EE3" fill-opacity="0.66"/>
<path d="M24.8045 1.64706C24.826 1.64706 24.8436 1.61177 24.8436 1.56863C24.8436 1.52549 24.8611 1.4902 24.8826 1.4902C24.9041 1.4902 24.9217 1.52549 24.9217 1.56863C24.9217 1.61177 24.9041 1.64706 24.8826 1.64706C24.8611 1.64706 24.8436 1.68235 24.8436 1.72549C24.8436 1.76863 24.826 1.80392 24.8045 1.80392C24.783 1.80392 24.7654 1.76863 24.7654 1.72549C24.7654 1.68235 24.783 1.64706 24.8045 1.64706Z" fill="#3F6EE3" fill-opacity="0.66"/>
<path d="M3.9256 2.33334C3.91466 2.32275 4.06857 2.14745 4.26739 1.94432C4.46622 1.74118 4.642 1.57334 4.65802 1.57177C4.67403 1.5702 4.68732 1.57765 4.68732 1.58824C4.68732 1.59883 4.52013 1.7753 4.31622 1.98039C4.11232 2.18549 3.93654 2.34392 3.9256 2.33334Z" fill="#3F6EE3" fill-opacity="0.66"/>
<path d="M7.0506 1.94118C6.86778 1.75804 6.71856 1.59883 6.71856 1.58824C6.71856 1.57765 6.72716 1.56863 6.7381 1.56863C6.74903 1.56863 6.90685 1.71883 7.08966 1.90196C7.27247 2.0851 7.4131 2.24432 7.40216 2.2549C7.39122 2.26549 7.23341 2.12432 7.0506 1.94118Z" fill="#3F6EE3" fill-opacity="0.66"/>
<path d="M24.6482 2.50981C24.6268 2.50981 24.6092 2.43922 24.6092 2.35294C24.6092 2.26667 24.6268 2.19608 24.6482 2.19608C24.6697 2.19608 24.6873 2.26667 24.6873 2.35294C24.6873 2.43922 24.6697 2.50981 24.6482 2.50981Z" fill="#3F6EE3" fill-opacity="0.66"/>
<path d="M24.6482 3.29412C24.6268 3.29412 24.6092 3.22353 24.6092 3.13726C24.6092 3.05098 24.6268 2.9804 24.6482 2.9804C24.6697 2.9804 24.6873 3.05098 24.6873 3.13726C24.6873 3.22353 24.6697 3.29412 24.6482 3.29412Z" fill="#3F6EE3" fill-opacity="0.66"/>
<path d="M39.9607 4.07844C39.9393 4.07844 39.9217 4.00785 39.9217 3.92157C39.9217 3.8353 39.9393 3.76471 39.9607 3.76471C39.9822 3.76471 39.9998 3.8353 39.9998 3.92157C39.9998 4.00785 39.9822 4.07844 39.9607 4.07844Z" fill="#3F6EE3" fill-opacity="0.66"/>
<path d="M25.3709 4.64706C25.2529 4.52824 25.1561 4.42275 25.1561 4.41177C25.1561 4.40079 25.165 4.39216 25.1756 4.39216C25.1861 4.39216 25.292 4.48903 25.41 4.60785C25.5279 4.72667 25.6158 4.83216 25.6053 4.84314C25.5947 4.85412 25.4889 4.76589 25.3709 4.64706Z" fill="#3F6EE3" fill-opacity="0.66"/>
<path d="M10.6834 5.50981C10.608 5.43412 10.5467 5.36393 10.5467 5.35295C10.5467 5.34197 10.5557 5.33334 10.5662 5.33334C10.5768 5.33334 10.6471 5.39491 10.7225 5.47059C10.7979 5.54628 10.8502 5.61648 10.8397 5.62746C10.8291 5.63844 10.7588 5.5855 10.6834 5.50981Z" fill="#3F6EE3" fill-opacity="0.66"/>
<path d="M26.8748 5.41177C26.7889 5.41177 26.7186 5.39412 26.7186 5.37256C26.7186 5.35099 26.7889 5.33334 26.8748 5.33334C26.9607 5.33334 27.0311 5.35099 27.0311 5.37256C27.0311 5.39412 26.9607 5.41177 26.8748 5.41177Z" fill="#3F6EE3" fill-opacity="0.66"/>
<path d="M11.7772 6.60785C11.3154 6.14432 10.9373 5.75609 10.9373 5.7451C10.9373 5.73412 10.9463 5.7255 10.9568 5.7255C10.9674 5.7255 11.3545 6.10511 11.8162 6.56863C12.2779 7.03217 12.6471 7.4204 12.6365 7.43138C12.626 7.44236 12.2389 7.07138 11.7772 6.60785Z" fill="#3F6EE3" fill-opacity="0.66"/>
<path d="M12.9295 8.70589C12.9076 8.70589 12.8904 8.60119 12.8904 8.4706C12.8904 8.34001 12.9076 8.2353 12.9295 8.2353C12.9514 8.2353 12.9686 8.34001 12.9686 8.4706C12.9686 8.60119 12.9514 8.70589 12.9295 8.70589Z" fill="#3F6EE3" fill-opacity="0.66"/>
<path d="M34.7264 13.4902C34.7049 13.4902 34.6873 13.4196 34.6873 13.3333C34.6873 13.2471 34.7049 13.1765 34.7264 13.1765C34.7478 13.1765 34.7654 13.2471 34.7654 13.3333C34.7654 13.4196 34.7478 13.4902 34.7264 13.4902Z" fill="#3F6EE3" fill-opacity="0.66"/>
<path d="M34.8826 13.9608C34.8611 13.9608 34.8436 13.9255 34.8436 13.8824C34.8436 13.8392 34.8611 13.8039 34.8826 13.8039C34.9041 13.8039 34.9217 13.8392 34.9217 13.8824C34.9217 13.9255 34.9393 13.9608 34.9607 13.9608C34.9822 13.9608 34.9998 13.9961 34.9998 14.0392C34.9998 14.0824 35.0217 14.1239 35.0486 14.1318C35.0756 14.1396 35.0842 14.1573 35.0682 14.171C35.0521 14.1847 35.0127 14.1694 34.9803 14.1373C34.9478 14.1051 34.9217 14.0518 34.9217 14.0196C34.9217 13.9875 34.9041 13.9608 34.8826 13.9608Z" fill="#3F6EE3" fill-opacity="0.66"/>
<path d="M35.41 14.7255C35.3131 14.6283 35.2342 14.54 35.2342 14.5294C35.2342 14.5188 35.2432 14.5098 35.2537 14.5098C35.2643 14.5098 35.3521 14.589 35.449 14.6863C35.5459 14.7835 35.6158 14.8718 35.6053 14.8824C35.5947 14.893 35.5068 14.8228 35.41 14.7255Z" fill="#3F6EE3" fill-opacity="0.66"/>
<path d="M39.0818 14.8824C39.0713 14.8718 39.1369 14.7847 39.2283 14.689C39.3197 14.5937 39.4076 14.5141 39.4236 14.5126C39.4396 14.511 39.4529 14.5188 39.4529 14.5294C39.4529 14.54 39.374 14.6283 39.2771 14.7255C39.1803 14.8228 39.0924 14.893 39.0818 14.8824Z" fill="#3F6EE3" fill-opacity="0.66"/>
<path d="M35.8006 15.0392C35.7471 14.9855 35.7029 14.9322 35.7029 14.9216C35.7029 14.911 35.7162 14.902 35.7322 14.9016C35.7482 14.9012 35.7877 14.9369 35.8201 14.9804C35.8525 15.0239 35.9006 15.0596 35.9275 15.0592C35.9545 15.0588 36.0025 15.0855 36.035 15.1177C36.0674 15.1498 36.0822 15.1898 36.0686 15.2059C36.0549 15.222 36.0373 15.2134 36.0295 15.1863C36.0217 15.1592 35.9893 15.1373 35.9568 15.1373C35.9244 15.1373 35.8545 15.0934 35.8006 15.0392Z" fill="#3F6EE3" fill-opacity="0.66"/>
<path d="M38.7568 15.0592C38.7853 15.0596 38.8338 15.0243 38.8646 14.9808C38.8955 14.9373 38.9353 14.902 38.9525 14.902C38.9701 14.902 38.9842 14.911 38.9842 14.9216C38.9842 14.9322 38.9412 14.9851 38.8885 15.0392C38.8357 15.093 38.7654 15.1373 38.7322 15.1373C38.699 15.1373 38.6654 15.1592 38.6576 15.1863C38.6498 15.2134 38.6322 15.222 38.6185 15.2059C38.6049 15.1898 38.6185 15.1498 38.6494 15.1177C38.6799 15.0855 38.7283 15.0588 38.7568 15.0592Z" fill="#3F6EE3" fill-opacity="0.66"/>
<path d="M37.3436 15.5294C37.1092 15.5294 36.9529 15.5137 36.9529 15.4902C36.9529 15.4667 37.1092 15.451 37.3436 15.451C37.5779 15.451 37.7342 15.4667 37.7342 15.4902C37.7342 15.5137 37.5779 15.5294 37.3436 15.5294Z" fill="#3F6EE3" fill-opacity="0.66"/>
<path d="M33.4959 28.3334C33.2061 28.0424 32.9686 27.7949 32.9686 27.7843C32.9686 27.7738 32.9775 27.7647 32.9881 27.7647C32.9986 27.7647 33.2451 28.0032 33.535 28.2942C33.8248 28.5851 34.0533 28.8326 34.0428 28.8432C34.0322 28.8538 33.7857 28.6243 33.4959 28.3334Z" fill="#3F6EE3" fill-opacity="0.66"/>
<path d="M35.9959 30.9216C35.4482 30.3718 34.9998 29.9126 34.9998 29.902C34.9998 29.8914 35.0088 29.8824 35.0193 29.8824C35.0299 29.8824 35.4873 30.3326 36.035 30.8824C36.5826 31.4322 37.0221 31.8914 37.0115 31.902C37.001 31.9126 36.5435 31.4714 35.9959 30.9216Z" fill="#3F6EE3" fill-opacity="0.66"/>
<path d="M37.2068 36.2157C37.1963 36.2051 37.2619 36.1181 37.3533 36.0224C37.4447 35.9271 37.5326 35.8475 37.5486 35.8459C37.5646 35.8444 37.5779 35.8522 37.5779 35.8628C37.5779 35.8734 37.499 35.9616 37.4021 36.0589C37.3053 36.1561 37.2174 36.2263 37.2068 36.2157Z" fill="#3F6EE3" fill-opacity="0.66"/>
<path d="M26.6406 0.157045C26.7266 0.157045 26.7969 0.139398 26.7969 0.117829C26.7969 0.0919466 28.3723 0.0786133 31.4453 0.0786133C34.5183 0.0786133 36.0937 0.0919466 36.0937 0.117829C36.0937 0.13979 36.198 0.157045 36.3281 0.157045C36.4582 0.157045 36.5625 0.1743 36.5625 0.19626C36.5625 0.217829 36.6328 0.235476 36.7187 0.235476C36.8047 0.235476 36.875 0.253123 36.875 0.274692C36.875 0.296261 36.9101 0.313908 36.9531 0.313908C36.9961 0.313908 37.0312 0.331555 37.0312 0.353123C37.0312 0.374692 37.084 0.392339 37.1484 0.392339C37.2129 0.392339 37.2656 0.409986 37.2656 0.431555C37.2656 0.453124 37.3008 0.470771 37.3437 0.470771C37.3867 0.470771 37.4219 0.488418 37.4219 0.509986C37.4219 0.531555 37.457 0.549202 37.5 0.549202C37.543 0.549202 37.5781 0.566849 37.5781 0.588418C37.5781 0.609986 37.6133 0.627634 37.6562 0.627634C37.6992 0.627634 37.7344 0.645281 37.7344 0.666849C37.7344 0.688418 37.7652 0.706065 37.8027 0.705673C37.8402 0.705281 37.8972 0.740967 37.9297 0.784496C37.9621 0.828026 38.0101 0.863712 38.0371 0.86332C38.064 0.862928 38.1387 0.915869 38.2031 0.980575C38.2676 1.04528 38.3379 1.09822 38.3594 1.09822C38.3808 1.09822 38.5305 1.23077 38.6914 1.39234C38.8527 1.5543 38.9844 1.70411 38.9844 1.72567C38.9844 1.74724 39.0371 1.81783 39.1015 1.88254C39.166 1.94724 39.2187 2.02215 39.2183 2.0492C39.2179 2.07626 39.2535 2.1245 39.2969 2.15705C39.3402 2.1896 39.3758 2.24685 39.3754 2.2845C39.375 2.32215 39.3926 2.35313 39.414 2.35313C39.4355 2.35313 39.4531 2.38842 39.4531 2.43156C39.4531 2.47469 39.4707 2.50999 39.4922 2.50999C39.5137 2.50999 39.5312 2.54528 39.5312 2.58842C39.5312 2.63156 39.5488 2.66685 39.5703 2.66685C39.5918 2.66685 39.6094 2.70215 39.6094 2.74528C39.6094 2.78842 39.6269 2.82371 39.6484 2.82371C39.6699 2.82371 39.6875 2.87666 39.6875 2.94136C39.6875 3.00607 39.7051 3.05901 39.7265 3.05901C39.748 3.05901 39.7656 3.11195 39.7656 3.17666C39.7656 3.24136 39.7832 3.2943 39.8047 3.2943C39.8262 3.2943 39.8437 3.36489 39.8437 3.45117C39.8437 3.53744 39.8613 3.60803 39.8828 3.60803C39.9047 3.60803 39.9219 3.71274 39.9219 3.84332C39.9219 3.97391 39.939 4.07862 39.9609 4.07862C39.9867 4.07862 40 5.62097 40 8.62764C40 11.6343 39.9867 13.1767 39.9609 13.1767C39.9394 13.1767 39.9219 13.2649 39.9219 13.3727C39.9219 13.4806 39.9043 13.5688 39.8828 13.5688C39.8613 13.5688 39.8437 13.6218 39.8437 13.6865C39.8437 13.7512 39.8262 13.8041 39.8047 13.8041C39.7832 13.8041 39.7656 13.8394 39.7656 13.8826C39.7656 13.9257 39.748 13.961 39.7265 13.961C39.7051 13.961 39.6875 13.9963 39.6875 14.0394C39.6875 14.0826 39.6699 14.1178 39.6484 14.1178C39.6269 14.1178 39.6094 14.1488 39.6097 14.1865C39.6101 14.2241 39.5746 14.2818 39.5312 14.3139C39.4879 14.3461 39.4523 14.3947 39.4527 14.4218C39.4531 14.4488 39.3566 14.5676 39.239 14.6865C39.1215 14.8049 39.0027 14.9022 38.9754 14.9018C38.948 14.9014 38.8996 14.9371 38.8672 14.9806C38.8347 15.0241 38.7824 15.0594 38.75 15.059C38.7176 15.0586 38.6652 15.0939 38.6328 15.1375C38.6004 15.181 38.5433 15.2167 38.5058 15.2163C38.4683 15.2159 38.4375 15.2335 38.4375 15.2551C38.4375 15.2767 38.3847 15.2943 38.3203 15.2943C38.2558 15.2943 38.2031 15.312 38.2031 15.3335C38.2031 15.3551 38.1328 15.3727 38.0469 15.3727C37.9609 15.3727 37.8906 15.3904 37.8906 15.412C37.8906 15.4363 37.6824 15.4512 37.3437 15.4512C37.0051 15.4512 36.7969 15.4363 36.7969 15.412C36.7969 15.3904 36.7265 15.3727 36.6406 15.3727C36.5547 15.3727 36.4844 15.3551 36.4844 15.3335C36.4844 15.312 36.4316 15.2943 36.3672 15.2943C36.3027 15.2943 36.25 15.2767 36.25 15.2551C36.25 15.2335 36.2191 15.2159 36.1816 15.2163C36.1441 15.2167 36.0871 15.181 36.0547 15.1375C36.0223 15.0939 35.9699 15.0586 35.9375 15.059C35.9051 15.0594 35.8527 15.0241 35.8203 14.9806C35.7879 14.9371 35.7398 14.9014 35.7129 14.9018C35.6859 14.9022 35.5672 14.8049 35.4492 14.6865C35.3312 14.568 35.2344 14.4488 35.2347 14.4218C35.2351 14.3947 35.1996 14.3461 35.1562 14.3139C35.1129 14.2818 35.0773 14.2241 35.0777 14.1865C35.0781 14.1488 35.0605 14.1178 35.039 14.1178C35.0176 14.1178 35 14.0826 35 14.0394C35 13.9963 34.9824 13.961 34.9609 13.961C34.9394 13.961 34.9219 13.9257 34.9219 13.8826C34.9219 13.8394 34.9043 13.8041 34.8828 13.8041C34.8613 13.8041 34.8437 13.7512 34.8437 13.6865C34.8437 13.6218 34.8262 13.5688 34.8047 13.5688C34.7832 13.5688 34.7656 13.4806 34.7656 13.3727C34.7656 13.2649 34.748 13.1767 34.7265 13.1767C34.7008 13.1767 34.6875 11.961 34.6875 9.60804C34.6875 7.25509 34.6742 6.0394 34.6484 6.0394C34.6269 6.0394 34.6094 6.00411 34.6094 5.96097C34.6094 5.91784 34.5918 5.88254 34.5703 5.88254C34.5488 5.88254 34.5312 5.85588 34.5312 5.82372C34.5312 5.79156 34.4875 5.72097 34.4336 5.66686C34.3801 5.61313 34.3097 5.56882 34.2773 5.56882C34.2449 5.56882 34.2187 5.55117 34.2187 5.5296C34.2187 5.50803 34.1836 5.49038 34.1406 5.49038C34.0976 5.49038 34.0625 5.47274 34.0625 5.45117C34.0625 5.42529 32.8644 5.41195 30.5469 5.41195C28.2293 5.41195 27.0312 5.39862 27.0312 5.37274C27.0312 5.35117 26.9433 5.33352 26.8359 5.33352C26.7285 5.33352 26.6406 5.31587 26.6406 5.29431C26.6406 5.27274 26.5703 5.25509 26.4844 5.25509C26.3984 5.25509 26.3281 5.23744 26.3281 5.21587C26.3281 5.19431 26.293 5.17666 26.25 5.17666C26.207 5.17666 26.1719 5.15901 26.1719 5.13744C26.1719 5.11587 26.1367 5.09823 26.0937 5.09823C26.0508 5.09823 26.0156 5.08058 26.0156 5.05901C26.0156 5.03744 25.9848 5.0198 25.9473 5.02019C25.9098 5.02058 25.8527 4.98489 25.8203 4.94136C25.7879 4.89783 25.7398 4.86215 25.7129 4.86254C25.6859 4.86293 25.55 4.74842 25.4101 4.60803C25.2703 4.46764 25.1562 4.33117 25.1566 4.30411C25.157 4.27705 25.1215 4.22881 25.0781 4.19627C25.0348 4.16372 24.9992 4.10646 24.9996 4.06881C25 4.03117 24.9824 4.00019 24.9609 4.00019C24.9394 4.00019 24.9219 3.96489 24.9219 3.92176C24.9219 3.87862 24.9043 3.84332 24.8828 3.84332C24.8613 3.84332 24.8437 3.80803 24.8437 3.76489C24.8437 3.72175 24.8262 3.68646 24.8047 3.68646C24.7832 3.68646 24.7656 3.61587 24.7656 3.5296C24.7656 3.44332 24.748 3.37273 24.7266 3.37273C24.7051 3.37273 24.6875 3.2845 24.6875 3.17666C24.6875 3.06881 24.6699 2.98058 24.6484 2.98058C24.6266 2.98058 24.6094 2.87587 24.6094 2.74528C24.6094 2.61469 24.6266 2.50999 24.6484 2.50999C24.6703 2.50999 24.6875 2.40528 24.6875 2.27469C24.6875 2.14411 24.7047 2.0394 24.7266 2.0394C24.748 2.0394 24.7656 1.98646 24.7656 1.92175C24.7656 1.85705 24.7832 1.80411 24.8047 1.80411C24.8262 1.80411 24.8437 1.76881 24.8437 1.72567C24.8437 1.68254 24.8613 1.64724 24.8828 1.64724C24.9043 1.64724 24.923 1.59822 24.9246 1.53822C24.9262 1.47665 24.9609 1.40489 25.0051 1.37273C25.048 1.34175 25.082 1.29352 25.0808 1.26607C25.0793 1.23861 25.2273 1.06607 25.4098 0.882536C25.5918 0.699006 25.7633 0.549202 25.7906 0.549594C25.8176 0.549986 25.8644 0.514692 25.8945 0.471163C25.9246 0.427633 25.9816 0.392339 26.0215 0.392339C26.0613 0.392339 26.0937 0.374692 26.0937 0.353123C26.0937 0.331555 26.1289 0.313908 26.1719 0.313908C26.2148 0.313908 26.25 0.296261 26.25 0.274692C26.25 0.253123 26.3027 0.235476 26.3672 0.235476C26.4316 0.235476 26.4844 0.217829 26.4844 0.19626C26.4844 0.174692 26.5547 0.157045 26.6406 0.157045Z" fill="#004A68"/>
<path d="M5.27344 1.33352C5.33789 1.33352 5.39062 1.31587 5.39062 1.2943C5.39062 1.27156 5.5207 1.25509 5.70312 1.25509C5.88554 1.25509 6.01562 1.27156 6.01562 1.2943C6.01562 1.31587 6.08594 1.33352 6.17187 1.33352C6.25781 1.33352 6.32812 1.35116 6.32812 1.37273C6.32812 1.3943 6.36328 1.41195 6.40625 1.41195C6.44922 1.41195 6.48437 1.4296 6.48437 1.45116C6.48437 1.47273 6.51094 1.49038 6.54297 1.49038C6.575 1.49038 6.77734 1.66685 6.99219 1.88254C7.20703 2.09822 7.40039 2.27469 7.42187 2.27469C7.44336 2.27469 8.63007 3.44803 10.0586 4.88254C11.4871 6.31666 12.6562 7.51705 12.6562 7.54921C12.6562 7.58137 12.6738 7.60803 12.6953 7.60803C12.7168 7.60803 12.7344 7.64333 12.7344 7.68647C12.7344 7.7296 12.7519 7.7649 12.7734 7.7649C12.7949 7.7649 12.8125 7.80019 12.8125 7.84333C12.8125 7.88647 12.8301 7.92176 12.8516 7.92176C12.8758 7.92176 12.8906 8.11784 12.8906 8.43156C12.8906 8.74529 12.8758 8.94137 12.8516 8.94137C12.8301 8.94137 12.8125 8.99431 12.8125 9.05902C12.8125 9.12372 12.7949 9.17666 12.7734 9.17666C12.7519 9.17666 12.7344 9.20764 12.7348 9.24529C12.7352 9.28294 12.6996 9.34058 12.6562 9.37274C12.6129 9.4049 12.5777 9.45823 12.5781 9.49039C12.5785 9.52255 12.5434 9.57588 12.5 9.60804C12.4566 9.64019 12.4211 9.69784 12.4215 9.73549C12.4219 9.77313 12.4043 9.80412 12.3828 9.80412C12.3613 9.80412 12.3437 9.8351 12.3441 9.87274C12.3445 9.91039 12.309 9.96804 12.2656 10.0002C12.2223 10.0324 12.1871 10.0857 12.1875 10.1178C12.1879 10.15 12.1527 10.2033 12.1094 10.2355C12.066 10.2676 12.0305 10.3253 12.0309 10.3629C12.0312 10.4006 12.0137 10.4316 11.9922 10.4316C11.9707 10.4316 11.9531 10.4669 11.9531 10.51C11.9531 10.5531 11.9355 10.5884 11.9141 10.5884C11.8926 10.5884 11.875 10.6194 11.8754 10.6571C11.8758 10.6947 11.8402 10.7524 11.7969 10.7845C11.7535 10.8167 11.718 10.8743 11.7184 10.912C11.7187 10.9496 11.7012 10.9806 11.6797 10.9806C11.6582 10.9806 11.6406 11.0159 11.6406 11.059C11.6406 11.1022 11.623 11.1375 11.6016 11.1375C11.5801 11.1375 11.5625 11.1727 11.5625 11.2159C11.5625 11.259 11.5449 11.2943 11.5234 11.2943C11.5019 11.2943 11.4844 11.3473 11.4844 11.412C11.4844 11.4767 11.4668 11.5296 11.4453 11.5296C11.4238 11.5296 11.4062 11.5649 11.4062 11.608C11.4062 11.6512 11.3887 11.6865 11.3672 11.6865C11.3457 11.6865 11.3281 11.7218 11.3281 11.7649C11.3281 11.808 11.3105 11.8433 11.2891 11.8433C11.2676 11.8433 11.25 11.8963 11.25 11.961C11.25 12.0257 11.2324 12.0786 11.2109 12.0786C11.1894 12.0786 11.1719 12.1139 11.1719 12.1571C11.1719 12.2002 11.1543 12.2355 11.1328 12.2355C11.1113 12.2355 11.0937 12.2884 11.0937 12.3531C11.0937 12.4178 11.0762 12.4708 11.0547 12.4708C11.0332 12.4708 11.0156 12.5237 11.0156 12.5884C11.0156 12.6531 10.998 12.7061 10.9766 12.7061C10.9551 12.7061 10.9375 12.7767 10.9375 12.8629C10.9375 12.9492 10.9199 13.0198 10.8984 13.0198C10.8769 13.0198 10.8594 13.0904 10.8594 13.1767C10.8594 13.2629 10.8418 13.3335 10.8203 13.3335C10.7988 13.3335 10.7812 13.4041 10.7812 13.4904C10.7812 13.5767 10.7637 13.6473 10.7422 13.6473C10.7203 13.6473 10.7031 13.752 10.7031 13.8826C10.7031 14.0131 10.6859 14.1178 10.6641 14.1178C10.6406 14.1178 10.625 14.2747 10.625 14.51C10.625 14.7257 10.616 14.9022 10.6055 14.9022C10.5949 14.9022 8.57304 12.8818 6.11328 10.412C2.56133 6.84607 1.64062 5.90176 1.64062 5.82372C1.64062 5.76999 1.6582 5.72568 1.67969 5.72568C1.70117 5.72568 1.71875 5.69038 1.71875 5.64725C1.71875 5.60411 1.73633 5.56882 1.75781 5.56882C1.7793 5.56882 1.79687 5.53352 1.79687 5.49038C1.79687 5.44725 1.81445 5.41195 1.83594 5.41195C1.85742 5.41195 1.875 5.37666 1.875 5.33352C1.875 5.29038 1.89258 5.25509 1.91406 5.25509C1.93555 5.25509 1.95312 5.22411 1.95273 5.18646C1.95234 5.14882 1.98789 5.09117 2.03125 5.05901C2.07461 5.02685 2.11016 4.96921 2.10977 4.93156C2.10937 4.89391 2.12695 4.86293 2.14844 4.86293C2.16992 4.86293 2.1875 4.83195 2.18711 4.79431C2.18672 4.75666 2.22227 4.6994 2.26562 4.66685C2.30898 4.63431 2.34453 4.57705 2.34414 4.5394C2.34375 4.50176 2.36133 4.47078 2.38281 4.47078C2.4043 4.47078 2.42187 4.4398 2.42148 4.40215C2.42109 4.3645 2.45664 4.30725 2.5 4.2747C2.54336 4.24215 2.57852 4.1896 2.57812 4.15705C2.57773 4.1245 2.61289 4.07195 2.65625 4.0394C2.69961 4.00685 2.73477 3.9543 2.73437 3.92176C2.73398 3.88921 2.76914 3.83666 2.8125 3.80411C2.85586 3.77156 2.89141 3.72332 2.89101 3.69626C2.89062 3.66921 2.94336 3.5943 3.00781 3.5296C3.07226 3.46489 3.125 3.3943 3.125 3.37273C3.125 3.35117 3.17773 3.28058 3.24219 3.21587C3.30664 3.15117 3.35937 3.08058 3.35937 3.05901C3.35937 3.03744 3.44726 2.93156 3.55469 2.82371C3.66211 2.71587 3.75 2.60999 3.75 2.58842C3.75 2.56685 3.98711 2.31077 4.27695 2.01979C4.5668 1.72881 4.83047 1.49038 4.86289 1.49038C4.89531 1.49038 4.92187 1.47273 4.92187 1.45116C4.92187 1.4296 4.97461 1.41195 5.03906 1.41195C5.10351 1.41195 5.15625 1.3943 5.15625 1.37273C5.15625 1.35116 5.20898 1.33352 5.27344 1.33352Z" fill="#004A68"/>
<path d="M31.4453 27.5296C31.5098 27.5296 31.5625 27.512 31.5625 27.4904C31.5625 27.4673 31.7058 27.4512 31.914 27.4512C32.1223 27.4512 32.2656 27.4673 32.2656 27.4904C32.2656 27.512 32.3183 27.5296 32.3828 27.5296C32.4473 27.5296 32.5 27.5473 32.5 27.5688C32.5 27.5904 32.5484 27.6081 32.6074 27.6077C32.6703 27.6073 32.739 27.6402 32.7734 27.6865C32.8058 27.73 32.8539 27.7657 32.8808 27.7653C32.9078 27.7649 33.3953 28.2324 33.9648 28.8041C34.5344 29.3759 35 29.861 35 29.8826C35 29.9041 35.7031 30.6277 36.5625 31.4904C37.4219 32.3532 38.125 33.081 38.1246 33.1081C38.1242 33.1351 38.1597 33.1834 38.2031 33.2159C38.2465 33.2485 38.282 33.3057 38.2816 33.3434C38.2812 33.381 38.2988 33.412 38.3203 33.412C38.3418 33.412 38.3594 33.4473 38.3594 33.4904C38.3594 33.5336 38.3769 33.5688 38.3984 33.5688C38.4199 33.5688 38.4375 33.6218 38.4375 33.6865C38.4375 33.7512 38.4551 33.8041 38.4765 33.8041C38.5 33.8041 38.5156 33.961 38.5156 34.1963C38.5156 34.4316 38.5 34.5885 38.4765 34.5885C38.4551 34.5885 38.4375 34.6414 38.4375 34.7061C38.4375 34.7708 38.4199 34.8238 38.3984 34.8238C38.3769 34.8238 38.3594 34.859 38.3594 34.9022C38.3594 34.9453 38.3418 34.9806 38.3203 34.9806C38.2988 34.9806 38.2812 35.0116 38.2816 35.0492C38.282 35.0869 38.2465 35.1441 38.2031 35.1767C38.1597 35.2092 38.1242 35.2575 38.1246 35.2845C38.125 35.3116 38.0109 35.4481 37.8719 35.5885C37.7324 35.7289 37.6008 35.8434 37.5789 35.8434C37.557 35.8434 37.416 35.9669 37.2656 36.1179C37.1152 36.2689 36.9746 36.3924 36.9531 36.3924C36.9316 36.3924 36.8437 36.463 36.7578 36.5492C36.6719 36.6355 36.584 36.7061 36.5625 36.7061C36.541 36.7061 36.4707 36.759 36.4062 36.8238C36.3418 36.8885 36.2672 36.9414 36.2402 36.941C36.2133 36.9406 36.1652 36.9763 36.1328 37.0198C36.1004 37.0634 36.048 37.0987 36.0156 37.0983C35.9832 37.0979 35.9308 37.1332 35.8984 37.1767C35.866 37.2202 35.8137 37.2555 35.7812 37.2551C35.7488 37.2547 35.6965 37.29 35.664 37.3336C35.6316 37.3771 35.5793 37.4124 35.5469 37.412C35.5144 37.4116 35.4621 37.4469 35.4297 37.4904C35.3973 37.534 35.3402 37.5696 35.3027 37.5692C35.2652 37.5689 35.2344 37.5865 35.2344 37.6081C35.2344 37.6296 35.2035 37.6473 35.166 37.6469C35.1285 37.6465 35.0715 37.6822 35.039 37.7257C35.0066 37.7692 34.9496 37.8049 34.9121 37.8045C34.8746 37.8041 34.8437 37.8218 34.8437 37.8434C34.8437 37.8649 34.8129 37.8826 34.7754 37.8822C34.7379 37.8818 34.6808 37.9175 34.6484 37.961C34.616 38.0045 34.559 38.0402 34.5215 38.0398C34.484 38.0394 34.4531 38.0571 34.4531 38.0787C34.4531 38.1002 34.418 38.1179 34.375 38.1179C34.332 38.1179 34.2969 38.1355 34.2969 38.1571C34.2969 38.1787 34.2617 38.1963 34.2187 38.1963C34.1758 38.1963 34.1406 38.214 34.1406 38.2355C34.1406 38.2571 34.1055 38.2747 34.0625 38.2747C34.0195 38.2747 33.9789 38.2967 33.9726 38.3238C33.966 38.3508 31.9797 36.383 29.5586 33.9512C27.1371 31.5194 25.1562 29.5206 25.1562 29.51C25.1562 29.4994 25.4551 29.4904 25.8203 29.4904C26.2371 29.4904 26.4844 29.4759 26.4844 29.4512C26.4844 29.4288 26.6016 29.412 26.7578 29.412C26.9141 29.412 27.0312 29.3951 27.0312 29.3728C27.0312 29.3512 27.1191 29.3335 27.2266 29.3335C27.334 29.3335 27.4219 29.3159 27.4219 29.2943C27.4219 29.2728 27.4922 29.2551 27.5781 29.2551C27.664 29.2551 27.7344 29.2375 27.7344 29.2159C27.7344 29.1943 27.7871 29.1767 27.8515 29.1767C27.916 29.1767 27.9687 29.159 27.9687 29.1375C27.9687 29.1159 28.039 29.0983 28.125 29.0983C28.2109 29.0983 28.2812 29.0806 28.2812 29.059C28.2812 29.0375 28.334 29.0198 28.3984 29.0198C28.4629 29.0198 28.5156 29.0022 28.5156 28.9806C28.5156 28.959 28.5508 28.9414 28.5937 28.9414C28.6367 28.9414 28.6719 28.9237 28.6719 28.9022C28.6719 28.8806 28.7246 28.863 28.789 28.863C28.8535 28.863 28.9062 28.8453 28.9062 28.8237C28.9062 28.8022 28.9414 28.7845 28.9844 28.7845C29.0273 28.7845 29.0625 28.7669 29.0625 28.7453C29.0625 28.7237 29.1152 28.7061 29.1797 28.7061C29.2441 28.7061 29.2969 28.6885 29.2969 28.6669C29.2969 28.6453 29.332 28.6277 29.375 28.6277C29.418 28.6277 29.4531 28.61 29.4531 28.5885C29.4531 28.5669 29.4883 28.5492 29.5312 28.5492C29.5742 28.5492 29.6094 28.5316 29.6094 28.51C29.6094 28.4885 29.6445 28.4708 29.6875 28.4708C29.7305 28.4708 29.7656 28.4532 29.7656 28.4316C29.7656 28.41 29.8008 28.3924 29.8437 28.3924C29.8867 28.3924 29.9219 28.3747 29.9219 28.3532C29.9219 28.3316 29.957 28.3139 30 28.3139C30.043 28.3139 30.0781 28.2963 30.0781 28.2747C30.0781 28.2532 30.1133 28.2355 30.1562 28.2355C30.1992 28.2355 30.2344 28.2179 30.2344 28.1963C30.2344 28.1747 30.2652 28.1571 30.3027 28.1575C30.3402 28.1579 30.3973 28.1222 30.4297 28.0786C30.4621 28.0351 30.5144 27.9998 30.5469 28.0002C30.5793 28.0006 30.6234 27.9657 30.6453 27.9222C30.6676 27.8786 30.7246 27.8434 30.7723 27.8434C30.8203 27.8434 30.8594 27.8257 30.8594 27.8041C30.8594 27.7826 30.8902 27.7649 30.9277 27.7653C30.9652 27.7657 31.0223 27.7304 31.0543 27.6869C31.0879 27.641 31.1574 27.6081 31.2203 27.6081C31.2797 27.6081 31.3281 27.5904 31.3281 27.5688C31.3281 27.5473 31.3808 27.5296 31.4453 27.5296Z" fill="#004A68"/>
<path d="M22.5 13.8038C22.5 13.7822 24.3676 11.8865 26.6504 9.59123L30.8008 5.41828L32.4316 5.41475C33.4949 5.41279 34.0625 5.42534 34.0625 5.45083C34.0625 5.4724 34.0976 5.49004 34.1406 5.49004C34.1836 5.49004 34.2187 5.50769 34.2187 5.52926C34.2187 5.55083 34.2449 5.56848 34.2773 5.56848C34.3097 5.56848 34.3797 5.6124 34.4336 5.66652C34.4871 5.72024 34.5312 5.79083 34.5312 5.82338C34.5312 5.85553 34.5488 5.8822 34.5703 5.8822C34.5918 5.8822 34.6094 5.9175 34.6094 5.96063C34.6094 6.00377 34.6269 6.03906 34.6484 6.03906C34.6738 6.03906 34.6875 6.59475 34.6875 9.21554L30.4101 13.5097C28.0578 15.8716 26.1109 17.8038 26.084 17.8034C26.057 17.803 26.009 17.8387 25.9766 17.8822C25.9441 17.9257 25.8871 17.9614 25.8496 17.961C25.8121 17.9606 25.7812 17.9783 25.7812 17.9999C25.7812 18.0214 25.7461 18.0391 25.7031 18.0391C25.6601 18.0391 25.625 18.0567 25.625 18.0783C25.625 18.0999 25.5723 18.1175 25.5078 18.1175C25.4433 18.1175 25.3906 18.1352 25.3906 18.1567C25.3906 18.1783 25.3203 18.1959 25.2344 18.1959C25.1484 18.1959 25.0781 18.2136 25.0781 18.2352C25.0781 18.2595 24.8699 18.2744 24.5312 18.2744C24.1926 18.2744 23.9844 18.2595 23.9844 18.2352C23.9844 18.2136 23.9141 18.1959 23.8281 18.1959C23.7422 18.1959 23.6719 18.1783 23.6719 18.1567C23.6719 18.1352 23.6191 18.1175 23.5547 18.1175C23.4902 18.1175 23.4375 18.0999 23.4375 18.0783C23.4375 18.0567 23.4023 18.0391 23.3594 18.0391C23.3164 18.0391 23.2812 18.0214 23.2812 17.9999C23.2812 17.9783 23.2504 17.9606 23.2129 17.961C23.1754 17.9614 23.1183 17.9257 23.0859 17.8822C23.0535 17.8387 23.0055 17.803 22.9785 17.8034C22.9516 17.8038 22.798 17.6712 22.6367 17.5097C22.4758 17.3477 22.3437 17.1936 22.3441 17.1665C22.3445 17.1395 22.309 17.0908 22.2656 17.0587C22.2223 17.0261 22.1867 16.9689 22.1871 16.9312C22.1875 16.8936 22.1699 16.8626 22.1484 16.8626C22.1269 16.8626 22.1094 16.8273 22.1094 16.7842C22.1094 16.741 22.0918 16.7057 22.0703 16.7057C22.0488 16.7057 22.0312 16.6528 22.0312 16.5881C22.0312 16.5234 22.0137 16.4705 21.9922 16.4705C21.9707 16.4705 21.9531 16.4175 21.9531 16.3528C21.9531 16.2881 21.9355 16.2352 21.9141 16.2352C21.8922 16.2352 21.875 16.1305 21.875 15.9999C21.875 15.8693 21.8578 15.7646 21.8359 15.7646C21.8144 15.7646 21.7969 15.694 21.7969 15.6077C21.7969 15.5214 21.8144 15.4508 21.8359 15.4508C21.8582 15.4508 21.875 15.3332 21.875 15.1763C21.875 15.0195 21.8918 14.9018 21.9141 14.9018C21.9355 14.9018 21.9531 14.8489 21.9531 14.7842C21.9531 14.7195 21.9707 14.6665 21.9922 14.6665C22.0137 14.6665 22.0312 14.6312 22.0312 14.5881C22.0312 14.545 22.0488 14.5097 22.0703 14.5097C22.0918 14.5097 22.1094 14.461 22.109 14.4018C22.1086 14.3387 22.1414 14.2697 22.1875 14.2352C22.2308 14.2026 22.2664 14.1544 22.266 14.1273C22.2656 14.1003 22.3183 14.0253 22.3828 13.9606C22.4473 13.8959 22.5 13.8253 22.5 13.8038Z" fill="#3CAFAA"/>
<path d="M1.52344 6.1171C1.54492 6.1171 1.5625 6.06416 1.5625 5.99946C1.5625 5.93475 1.57148 5.88181 1.58203 5.88181C1.59297 5.88181 3.63164 7.92024 10.625 14.9406V15.5485C10.625 15.9277 10.6398 16.1563 10.6641 16.1563C10.6859 16.1563 10.7031 16.261 10.7031 16.3916C10.7031 16.5226 10.7203 16.6269 10.7422 16.6269C10.7637 16.6269 10.7812 16.6975 10.7812 16.7838C10.7812 16.8701 10.7988 16.9406 10.8203 16.9406C10.8418 16.9406 10.8594 16.9936 10.8594 17.0583C10.8594 17.123 10.8769 17.1759 10.8984 17.1759C10.9199 17.1759 10.9375 17.2289 10.9375 17.2936C10.9375 17.3583 10.9551 17.4112 10.9766 17.4112C10.998 17.4112 11.0156 17.4642 11.0156 17.5289C11.0156 17.5936 11.0332 17.6465 11.0547 17.6465C11.0762 17.6465 11.0937 17.6818 11.0937 17.725C11.0937 17.7681 11.1113 17.8034 11.1328 17.8034C11.1543 17.8034 11.1719 17.8563 11.1719 17.921C11.1719 17.9857 11.1894 18.0387 11.2109 18.0387C11.2324 18.0387 11.25 18.074 11.25 18.1171C11.25 18.1603 11.2676 18.1955 11.2891 18.1955C11.3105 18.1955 11.3281 18.2265 11.3277 18.2642C11.3273 18.3022 11.3629 18.3595 11.4062 18.3916C11.4496 18.4242 11.4852 18.4814 11.4848 18.5191C11.4844 18.5571 11.5019 18.5877 11.5234 18.5877C11.5449 18.5877 11.5625 18.6187 11.5621 18.6563C11.5617 18.6944 11.5973 18.7516 11.6406 18.7838C11.684 18.8163 11.7195 18.8736 11.7191 18.9112C11.7187 18.9493 11.7363 18.9799 11.7578 18.9799C11.7793 18.9799 11.7969 19.0065 11.7969 19.0387C11.7969 19.0712 11.8496 19.1505 11.9141 19.2152C11.9785 19.2799 12.0312 19.3505 12.0312 19.372C12.0312 19.3936 12.1016 19.4818 12.1875 19.5681C12.2734 19.6544 12.3437 19.7426 12.3437 19.7642C12.3437 19.7857 14.075 21.5418 16.1914 23.6661C18.3078 25.7909 20.0566 27.5289 20.0781 27.5289C20.0996 27.5289 20.1875 27.5995 20.2734 27.6858C20.3594 27.772 20.4473 27.8426 20.4687 27.8426C20.4902 27.8426 20.5605 27.8956 20.625 27.9603C20.6894 28.025 20.7641 28.0779 20.791 28.0775C20.818 28.0775 20.866 28.1128 20.8984 28.1563C20.9308 28.1999 20.9832 28.2352 21.0156 28.2348C21.048 28.2344 21.1004 28.2697 21.1328 28.3132C21.1652 28.3567 21.2223 28.3924 21.2598 28.392C21.2973 28.392 21.3281 28.4093 21.3281 28.4309C21.3281 28.4524 21.3633 28.4701 21.4062 28.4701C21.4492 28.4701 21.4844 28.4877 21.4844 28.5093C21.4844 28.5309 21.5195 28.5485 21.5625 28.5485C21.6055 28.5485 21.6406 28.5662 21.6406 28.5877C21.6406 28.6093 21.6758 28.6269 21.7187 28.6269C21.7617 28.6269 21.7969 28.6446 21.7969 28.6662C21.7969 28.6877 21.832 28.7054 21.875 28.7054C21.918 28.7054 21.9531 28.723 21.9531 28.7446C21.9531 28.7662 21.9883 28.7838 22.0312 28.7838C22.0742 28.7838 22.1094 28.8014 22.1094 28.823C22.1094 28.8446 22.1445 28.8622 22.1875 28.8622C22.2305 28.8622 22.2656 28.8799 22.2656 28.9014C22.2656 28.923 22.3008 28.9407 22.3437 28.9407C22.3867 28.9407 22.4219 28.9583 22.4219 28.9799C22.4219 29.0014 22.4746 29.0191 22.5391 29.0191C22.6035 29.0191 22.6562 29.0367 22.6562 29.0583C22.6562 29.0799 22.709 29.0975 22.7734 29.0975C22.8379 29.0975 22.8906 29.1152 22.8906 29.1367C22.8906 29.1583 22.9433 29.176 23.0078 29.176C23.0723 29.176 23.125 29.1936 23.125 29.2152C23.125 29.2367 23.1953 29.2544 23.2812 29.2544C23.3672 29.2544 23.4375 29.272 23.4375 29.2936C23.4375 29.3152 23.5078 29.3328 23.5937 29.3328C23.6797 29.3328 23.75 29.3505 23.75 29.372C23.75 29.394 23.8543 29.4113 23.9844 29.4113C24.1144 29.4113 24.2187 29.4289 24.2187 29.4505C24.2187 29.4744 24.3879 29.4897 24.6484 29.4897C24.909 29.4897 25.0781 29.5054 25.0781 29.5289C25.0781 29.5505 25.1043 29.5681 25.1367 29.5681C25.1691 29.5681 27.1551 31.536 29.5508 33.9407C31.9465 36.3458 33.9062 38.3222 33.9062 38.3328C33.9062 38.3438 33.8711 38.3524 33.8281 38.3524C33.7851 38.3524 33.75 38.3701 33.75 38.3917C33.75 38.4132 33.7148 38.4309 33.6719 38.4309C33.6289 38.4309 33.5937 38.4485 33.5937 38.4701C33.5937 38.4917 33.5586 38.5093 33.5156 38.5093C33.4726 38.5093 33.4375 38.527 33.4375 38.5485C33.4375 38.5701 33.3848 38.5877 33.3203 38.5877C33.2558 38.5877 33.2031 38.6054 33.2031 38.6269C33.2031 38.6485 33.168 38.6662 33.125 38.6662C33.082 38.6662 33.0469 38.6838 33.0469 38.7054C33.0469 38.727 32.9941 38.7446 32.9297 38.7446C32.8652 38.7446 32.8125 38.7622 32.8125 38.7838C32.8125 38.8054 32.7773 38.823 32.7344 38.823C32.6914 38.823 32.6562 38.8407 32.6562 38.8622C32.6562 38.8838 32.6035 38.9015 32.539 38.9015C32.4746 38.9015 32.4219 38.9191 32.4219 38.9407C32.4219 38.9622 32.3691 38.9799 32.3047 38.9799C32.2402 38.9799 32.1875 38.9975 32.1875 39.0191C32.1875 39.0407 32.1348 39.0583 32.0703 39.0583C32.0058 39.0583 31.9531 39.076 31.9531 39.0975C31.9531 39.1191 31.9004 39.1368 31.8359 39.1368C31.7715 39.1368 31.7187 39.1544 31.7187 39.176C31.7187 39.1975 31.666 39.2152 31.6015 39.2152C31.5371 39.2152 31.4844 39.2328 31.4844 39.2544C31.4844 39.276 31.414 39.2936 31.3281 39.2936C31.2422 39.2936 31.1719 39.3113 31.1719 39.3328C31.1719 39.3544 31.1015 39.372 31.0156 39.372C30.9297 39.372 30.8594 39.3897 30.8594 39.4113C30.8594 39.4328 30.789 39.4505 30.7031 39.4505C30.6172 39.4505 30.5469 39.4681 30.5469 39.4897C30.5469 39.5113 30.4765 39.5289 30.3906 39.5289C30.3047 39.5289 30.2344 39.5466 30.2344 39.5681C30.2344 39.5901 30.1301 39.6073 30 39.6073C29.8699 39.6073 29.7656 39.625 29.7656 39.6466C29.7656 39.6681 29.6777 39.6858 29.5703 39.6858C29.4629 39.6858 29.375 39.7034 29.375 39.725C29.375 39.7481 29.2449 39.7642 29.0625 39.7642C28.8801 39.7642 28.75 39.7807 28.75 39.8034C28.75 39.8273 28.5808 39.8426 28.3203 39.8426C28.0598 39.8426 27.8906 39.8583 27.8906 39.8819C27.8906 39.9073 27.448 39.9211 26.6406 39.9211C25.8332 39.9211 25.3906 39.9073 25.3906 39.8819C25.3906 39.8583 25.2215 39.8426 24.9609 39.8426C24.7004 39.8426 24.5312 39.8273 24.5312 39.8034C24.5312 39.7811 24.4141 39.7642 24.2578 39.7642C24.1016 39.7642 23.9844 39.7473 23.9844 39.725C23.9844 39.7026 23.8672 39.6858 23.7109 39.6858C23.5547 39.6858 23.4375 39.6689 23.4375 39.6466C23.4375 39.625 23.3496 39.6073 23.2422 39.6073C23.1348 39.6073 23.0469 39.5897 23.0469 39.5681C23.0469 39.5466 22.959 39.5289 22.8516 39.5289C22.7441 39.5289 22.6562 39.5113 22.6562 39.4897C22.6562 39.4681 22.5859 39.4505 22.5 39.4505C22.4141 39.4505 22.3437 39.4328 22.3437 39.4113C22.3437 39.3897 22.2734 39.372 22.1875 39.372C22.1016 39.372 22.0312 39.3544 22.0312 39.3328C22.0312 39.3113 21.9609 39.2936 21.875 39.2936C21.7891 39.2936 21.7187 39.276 21.7187 39.2544C21.7187 39.2328 21.666 39.2152 21.6016 39.2152C21.5371 39.2152 21.4844 39.1975 21.4844 39.176C21.4844 39.1544 21.4316 39.1368 21.3672 39.1368C21.3027 39.1368 21.25 39.1191 21.25 39.0975C21.25 39.076 21.1797 39.0583 21.0937 39.0583C21.0078 39.0583 20.9375 39.0407 20.9375 39.0191C20.9375 38.9975 20.8848 38.9799 20.8203 38.9799C20.7558 38.9799 20.7031 38.9622 20.7031 38.9407C20.7031 38.9191 20.6504 38.9015 20.5859 38.9015C20.5215 38.9015 20.4687 38.8838 20.4687 38.8622C20.4687 38.8407 20.416 38.823 20.3516 38.823C20.2871 38.823 20.2344 38.8054 20.2344 38.7838C20.2344 38.7622 20.1992 38.7446 20.1562 38.7446C20.1133 38.7446 20.0781 38.727 20.0781 38.7054C20.0781 38.6838 20.0254 38.6662 19.9609 38.6662C19.8965 38.6662 19.8437 38.6485 19.8437 38.6269C19.8437 38.6054 19.8086 38.5877 19.7656 38.5877C19.7226 38.5877 19.6875 38.5701 19.6875 38.5485C19.6875 38.527 19.6348 38.5093 19.5703 38.5093C19.5058 38.5093 19.4531 38.4917 19.4531 38.4701C19.4531 38.4485 19.418 38.4309 19.375 38.4309C19.332 38.4309 19.2969 38.4132 19.2969 38.3917C19.2969 38.3701 19.2617 38.3524 19.2187 38.3524C19.1758 38.3524 19.1406 38.3348 19.1406 38.3132C19.1406 38.2917 19.1055 38.274 19.0625 38.274C19.0195 38.274 18.9844 38.2564 18.9844 38.2348C18.9844 38.2132 18.9316 38.1956 18.8672 38.1956C18.8027 38.1956 18.75 38.1779 18.75 38.1564C18.75 38.1348 18.7148 38.1171 18.6719 38.1171C18.6289 38.1171 18.5937 38.0995 18.5937 38.0779C18.5937 38.0564 18.5586 38.0387 18.5156 38.0387C18.4726 38.0387 18.4375 38.0211 18.4375 37.9995C18.4375 37.9779 18.4023 37.9603 18.3594 37.9603C18.3164 37.9603 18.2812 37.9426 18.2812 37.9211C18.2812 37.8995 18.2461 37.8819 18.2031 37.8819C18.1601 37.8819 18.125 37.8642 18.125 37.8426C18.125 37.8211 18.0898 37.8034 18.0469 37.8034C18.0039 37.8034 17.9687 37.7858 17.9687 37.7642C17.9687 37.7426 17.9379 37.7254 17.9004 37.7254C17.8629 37.7258 17.8055 37.6901 17.7734 37.6466C17.7414 37.603 17.684 37.5677 17.6465 37.5677C17.609 37.5681 17.5781 37.5505 17.5781 37.5289C17.5781 37.5073 17.543 37.4897 17.5 37.4897C17.457 37.4897 17.4219 37.472 17.4219 37.4505C17.4219 37.4289 17.391 37.4117 17.3535 37.4117C17.316 37.412 17.2586 37.3764 17.2266 37.3328C17.1945 37.2893 17.1371 37.254 17.0996 37.254C17.0621 37.2544 17.0312 37.2368 17.0312 37.2152C17.0312 37.1936 17.0004 37.1764 16.9629 37.1764C16.9254 37.1768 16.868 37.1411 16.8359 37.0975C16.8039 37.054 16.7508 37.0187 16.7187 37.0191C16.6867 37.0195 16.6336 36.9842 16.6016 36.9407C16.5695 36.8971 16.5164 36.8618 16.4844 36.8622C16.4523 36.8626 16.3992 36.8273 16.3672 36.7838C16.3351 36.7403 16.282 36.705 16.25 36.7054C16.218 36.7058 16.1648 36.6705 16.1328 36.6269C16.1008 36.5834 16.0523 36.5481 16.0254 36.5481C15.9984 36.5485 15.9238 36.4956 15.8594 36.4309C15.7949 36.3662 15.7246 36.3132 15.7031 36.3132C15.6816 36.3132 15.6113 36.2603 15.5469 36.1956C15.4824 36.1309 15.4121 36.0779 15.3906 36.0779C15.3691 36.0779 15.2812 36.0073 15.1953 35.9211C15.1094 35.8348 15.0215 35.7642 15 35.7642C14.9785 35.7642 14.8555 35.6583 14.7266 35.5289C14.5976 35.3995 14.4746 35.2936 14.4531 35.2936C14.4316 35.2936 12.2434 33.1144 9.58984 30.4505C6.93632 27.7869 4.76562 25.5897 4.76562 25.5681C4.76562 25.5465 4.64258 25.4054 4.49219 25.2544C4.34179 25.1034 4.21875 24.9622 4.21875 24.9407C4.21875 24.9191 4.14844 24.8309 4.0625 24.7446C3.97656 24.6583 3.90625 24.5701 3.90625 24.5485C3.90625 24.5269 3.83594 24.4387 3.75 24.3524C3.66406 24.2661 3.59375 24.1736 3.59414 24.1465C3.59453 24.1199 3.55898 24.0712 3.51562 24.0387C3.47226 24.0065 3.43672 23.9579 3.43711 23.9309C3.4375 23.9042 3.38476 23.8289 3.32031 23.7642C3.25586 23.6995 3.20312 23.6246 3.20351 23.5975C3.2039 23.5709 3.16836 23.5222 3.125 23.4897C3.08164 23.4575 3.04609 23.4003 3.04648 23.3622C3.04687 23.3246 3.0293 23.2936 3.00781 23.2936C2.98633 23.2936 2.96875 23.263 2.96914 23.225C2.96953 23.1873 2.93398 23.1301 2.89062 23.0975C2.84726 23.0654 2.81211 23.0124 2.8125 22.9799C2.81289 22.9477 2.77773 22.8948 2.73437 22.8622C2.69101 22.8301 2.65547 22.7728 2.65586 22.7348C2.65625 22.6971 2.63867 22.6661 2.61719 22.6661C2.5957 22.6661 2.57812 22.6356 2.57851 22.5975C2.57891 22.5599 2.54336 22.5026 2.5 22.4701C2.45664 22.4379 2.42109 22.3807 2.42148 22.3426C2.42187 22.305 2.4043 22.274 2.38281 22.274C2.36133 22.274 2.34375 22.2387 2.34375 22.1956C2.34375 22.1524 2.32617 22.1171 2.30469 22.1171C2.2832 22.1171 2.26562 22.0818 2.26562 22.0387C2.26562 21.9956 2.24805 21.9603 2.22656 21.9603C2.20508 21.9603 2.1875 21.925 2.1875 21.8818C2.1875 21.8387 2.16992 21.8034 2.14844 21.8034C2.12695 21.8034 2.10937 21.7681 2.10937 21.725C2.10937 21.6818 2.0918 21.6465 2.07031 21.6465C2.04883 21.6465 2.03125 21.6112 2.03125 21.5681C2.03125 21.525 2.01367 21.4897 1.99219 21.4897C1.9707 21.4897 1.95312 21.4544 1.95312 21.4112C1.95312 21.3681 1.93555 21.3328 1.91406 21.3328C1.89258 21.3328 1.875 21.2975 1.875 21.2544C1.875 21.2112 1.85742 21.1759 1.83594 21.1759C1.81445 21.1759 1.79687 21.1407 1.79687 21.0975C1.79687 21.0544 1.7793 21.0191 1.75781 21.0191C1.73633 21.0191 1.71875 20.9838 1.71875 20.9407C1.71875 20.8975 1.70117 20.8622 1.67969 20.8622C1.6582 20.8622 1.64062 20.8269 1.64062 20.7838C1.64062 20.7407 1.62305 20.7054 1.60156 20.7054C1.58008 20.7054 1.5625 20.6701 1.5625 20.6269C1.5625 20.5838 1.54492 20.5485 1.52344 20.5485C1.50195 20.5485 1.48437 20.4956 1.48437 20.4308C1.48437 20.3661 1.4668 20.3132 1.44531 20.3132C1.42383 20.3132 1.40625 20.2779 1.40625 20.2348C1.40625 20.1916 1.38867 20.1563 1.36719 20.1563C1.3457 20.1563 1.32812 20.1034 1.32812 20.0387C1.32812 19.974 1.31055 19.921 1.28906 19.921C1.26758 19.921 1.25 19.8857 1.25 19.8426C1.25 19.7995 1.23242 19.7642 1.21094 19.7642C1.18945 19.7642 1.17187 19.7112 1.17187 19.6465C1.17187 19.5818 1.1543 19.5289 1.13281 19.5289C1.11133 19.5289 1.09375 19.4759 1.09375 19.4112C1.09375 19.3465 1.07617 19.2936 1.05469 19.2936C1.0332 19.2936 1.01562 19.2406 1.01562 19.1759C1.01562 19.1112 0.998046 19.0583 0.976562 19.0583C0.955078 19.0583 0.9375 19.0054 0.9375 18.9406C0.9375 18.8759 0.919921 18.823 0.898437 18.823C0.876953 18.823 0.859375 18.7701 0.859375 18.7054C0.859375 18.6406 0.841796 18.5877 0.820312 18.5877C0.798828 18.5877 0.78125 18.5171 0.78125 18.4308C0.78125 18.3446 0.763672 18.274 0.742187 18.274C0.720703 18.274 0.703125 18.221 0.703125 18.1563C0.703125 18.0916 0.685547 18.0387 0.664062 18.0387C0.642578 18.0387 0.625 17.9681 0.625 17.8818C0.625 17.7955 0.607422 17.725 0.585937 17.725C0.564453 17.725 0.546875 17.6544 0.546875 17.5681C0.546875 17.4818 0.529297 17.4112 0.507812 17.4112C0.486328 17.4112 0.46875 17.3406 0.46875 17.2544C0.46875 17.1681 0.451172 17.0975 0.429687 17.0975C0.408203 17.0975 0.390625 17.0093 0.390625 16.9014C0.390625 16.7936 0.373047 16.7054 0.351562 16.7054C0.329687 16.7054 0.3125 16.601 0.3125 16.4701C0.3125 16.3395 0.295312 16.2348 0.273437 16.2348C0.251562 16.2348 0.234375 16.1304 0.234375 15.9995C0.234375 15.8689 0.217187 15.7642 0.195312 15.7642C0.172266 15.7642 0.15625 15.6206 0.15625 15.4112C0.15625 15.2022 0.140234 15.0583 0.117187 15.0583C0.0933593 15.0583 0.078125 14.8755 0.078125 14.5877C0.078125 14.3003 0.0628906 14.1171 0.0390625 14.1171C0.0140625 14.1171 0 13.7775 0 13.1759C0 12.5748 0.0140625 12.2348 0.0390625 12.2348C0.0632812 12.2348 0.078125 12.0387 0.078125 11.725C0.078125 11.4112 0.0929687 11.2151 0.117187 11.2151C0.139844 11.2151 0.15625 11.0846 0.15625 10.9014C0.15625 10.7187 0.172656 10.5877 0.195312 10.5877C0.217187 10.5877 0.234375 10.4834 0.234375 10.3524C0.234375 10.2218 0.251562 10.1171 0.273437 10.1171C0.294922 10.1171 0.3125 10.0289 0.3125 9.92103C0.3125 9.81319 0.330078 9.72495 0.351562 9.72495C0.373047 9.72495 0.390625 9.63672 0.390625 9.52887C0.390625 9.42103 0.408203 9.33279 0.429687 9.33279C0.451172 9.33279 0.46875 9.26221 0.46875 9.17593C0.46875 9.08966 0.486328 9.01907 0.507812 9.01907C0.529297 9.01907 0.546875 8.94848 0.546875 8.86221C0.546875 8.77593 0.564453 8.70534 0.585937 8.70534C0.607422 8.70534 0.625 8.63475 0.625 8.54848C0.625 8.4622 0.642578 8.39162 0.664062 8.39162C0.685547 8.39162 0.703125 8.33868 0.703125 8.27397C0.703125 8.20926 0.720703 8.15632 0.742187 8.15632C0.763672 8.15632 0.78125 8.10338 0.78125 8.03867C0.78125 7.97397 0.798828 7.92103 0.820312 7.92103C0.841796 7.92103 0.859375 7.86809 0.859375 7.80338C0.859375 7.73867 0.876953 7.68573 0.898437 7.68573C0.919921 7.68573 0.9375 7.63279 0.9375 7.56809C0.9375 7.50338 0.955078 7.45044 0.976562 7.45044C0.998046 7.45044 1.01562 7.3975 1.01562 7.33279C1.01562 7.26809 1.0332 7.21514 1.05469 7.21514C1.07617 7.21514 1.09375 7.17985 1.09375 7.13671C1.09375 7.09358 1.11133 7.05828 1.13281 7.05828C1.1543 7.05828 1.17187 7.00534 1.17187 6.94063C1.17187 6.87593 1.18945 6.82299 1.21094 6.82299C1.23242 6.82299 1.25 6.77005 1.25 6.70534C1.25 6.64063 1.26758 6.58769 1.28906 6.58769C1.31055 6.58769 1.32812 6.5524 1.32812 6.50926C1.32812 6.46612 1.3457 6.43083 1.36719 6.43083C1.38867 6.43083 1.40625 6.39554 1.40625 6.3524C1.40625 6.30926 1.42383 6.27397 1.44531 6.27397C1.4668 6.27397 1.48437 6.23867 1.48437 6.19554C1.48437 6.1524 1.50195 6.1171 1.52344 6.1171Z" fill="#3CAFAA"/>
</svg>
