<svg width="250" height="222" viewBox="0 0 250 222" fill="none" xmlns="http://www.w3.org/2000/svg">
<g clip-path="url(#clip0_6306_3112)">
<path d="M48.8811 221.114C51.3922 218.996 52.9175 215.65 52.5175 212.393C52.1175 209.136 49.64 206.141 46.4263 205.45C43.2127 204.758 39.5493 206.673 38.5732 209.806C38.036 203.765 37.417 197.47 34.1992 192.325C31.2855 187.667 26.239 184.333 20.7697 183.737C15.3004 183.141 9.5419 185.393 6.1309 189.702C2.7199 194.011 1.88473 200.276 4.2737 205.223C6.03358 208.867 9.27589 211.579 12.673 213.786C23.5111 220.825 36.9556 223.204 49.7483 221.324L48.8811 221.114Z" fill="#E6EEEF"/>
<path d="M11.5396 185.518C16.0524 189.187 20.1925 193.29 23.8999 197.769C27.6079 202.243 30.8723 207.066 33.6475 212.169C35.1986 215.032 36.5921 217.977 37.8216 220.992C38.0723 221.605 37.0747 221.872 36.8269 221.265C34.6491 215.951 31.9548 210.862 28.7826 206.073C25.6258 201.3 22.0126 196.845 17.9939 192.769C15.7209 190.465 13.3227 188.287 10.8101 186.246C10.2951 185.827 11.0288 185.103 11.5396 185.518Z" fill="#D2D8D8"/>
<path d="M228.648 91.8531H194.297C193.779 91.8525 193.282 91.6468 192.916 91.281C192.549 90.9152 192.343 90.4192 192.343 89.902V85.788C192.343 85.2708 192.549 84.7748 192.916 84.409C193.282 84.0432 193.779 83.8375 194.297 83.8369H228.648C229.166 83.8375 229.663 84.0432 230.029 84.409C230.396 84.7748 230.602 85.2708 230.603 85.788V89.902C230.602 90.4192 230.396 90.9152 230.029 91.281C229.663 91.6468 229.166 91.8525 228.648 91.8531Z" fill="#F7B88E"/>
<path d="M224.012 85.5625L209.373 72.3871C209.058 72.103 208.652 71.9385 208.228 71.9222C207.803 71.906 207.387 72.0389 207.05 72.298L175.013 82.8568C174.556 83.0079 174.178 83.3337 173.962 83.7628C173.745 84.1918 173.708 84.6889 173.859 85.1452L175.151 89.0519C175.225 89.278 175.343 89.4873 175.499 89.6677C175.655 89.8482 175.844 89.9961 176.057 90.1032C176.27 90.2102 176.502 90.2743 176.74 90.2916C176.978 90.3089 177.217 90.2791 177.443 90.2041L206.832 80.5182L218.821 91.3091C219.153 91.6098 219.586 91.776 220.034 91.7754C220.066 91.7754 220.098 91.7745 220.13 91.7728C220.369 91.7612 220.602 91.7025 220.817 91.6002C221.033 91.4978 221.226 91.3539 221.385 91.1767L224.145 88.1213C224.466 87.7642 224.633 87.2943 224.608 86.8146C224.584 86.3349 224.369 85.8846 224.012 85.5625Z" fill="#F7B88E"/>
<path d="M61.9088 184.086C61.4646 184.086 61.0388 184.263 60.7247 184.576C60.4106 184.89 60.2339 185.315 60.2334 185.758V220.046C60.2339 220.49 60.4106 220.915 60.7247 221.229C61.0388 221.542 61.4646 221.718 61.9088 221.719H66.0304C66.4746 221.718 66.9004 221.542 67.2145 221.229C67.5286 220.915 67.7053 220.49 67.7058 220.046V185.758C67.7053 185.315 67.5286 184.89 67.2145 184.576C66.9004 184.263 66.4746 184.086 66.0304 184.086H61.9088Z" fill="#3CAFAA"/>
<path d="M74.7402 221.998H70.6187C70.1005 221.997 69.6037 221.792 69.2372 221.426C68.8708 221.06 68.6646 220.564 68.6641 220.047V185.759C68.6646 185.241 68.8708 184.746 69.2372 184.38C69.6037 184.014 70.1005 183.808 70.6187 183.808H74.7402C75.2584 183.808 75.7553 184.014 76.1217 184.38C76.4882 184.746 76.6943 185.241 76.6949 185.759V220.047C76.6943 220.564 76.4882 221.06 76.1217 221.426C75.7553 221.792 75.2584 221.997 74.7402 221.998Z" fill="#3CAFAA"/>
<path d="M81.4887 188.417C81.4887 188.417 83.0458 202.394 67.3259 201.919C51.606 201.444 57.722 187.711 57.722 187.711C57.722 187.711 61.0072 185.134 69.3113 187.626C77.6154 190.119 81.4887 188.417 81.4887 188.417Z" fill="#E6EEEF"/>
<path d="M74.7326 164.63C73.8692 164.632 73.0282 164.355 72.3346 163.842C71.641 163.329 71.1316 162.606 70.8822 161.781C70.6327 160.956 70.6564 160.072 70.9497 159.262C71.243 158.451 71.7904 157.756 72.5106 157.281L99.437 139.492C99.6511 139.351 99.8909 139.253 100.143 139.204C100.395 139.155 100.654 139.156 100.906 139.207C101.157 139.258 101.396 139.358 101.609 139.502C101.822 139.645 102.004 139.829 102.146 140.042L104.421 143.473C104.706 143.905 104.808 144.432 104.705 144.939C104.602 145.446 104.301 145.891 103.869 146.177L76.9429 163.966C76.2877 164.4 75.5188 164.631 74.7326 164.63Z" fill="#F7B88E"/>
<path d="M69.8467 148.755C77.7119 148.755 84.0879 142.391 84.0879 134.54C84.0879 126.689 77.7119 120.324 69.8467 120.324C61.9815 120.324 55.6055 126.689 55.6055 134.54C55.6055 142.391 61.9815 148.755 69.8467 148.755Z" fill="#F7B88E"/>
<path d="M69.8544 139.916C70.7775 139.89 71.9264 139.858 72.8116 139.213C73.0751 139.013 73.2917 138.757 73.446 138.465C73.6004 138.173 73.6888 137.85 73.7051 137.52C73.7212 137.285 73.6826 137.05 73.5925 136.833C73.5023 136.616 73.3631 136.422 73.1857 136.268C72.7234 135.878 72.0483 135.786 71.3208 136L72.0746 130.501L71.5213 130.426L70.6352 136.89L71.0972 136.678C71.6329 136.433 72.3682 136.308 72.8252 136.693C72.9374 136.794 73.0248 136.919 73.0806 137.059C73.1364 137.199 73.1592 137.35 73.147 137.5C73.1335 137.746 73.0671 137.986 72.9524 138.204C72.8376 138.422 72.6772 138.612 72.4821 138.762C71.7933 139.265 70.8775 139.329 69.8389 139.358L69.8544 139.916Z" fill="#1A2E35"/>
<path d="M77.8184 130.976H74.8105V131.533H77.8184V130.976Z" fill="#1A2E35"/>
<path d="M68.3243 130.976H65.3164V131.533H68.3243V130.976Z" fill="#1A2E35"/>
<path d="M55.4587 191.361C55.4587 191.361 54.2291 149.631 71.4434 152.494C88.6578 155.358 81.4852 195.657 81.4852 195.657C81.4852 195.657 77.7964 203.021 68.7793 194.839C59.7623 186.656 55.4587 191.361 55.4587 191.361Z" fill="#1A2E35"/>
<path d="M61.811 121.941C64.582 120.063 68.0793 121.339 70.7718 122.679C73.3867 123.981 76.3334 125.637 79.2921 124.383C80.4476 123.893 81.3867 122.936 81.55 121.654C81.7444 120.128 80.8197 118.699 79.7912 117.661C78.6734 116.593 77.3711 115.736 75.9473 115.132C74.5516 114.505 73.0813 114.059 71.5722 113.804C68.5829 113.289 65.5135 113.493 62.6195 114.402C59.7255 115.31 57.0908 116.895 54.9348 119.025C52.8491 121.149 51.2376 123.689 50.2064 126.479C49.1752 129.269 48.7477 132.245 48.952 135.212C49.1873 138.374 50.1991 141.599 52.229 144.081C54.1336 146.41 56.9854 148.048 60.0291 148.184C60.7749 148.219 61.5221 148.159 62.2525 148.004C62.7783 147.892 63.003 148.698 62.4752 148.81C59.3051 149.485 56.0211 148.483 53.5069 146.509C50.8601 144.43 49.2361 141.284 48.5241 138.043C47.1616 131.84 48.8685 125.164 52.7802 120.198C54.7118 117.724 57.2139 115.753 60.0733 114.453C63.0264 113.137 66.2524 112.546 69.4813 112.73C72.7013 112.891 75.8252 113.879 78.5508 115.599C80.9887 117.171 83.7363 120.505 81.748 123.455C81.0045 124.558 79.7702 125.23 78.4888 125.506C77.0183 125.791 75.4969 125.659 74.098 125.124C70.9129 124.001 67.9671 121.493 64.402 121.873C63.6249 121.953 62.88 122.225 62.2338 122.663C61.7866 122.966 61.367 122.242 61.811 121.941Z" fill="#1A2E35"/>
<path d="M183.484 57.1967C182.839 56.7831 182.331 56.1879 182.025 55.4864C181.719 54.7849 181.629 54.0085 181.765 53.2554C181.901 52.5024 182.257 51.8065 182.789 51.2558C183.322 50.7051 184.006 50.3243 184.755 50.1616L216.305 43.3058C216.776 43.2041 217.267 43.2928 217.672 43.5524C218.077 43.812 218.362 44.2214 218.465 44.6907L219.342 48.7105C219.392 48.943 219.397 49.1832 219.354 49.4174C219.312 49.6515 219.224 49.8751 219.095 50.0752C218.966 50.2754 218.799 50.4483 218.603 50.584C218.408 50.7197 218.187 50.8156 217.954 50.8662L186.403 57.722C186.267 57.7517 186.128 57.7742 185.989 57.7892C185.111 57.8848 184.226 57.6756 183.484 57.1967Z" fill="#3CAFAA"/>
<path d="M180.901 54.9238C180.882 54.8491 180.865 54.7735 180.851 54.6972C180.591 53.3332 181.065 51.8972 182.185 50.6534C183.401 49.3617 184.989 48.4787 186.729 48.1265L201.113 44.9852C201.35 44.9335 201.595 44.9297 201.834 44.974C202.072 45.0184 202.299 45.11 202.502 45.2435C202.704 45.377 202.878 45.5496 203.012 45.7512C203.147 45.9528 203.239 46.1792 203.284 46.4171L204.539 53.0158C204.63 53.4796 204.535 53.9603 204.274 54.3546C204.013 54.7488 203.607 55.0249 203.144 55.1236L188.669 58.2845C188.017 58.4283 187.35 58.5015 186.682 58.5028C183.83 58.5028 181.456 57.1164 180.901 54.9238Z" fill="#1A2E35"/>
<path d="M183.418 40.1593C191.283 40.1593 197.659 33.7949 197.659 25.9439C197.659 18.093 191.283 11.7285 183.418 11.7285C175.553 11.7285 169.177 18.093 169.177 25.9439C169.177 33.7949 175.553 40.1593 183.418 40.1593Z" fill="#F7B88E"/>
<path d="M195.436 31.0748C196.36 31.0492 197.508 31.0173 198.394 30.3719C198.657 30.1718 198.874 29.9166 199.028 29.6242C199.182 29.3318 199.271 29.0093 199.287 28.6792C199.303 28.4446 199.265 28.2095 199.175 27.9922C199.084 27.7749 198.945 27.5814 198.768 27.4268C198.305 27.0369 197.63 26.9454 196.903 27.1588L197.657 21.6606L197.103 21.585L196.217 28.0488L196.679 27.8371C197.215 27.5919 197.95 27.4671 198.407 27.8525C198.519 27.9533 198.607 28.0785 198.663 28.2185C198.718 28.3585 198.741 28.5094 198.729 28.6596C198.716 28.9053 198.649 29.1452 198.534 29.3629C198.42 29.5807 198.259 29.7713 198.064 29.9216C197.375 30.4239 196.46 30.4886 195.421 30.5176L195.436 31.0748Z" fill="#1A2E35"/>
<path d="M193.906 22.1348H190.898V22.6922H193.906V22.1348Z" fill="#1A2E35"/>
<path d="M182.422 11.686C182.317 10.0056 181.852 8.36734 181.058 6.88206C180.263 5.39678 179.159 4.0992 177.818 3.07719C176.433 2.05351 174.835 1.35456 173.142 1.0323C171.45 0.710045 169.706 0.772767 168.041 1.21581C166.386 1.64494 164.851 2.44337 163.551 3.55091C162.25 4.65846 161.219 6.04621 160.534 7.60956C159.845 9.16127 159.501 10.8438 159.526 12.541C159.602 14.3867 160.061 16.1965 160.875 17.8557C161.715 19.682 162.774 21.3954 163.694 23.1807C164.6 24.9411 165.381 26.7626 166.033 28.6318C167.359 32.4405 168.141 36.4165 168.357 40.4429C168.698 46.7898 168.09 56.0559 160.912 58.4917C159.087 59.1111 157.118 59.2264 155.204 59.2214C153.188 59.2459 151.178 59.0109 149.222 58.522C145.834 57.6188 142.617 55.4979 141.173 52.2027C140.84 51.4417 140.617 50.6376 140.51 49.8142C140.48 49.5884 140.724 49.3982 140.929 49.3961C141.039 49.3987 141.144 49.4436 141.222 49.5214C141.3 49.5993 141.345 49.7041 141.348 49.8142C141.816 53.3256 144.747 56.0184 147.93 57.2291C149.789 57.9018 151.743 58.2791 153.72 58.3471C155.687 58.4464 157.73 58.431 159.657 57.979C161.372 57.6085 162.932 56.7232 164.129 55.4418C165.195 54.2162 165.99 52.7799 166.463 51.2267C167.596 47.7745 167.715 43.979 167.516 40.381C167.29 36.3679 166.491 32.4075 165.143 28.6202C164.461 26.7081 163.64 24.8487 162.684 23.0573C161.751 21.3051 160.715 19.6025 159.928 17.7761C159.161 16.0974 158.739 14.282 158.687 12.4374C158.681 10.7339 159.021 9.04676 159.686 7.47787C160.339 5.90274 161.319 4.48345 162.562 3.31319C163.804 2.14293 165.28 1.24818 166.893 0.687677C168.534 0.117439 170.276 -0.103981 172.008 0.0376293C173.74 0.17924 175.424 0.680753 176.95 1.50998C178.402 2.3431 179.674 3.4552 180.693 4.78202C181.711 6.10883 182.457 7.62404 182.885 9.24006C183.093 10.0405 183.219 10.8601 183.26 11.686C183.287 12.2239 182.45 12.2224 182.422 11.686Z" fill="#1A2E35"/>
<path d="M179.637 11.9795C179.409 10.4286 178.63 9.01104 177.443 7.98451C176.182 6.92897 174.565 6.39315 172.921 6.48617C172.382 6.51307 172.384 5.6768 172.921 5.64997C174.707 5.56957 176.461 6.14736 177.848 7.27343C179.236 8.3995 180.16 9.99529 180.445 11.7573C180.526 12.2837 179.719 12.5106 179.637 11.9795Z" fill="#1A2E35"/>
<path d="M177.877 12.0276C177.75 11.6416 177.781 11.2207 177.964 10.8575C178.147 10.4944 178.467 10.2188 178.854 10.0913L182.832 8.78042C183.218 8.65295 183.64 8.68406 184.004 8.86691C184.368 9.04977 184.644 9.36938 184.771 9.75545C184.899 10.1415 184.868 10.5624 184.685 10.9255C184.502 11.2887 184.181 11.5643 183.795 11.6917L179.817 13.0027C179.626 13.0659 179.424 13.0908 179.222 13.076C179.021 13.0612 178.825 13.0069 178.645 12.9164C178.465 12.8258 178.304 12.7007 178.172 12.5483C178.041 12.3958 177.94 12.2188 177.877 12.0276Z" fill="#1A2E35"/>
<path d="M208.937 31.3439C208.68 31.3981 208.444 31.5235 208.255 31.7056C208.066 31.8878 207.932 32.1194 207.869 32.3739C207.806 32.6284 207.816 32.8956 207.898 33.1446C207.98 33.3937 208.131 33.6147 208.333 33.7822L214.479 38.8799C214.569 38.9558 214.643 39.0483 214.698 39.1525C214.748 39.2577 214.777 39.3721 214.781 39.4888L215.165 48.8377C215.172 49.1435 215.282 49.4382 215.477 49.6743C215.672 49.9104 215.941 50.0742 216.24 50.1394L216.251 50.1419C216.547 50.2141 216.858 50.1854 217.136 50.0604C217.413 49.9354 217.641 49.7212 217.783 49.4521L220 45.4162C220.074 45.2833 220.183 45.1731 220.316 45.0974C220.448 45.0217 220.598 44.9833 220.751 44.9864C220.863 44.987 220.974 45.0107 221.076 45.0561C221.179 45.1015 221.271 45.1676 221.346 45.2503L231.986 56.5822C232.139 56.7467 232.331 56.8715 232.543 56.9456C232.756 57.0198 232.983 57.0412 233.206 57.008C233.428 56.975 233.639 56.8892 233.821 56.7579C234.003 56.6266 234.15 56.4536 234.251 56.2534L249.852 25.0989C249.969 24.8644 250.019 24.6013 249.994 24.3401C249.968 24.0788 249.87 23.83 249.709 23.6221C249.549 23.4143 249.333 23.2559 249.086 23.1651C248.839 23.0744 248.572 23.055 248.315 23.1091L247.81 23.2145L208.937 31.3439ZM208.688 33.3541C208.567 33.2532 208.477 33.1204 208.428 32.9708C208.379 32.8212 208.373 32.6608 208.411 32.5081C208.449 32.3554 208.53 32.2165 208.643 32.1072C208.757 31.998 208.899 31.9229 209.053 31.8905L247.914 23.7641L248.431 23.6557C248.585 23.624 248.745 23.6362 248.892 23.6908C249.04 23.7454 249.169 23.8403 249.265 23.9646C249.361 24.0889 249.42 24.2377 249.436 24.394C249.452 24.5503 249.423 24.7077 249.353 24.8485L233.753 56.003C233.692 56.1233 233.604 56.2273 233.494 56.306C233.385 56.3848 233.258 56.436 233.125 56.4554C232.991 56.4747 232.855 56.4617 232.728 56.4172C232.6 56.3728 232.486 56.2984 232.393 56.2003L221.754 44.8684C221.65 44.755 221.527 44.6605 221.391 44.5888L248.425 25.0123C248.531 24.9369 248.608 24.8268 248.642 24.701C248.675 24.5753 248.664 24.4417 248.609 24.3235C248.555 24.2053 248.46 24.1099 248.343 24.0537C248.225 23.9975 248.091 23.9842 247.965 24.0159C247.934 24.0232 247.904 24.0336 247.875 24.0469L215.051 38.6723C214.987 38.5909 214.915 38.5169 214.834 38.4517L208.688 33.3541Z" fill="#D2D8D8"/>
<path d="M208.937 31.3439C208.68 31.3981 208.444 31.5235 208.255 31.7056C208.066 31.8878 207.932 32.1194 207.869 32.3739C207.806 32.6284 207.816 32.8956 207.898 33.1446C207.98 33.3937 208.131 33.6147 208.333 33.7822L214.479 38.8799C214.569 38.9558 214.643 39.0483 214.698 39.1525C214.748 39.2577 214.777 39.3721 214.781 39.4888L215.165 48.8377C215.172 49.1435 215.282 49.4382 215.477 49.6743C215.672 49.9104 215.941 50.0742 216.24 50.1394L216.251 50.1419C216.547 50.2141 216.858 50.1854 217.136 50.0604C217.413 49.9354 217.641 49.7212 217.783 49.4521L220 45.4162C220.074 45.2833 220.183 45.1731 220.316 45.0974C220.448 45.0217 220.598 44.9833 220.751 44.9864C220.863 44.987 220.974 45.0107 221.076 45.0561C221.179 45.1015 221.271 45.1676 221.346 45.2503L231.986 56.5822C232.139 56.7467 232.331 56.8715 232.543 56.9456C232.756 57.0198 232.983 57.0412 233.206 57.008C233.428 56.975 233.639 56.8892 233.821 56.7579C234.003 56.6266 234.15 56.4536 234.251 56.2534L249.852 25.0989C249.969 24.8644 250.019 24.6013 249.994 24.3401C249.968 24.0788 249.87 23.83 249.709 23.6221C249.549 23.4143 249.333 23.2559 249.086 23.1651C248.839 23.0744 248.572 23.055 248.315 23.1091L247.81 23.2145L208.937 31.3439ZM208.688 33.3541C208.567 33.2532 208.477 33.1204 208.428 32.9708C208.379 32.8212 208.373 32.6608 208.411 32.5081C208.449 32.3554 208.53 32.2165 208.643 32.1072C208.757 31.998 208.899 31.9229 209.053 31.8905L247.914 23.7641L248.431 23.6557C248.585 23.624 248.745 23.6362 248.892 23.6908C249.04 23.7454 249.169 23.8403 249.265 23.9646C249.361 24.0889 249.42 24.2377 249.436 24.394C249.452 24.5503 249.423 24.7077 249.353 24.8485L233.753 56.003C233.692 56.1233 233.604 56.2273 233.494 56.306C233.385 56.3848 233.258 56.436 233.125 56.4554C232.991 56.4747 232.855 56.4616 232.728 56.4172C232.6 56.3728 232.486 56.2984 232.393 56.2003L221.754 44.8684C221.65 44.755 221.527 44.6604 221.391 44.5888C221.196 44.4844 220.979 44.4291 220.758 44.4277C220.727 44.4264 220.695 44.4277 220.663 44.429L220.66 44.4284C220.423 44.4407 220.193 44.5133 219.992 44.6392C219.791 44.7651 219.625 44.9403 219.511 45.148L217.293 49.1866C217.209 49.3487 217.072 49.4775 216.904 49.5521C216.737 49.6268 216.55 49.6428 216.372 49.5977L216.367 49.5964C216.186 49.5586 216.025 49.4607 215.908 49.3187C215.79 49.1768 215.725 48.9994 215.723 48.8156L215.339 39.4668C215.336 39.368 215.322 39.2698 215.297 39.1742L215.298 39.1715C215.274 39.0796 215.24 38.9906 215.198 38.9059C215.157 38.823 215.108 38.7447 215.051 38.6723C214.987 38.5909 214.915 38.5169 214.834 38.4517L208.688 33.3541Z" fill="#1A2E35"/>
<path d="M215.051 38.6723L247.875 24.0468C247.904 24.0336 247.934 24.0232 247.965 24.0159C248.092 23.9841 248.225 23.9975 248.343 24.0537C248.461 24.1099 248.555 24.2053 248.61 24.3235C248.664 24.4417 248.676 24.5752 248.642 24.701C248.608 24.8268 248.532 24.9369 248.426 25.0122L221.392 44.5887L220.915 44.9349L220.588 44.4834L220.661 44.4284L220.663 44.429L248.096 24.5602L215.298 39.1715L215.297 39.1742L215.154 39.2361L214.927 38.727L215.051 38.6723Z" fill="#1A2E35"/>
<path d="M174.04 83.0518C173.633 83.0522 173.242 83.2139 172.954 83.5013C172.666 83.7887 172.504 84.1783 172.504 84.5848V90.1595C172.504 90.5659 172.666 90.9556 172.954 91.243C173.242 91.5304 173.633 91.692 174.04 91.6925H191.911C192.318 91.692 192.709 91.5304 192.997 91.243C193.284 90.9556 193.446 90.5659 193.447 90.1595V84.5848C193.446 84.1783 193.284 83.7887 192.997 83.5013C192.709 83.2139 192.318 83.0522 191.911 83.0518H174.04Z" fill="#1A2E35"/>
<path d="M171.933 54.7735C171.08 57.2422 170.921 59.8971 171.473 62.4498C172.894 69.3999 172.365 77.6161 170.969 86.3958C170.969 87.3195 171.613 88.0682 172.408 88.0682H194.242C195.037 88.0682 195.681 87.3195 195.681 86.3958V60.3343C195.681 52.6329 190.437 46.3307 183.877 45.9962C183.695 45.9851 183.51 45.9795 183.325 45.9795C178.207 45.9795 173.807 49.6115 171.933 54.7735Z" fill="#1A2E35"/>
<path d="M178.887 88.598V56.3668C178.887 55.3408 179.295 54.3567 180.022 53.6312C180.749 52.9056 181.735 52.498 182.763 52.498C183.79 52.498 184.776 52.9056 185.503 53.6312C186.23 54.3567 186.638 55.3408 186.638 56.3668V88.598C186.638 89.0783 186.446 89.5388 186.106 89.8785C185.766 90.2181 185.305 90.4092 184.823 90.4097H180.702C180.221 90.4092 179.759 90.2181 179.419 89.8785C179.079 89.5388 178.887 89.0783 178.887 88.598Z" fill="#F7B88E"/>
<path d="M185.516 65.5127L179.658 65.2553C179.177 65.2336 178.725 65.0225 178.4 64.6682C178.075 64.3139 177.904 63.8455 177.925 63.3656L178.336 54.037C178.362 53.4143 178.511 52.8029 178.774 52.2378C179.037 51.6726 179.409 51.1648 179.869 50.7435C180.329 50.3221 180.868 49.9954 181.454 49.7822C182.041 49.5689 182.664 49.4733 183.288 49.5007C183.911 49.5281 184.524 49.678 185.089 49.9419C185.655 50.2058 186.163 50.5785 186.584 51.0386C187.005 51.4987 187.331 52.0372 187.543 52.6232C187.755 53.2092 187.85 53.8313 187.821 54.4538L187.41 63.7824C187.389 64.2483 187.189 64.6883 186.852 65.011C186.515 65.3336 186.066 65.5139 185.598 65.5144C185.571 65.5144 185.544 65.5139 185.516 65.5127Z" fill="#1A2E35"/>
<path d="M195.681 71.4837C196.375 71.4837 196.938 69.6742 196.938 67.442C196.938 65.2099 196.375 63.4004 195.681 63.4004C194.987 63.4004 194.425 65.2099 194.425 67.442C194.425 69.6742 194.987 71.4837 195.681 71.4837Z" fill="#1A2E35"/>
<path d="M126.817 117.754C130.672 117.754 133.798 114.634 133.798 110.786C133.798 106.937 130.672 103.817 126.817 103.817C122.961 103.817 119.836 106.937 119.836 110.786C119.836 114.634 122.961 117.754 126.817 117.754Z" fill="#D2D8D8"/>
<path d="M195.853 117.754H142.239C141.646 117.754 141.078 117.519 140.659 117.101C140.24 116.682 140.005 116.115 140.005 115.524C140.005 114.932 140.24 114.365 140.659 113.947C141.078 113.529 141.646 113.294 142.239 113.294H195.853C196.445 113.294 197.014 113.529 197.433 113.947C197.851 114.365 198.087 114.932 198.087 115.524C198.087 116.115 197.851 116.682 197.433 117.101C197.014 117.519 196.445 117.754 195.853 117.754Z" fill="#D2D8D8"/>
<path d="M181.332 108.277H142.239C141.646 108.277 141.078 108.042 140.659 107.624C140.24 107.206 140.005 106.639 140.005 106.047C140.005 105.456 140.24 104.889 140.659 104.47C141.078 104.052 141.646 103.817 142.239 103.817H181.332C181.925 103.817 182.493 104.052 182.912 104.47C183.331 104.889 183.566 105.456 183.566 106.047C183.566 106.639 183.331 107.206 182.912 107.624C182.493 108.042 181.925 108.277 181.332 108.277Z" fill="#D2D8D8"/>
<path d="M126.817 144.234C130.672 144.234 133.798 141.114 133.798 137.265C133.798 133.417 130.672 130.297 126.817 130.297C122.961 130.297 119.836 133.417 119.836 137.265C119.836 141.114 122.961 144.234 126.817 144.234Z" fill="#D2D8D8"/>
<path d="M195.853 144.233H142.239C141.646 144.233 141.078 143.998 140.659 143.58C140.24 143.162 140.005 142.595 140.005 142.003C140.005 141.412 140.24 140.845 140.659 140.427C141.078 140.008 141.646 139.773 142.239 139.773H195.853C196.445 139.773 197.014 140.008 197.433 140.427C197.851 140.845 198.087 141.412 198.087 142.003C198.087 142.595 197.851 143.162 197.433 143.58C197.014 143.998 196.445 144.233 195.853 144.233Z" fill="#D2D8D8"/>
<path d="M181.332 134.757H142.239C141.646 134.757 141.078 134.522 140.659 134.103C140.24 133.685 140.005 133.118 140.005 132.527C140.005 131.935 140.24 131.368 140.659 130.95C141.078 130.532 141.646 130.297 142.239 130.297H181.332C181.925 130.297 182.493 130.532 182.912 130.95C183.331 131.368 183.566 131.935 183.566 132.527C183.566 133.118 183.331 133.685 182.912 134.103C182.493 134.522 181.925 134.757 181.332 134.757Z" fill="#D2D8D8"/>
<path d="M126.817 170.991C130.672 170.991 133.798 167.872 133.798 164.023C133.798 160.175 130.672 157.055 126.817 157.055C122.961 157.055 119.836 160.175 119.836 164.023C119.836 167.872 122.961 170.991 126.817 170.991Z" fill="#D2D8D8"/>
<path d="M195.853 170.992H142.239C141.646 170.992 141.078 170.757 140.659 170.339C140.24 169.921 140.005 169.353 140.005 168.762C140.005 168.171 140.24 167.604 140.659 167.185C141.078 166.767 141.646 166.532 142.239 166.532H195.853C196.445 166.532 197.014 166.767 197.433 167.185C197.851 167.604 198.087 168.171 198.087 168.762C198.087 169.353 197.851 169.921 197.433 170.339C197.014 170.757 196.445 170.992 195.853 170.992Z" fill="#D2D8D8"/>
<path d="M181.332 161.514H142.239C141.646 161.514 141.078 161.279 140.659 160.861C140.24 160.443 140.005 159.876 140.005 159.285C140.005 158.693 140.24 158.126 140.659 157.708C141.078 157.29 141.646 157.055 142.239 157.055H181.332C181.925 157.055 182.493 157.29 182.912 157.708C183.331 158.126 183.566 158.693 183.566 159.285C183.566 159.876 183.331 160.443 182.912 160.861C182.493 161.279 181.925 161.514 181.332 161.514Z" fill="#D2D8D8"/>
<path d="M214.53 183.535H103.393C102.134 183.534 100.927 183.034 100.037 182.146C99.1475 181.257 98.6469 180.053 98.6455 178.797V96.0129C98.6469 94.7566 99.1475 93.5522 100.037 92.6638C100.927 91.7755 102.134 91.2758 103.393 91.2744H214.53C215.789 91.2758 216.995 91.7755 217.885 92.6638C218.775 93.5522 219.276 94.7566 219.277 96.0129V178.797C219.276 180.053 218.775 181.257 217.885 182.146C216.995 183.034 215.789 183.534 214.53 183.535ZM103.393 91.8319C102.282 91.8331 101.217 92.274 100.432 93.0578C99.647 93.8417 99.2052 94.9044 99.204 96.0129V178.797C99.2052 179.905 99.647 180.968 100.432 181.752C101.217 182.536 102.282 182.976 103.393 182.978H214.53C215.641 182.976 216.705 182.536 217.491 181.752C218.276 180.968 218.717 179.905 218.719 178.797V96.0129C218.717 94.9044 218.276 93.8417 217.491 93.0578C216.705 92.274 215.641 91.8331 214.53 91.8319H103.393Z" fill="#1A2E35"/>
<path d="M100.6 108.277C109.237 108.277 116.238 101.288 116.238 92.6677C116.238 84.047 109.237 77.0586 100.6 77.0586C91.964 77.0586 84.9629 84.047 84.9629 92.6677C84.9629 101.288 91.964 108.277 100.6 108.277Z" fill="#3CAFAA"/>
<path d="M99.0501 98.6222C98.6982 98.6229 98.3557 98.5093 98.0742 98.2987L98.0568 98.2856L94.3819 95.4771C94.2117 95.3469 94.0688 95.1845 93.9615 94.9993C93.8542 94.814 93.7844 94.6095 93.7563 94.3973C93.7282 94.1851 93.7422 93.9695 93.7975 93.7627C93.8529 93.556 93.9485 93.3621 94.0789 93.1922C94.2093 93.0223 94.3719 92.8798 94.5575 92.7726C94.7431 92.6655 94.9481 92.5959 95.1606 92.5678C95.3732 92.5397 95.5892 92.5537 95.7963 92.6089C96.0035 92.6642 96.1977 92.7596 96.3679 92.8898L98.7482 94.7117L104.373 87.389C104.504 87.2192 104.666 87.0767 104.852 86.9696C105.038 86.8625 105.243 86.793 105.455 86.765C105.668 86.737 105.884 86.751 106.091 86.8064C106.298 86.8617 106.492 86.9572 106.662 87.0874L106.627 87.1348L106.663 87.0881C107.006 87.3514 107.231 87.7399 107.288 88.1682C107.344 88.5966 107.228 89.0299 106.965 89.3731L100.349 97.9862C100.196 98.1847 99.9992 98.3453 99.7739 98.4556C99.5487 98.5659 99.301 98.6229 99.0501 98.6222Z" fill="#FEFCFF"/>
<path d="M100.48 185.998C100.206 185.998 99.9337 185.94 99.6831 185.827L70.2221 172.635C69.7406 172.42 69.3063 172.112 68.9441 171.729C68.5818 171.346 68.2987 170.896 68.1108 170.404C67.923 169.912 67.8341 169.388 67.8493 168.861C67.8645 168.335 67.9835 167.817 68.1994 167.336C68.4153 166.856 68.724 166.423 69.1077 166.061C69.4915 165.7 69.9428 165.418 70.4359 165.23C70.929 165.043 71.4542 164.955 71.9815 164.97C72.5088 164.986 73.0279 165.105 73.509 165.321L102.97 178.513C103.204 178.618 103.416 178.768 103.592 178.954C103.768 179.141 103.906 179.36 103.997 179.599C104.088 179.839 104.131 180.094 104.124 180.35C104.117 180.606 104.059 180.858 103.954 181.092L102.267 184.846C102.112 185.189 101.861 185.48 101.544 185.685C101.227 185.889 100.858 185.998 100.48 185.998Z" fill="#F7B88E"/>
<path d="M249.347 222.5H0.652741C0.479624 222.5 0.313596 222.447 0.191183 222.354C0.0687703 222.26 0 222.133 0 222C0 221.867 0.0687703 221.74 0.191183 221.646C0.313596 221.553 0.479624 221.5 0.652741 221.5H249.347C249.52 221.5 249.686 221.553 249.809 221.646C249.931 221.74 250 221.867 250 222C250 222.133 249.931 222.26 249.809 222.354C249.686 222.447 249.52 222.5 249.347 222.5Z" fill="#1A2E35"/>
</g>
<defs>
<clipPath id="clip0_6306_3112">
<rect width="250" height="222" fill="white"/>
</clipPath>
</defs>
</svg>
