<svg width="40" height="48" viewBox="0 0 40 48" fill="none" xmlns="http://www.w3.org/2000/svg">
<path d="M0.381355 10.3031C0.527729 10.1068 0.821612 9.87767 1.0338 9.79259C1.33222 9.67461 2.08679 9.64511 4.31417 9.66667C7.08734 9.69276 7.22577 9.7041 7.63312 9.94915C7.88616 10.1012 8.15621 10.3995 8.29918 10.6865C8.48187 11.0518 8.52499 11.2923 8.4762 11.6792C8.44102 11.9594 8.3162 12.3168 8.19706 12.4733C8.07792 12.6287 7.83283 12.8624 7.65128 12.9918C7.34378 13.2107 7.12025 13.2311 4.42764 13.2856C1.90751 13.3378 1.47519 13.3208 1.08032 13.1574C0.83069 13.0553 0.512978 12.8205 0.374547 12.6367C0.236115 12.4529 0.0897408 12.125 0.0488921 11.9061C0.00804348 11.6871 0.00577412 11.3173 0.0454881 11.0836C0.0840674 10.8499 0.23498 10.4982 0.381355 10.3031Z" fill="#004A68"/>
<path d="M0.722895 22.1162C0.853383 22.0232 1.0372 21.9097 1.13365 21.8666C1.22896 21.8224 2.67001 21.7963 4.3346 21.8099C7.16336 21.8315 7.38122 21.8474 7.6683 22.0595C7.83623 22.1843 8.08246 22.4305 8.21522 22.6063C8.39677 22.8479 8.45577 23.0907 8.45577 23.591C8.45577 24.0777 8.3945 24.3375 8.22883 24.5621C8.10402 24.73 7.85779 24.9762 7.68192 25.1089C7.37669 25.3381 7.21443 25.3506 4.3346 25.3835C1.33562 25.4186 1.30385 25.4164 0.915791 25.1566C0.700201 25.0136 0.405183 24.7175 0.259943 24.4986C0.0795286 24.2274 -0.00330336 23.9404 0.000100691 23.591C0.00237006 23.2745 0.0954142 22.9296 0.245193 22.6834C0.377951 22.4645 0.593541 22.2092 0.722895 22.1162Z" fill="#004A68"/>
<path d="M0.32462 34.61C0.470995 34.4001 0.802323 34.1301 1.06217 34.0099C1.42867 33.8409 1.68624 33.8057 2.21501 33.8533C2.58945 33.8874 3.86597 33.9146 5.05172 33.9123C7.11003 33.9089 7.22464 33.9203 7.59454 34.1664C7.80673 34.3082 8.07792 34.5522 8.19706 34.7087C8.3162 34.8641 8.44102 35.2215 8.4762 35.5028C8.52499 35.8897 8.48187 36.1302 8.29918 36.4955C8.15621 36.7825 7.88616 37.0809 7.63312 37.2329C7.2201 37.4802 7.11798 37.4881 4.18028 37.4881C1.33222 37.4881 1.13592 37.4745 0.84771 37.2612C0.678642 37.1365 0.432416 36.8903 0.299657 36.7144C0.114704 36.4683 0.0591043 36.2312 0.0591043 35.6934C0.0591043 35.1432 0.115839 34.9106 0.32462 34.61Z" fill="#004A68"/>
<path d="M6.01609 0.704484C6.42231 0.50255 7.03391 0.263179 7.37772 0.173557C7.90421 0.0351528 10.059 0.00792578 21.1641 0.00111902C32.7436 -0.00568773 34.4082 0.0147325 35.0073 0.170153C35.3817 0.267717 36.016 0.510491 36.4166 0.710156C36.8171 0.908686 37.4809 1.38402 37.8917 1.76634C38.3024 2.14865 38.8312 2.78622 39.0672 3.18441C39.3032 3.58261 39.6096 4.26555 39.9999 5.49644V23.5911C39.9999 40.8337 39.9897 41.7174 39.7911 42.3664C39.6765 42.7407 39.4212 43.3533 39.2249 43.7277C39.0184 44.1214 38.5089 44.7669 38.0153 45.2615C37.4401 45.8367 36.9226 46.2315 36.4256 46.4742C36.0206 46.6728 35.3817 46.9144 35.0073 47.012C34.4093 47.1674 32.7322 47.1889 21.2209 47.1889C9.70949 47.1889 8.03243 47.1674 7.43445 47.012C7.06 46.9144 6.42231 46.6728 6.01609 46.4742C5.5191 46.2315 5.00169 45.8367 4.4264 45.2615C3.93168 44.7657 3.42447 44.1236 3.21796 43.7277C3.02166 43.3533 2.77317 42.7657 2.66537 42.4231C2.5258 41.9761 2.45092 41.1979 2.32837 37.5608L4.76794 37.5245C7.06114 37.4905 7.23248 37.4734 7.63302 37.2329C7.88605 37.0809 8.15611 36.7825 8.29908 36.4955C8.48176 36.1302 8.52488 35.8897 8.47609 35.5029C8.44092 35.2215 8.3161 34.8653 8.19696 34.7088C8.07782 34.5533 7.80663 34.3083 7.59444 34.1665C7.22113 33.918 7.11901 33.9078 2.3851 33.9146V25.4062L4.87347 25.3778C7.20865 25.3517 7.38112 25.3347 7.68181 25.109C7.85769 24.9762 8.10391 24.7301 8.22873 24.5622C8.39439 24.3375 8.45567 24.0777 8.45567 23.5911C8.45567 23.0908 8.39666 22.848 8.21511 22.6063C8.08236 22.4305 7.83613 22.1843 7.6682 22.0595C7.38679 21.8508 7.15872 21.8304 2.3851 21.7759V13.2675L4.79631 13.2709C7.11901 13.2743 7.22113 13.2641 7.59444 13.0156C7.80663 12.8738 8.07782 12.6299 8.19696 12.4734C8.3161 12.3179 8.44092 11.9595 8.47609 11.6792C8.52488 11.2924 8.48176 11.0519 8.29908 10.6866C8.15611 10.3996 7.88605 10.1012 7.63302 9.94919C7.23248 9.70868 7.06114 9.69167 2.32837 9.62133L2.39985 7.50216C2.45092 5.98426 2.5258 5.20602 2.66537 4.75904C2.77317 4.4153 3.02166 3.82878 3.21796 3.45441C3.42561 3.05849 3.93054 2.41865 4.4264 1.92176C4.9892 1.35907 5.52818 0.946123 6.01609 0.704484Z" fill="#3CAFAA"/>
<path d="M19.9729 12.7007C20.378 12.5635 21.0429 12.3842 21.448 12.3025C21.8531 12.2209 22.7982 12.1505 23.5471 12.146C24.4685 12.1392 25.2389 12.205 25.93 12.3479C26.4916 12.4648 27.3597 12.7178 27.8589 12.9117C28.3582 13.1046 29.2001 13.5289 29.7312 13.8556C30.3019 14.2062 31.0928 14.8437 31.6703 15.4178C32.207 15.951 32.8674 16.7201 33.1398 17.1251C33.4109 17.5301 33.824 18.2709 34.0577 18.7701C34.2903 19.2693 34.5865 20.06 34.7158 20.5285C34.8441 20.9959 34.9995 21.8899 35.0585 22.5138C35.1277 23.2251 35.1289 24.0294 35.063 24.6693C35.0052 25.2308 34.8599 26.0726 34.7397 26.5411C34.6205 27.0085 34.3743 27.7244 34.1939 28.1294C34.0112 28.5378 33.6129 29.1368 33.3009 29.4714C32.9832 29.8118 32.4658 30.2077 32.114 30.379C31.5648 30.6456 31.3538 30.6819 30.3552 30.6819C29.3431 30.6819 29.1468 30.6467 28.5397 30.3586C28.1403 30.1691 27.6241 29.7914 26.7243 28.8532L26.0434 29.1685C25.669 29.341 24.9802 29.5463 24.5116 29.6235C23.841 29.7346 23.4734 29.7358 22.7812 29.628C22.2797 29.5497 21.5478 29.3285 21.0792 29.113C20.597 28.8917 19.9786 28.4811 19.5837 28.1203C19.2149 27.7822 18.7145 27.1991 18.4728 26.8248C18.2311 26.4504 17.9282 25.8117 17.8 25.4067C17.6332 24.878 17.5673 24.363 17.5673 23.5915C17.5673 22.8201 17.6332 22.3051 17.8 21.7764C17.9282 21.3714 18.2311 20.7327 18.4728 20.3583C18.7145 19.984 19.2149 19.4043 19.5837 19.0696C19.9536 18.7349 20.614 18.2925 21.0508 18.0849C21.4877 17.8784 22.1515 17.6538 22.5259 17.5869C22.9004 17.5188 23.4359 17.4643 23.7173 17.4632C23.9987 17.4632 24.6364 17.5676 25.1357 17.6958C25.635 17.8251 26.2987 18.0679 26.6108 18.2369C26.9228 18.4048 27.5129 18.8756 27.9236 19.2806C28.4558 19.807 28.7848 20.2608 29.0753 20.8688C29.2989 21.3362 29.5383 21.9874 29.6063 22.3153C29.6756 22.6431 29.7312 23.7787 29.7312 26.768L30.0148 26.9382C30.1714 27.0312 30.3881 27.0857 30.4971 27.0573C30.6071 27.0301 30.8091 26.7374 30.9487 26.405C31.0871 26.0749 31.2585 25.5485 31.3288 25.2365C31.4003 24.9245 31.4593 24.1849 31.4604 23.5915C31.4627 22.9551 31.3878 22.212 31.2777 21.7764C31.1756 21.3714 30.8806 20.6056 30.623 20.0747C30.2372 19.2829 29.9694 18.9278 29.1196 18.0849C28.2935 17.2658 27.8918 16.964 27.1214 16.5829C26.5904 16.3208 25.7745 16.0247 25.3059 15.9249C24.7068 15.7967 24.1031 15.7581 23.2635 15.7955C22.409 15.833 21.8145 15.9305 21.1643 16.1404C20.6526 16.3049 19.8855 16.6747 19.4055 16.9879C18.9369 17.2942 18.2947 17.8194 17.977 18.1575C17.6593 18.4944 17.2224 19.0503 17.0057 19.394C16.7878 19.7367 16.5019 20.2733 16.3691 20.5852C16.2364 20.8972 16.048 21.5223 15.9516 21.9749C15.854 22.4276 15.7745 23.1162 15.7757 23.5065C15.7757 23.8967 15.8301 24.5479 15.896 24.9529C15.9618 25.3579 16.1479 26.0227 16.3078 26.4277C16.4678 26.8327 16.8162 27.4975 17.0817 27.9025C17.3472 28.3075 17.8941 28.9462 18.2958 29.3206C18.6975 29.6949 19.3034 30.1669 19.6416 30.3688C19.9797 30.5719 20.6401 30.8725 21.1076 31.0381C21.8542 31.3025 22.139 31.341 23.4337 31.3478C24.245 31.3524 25.2923 31.3149 25.7598 31.2662C26.5166 31.1867 26.6516 31.2026 26.9796 31.4114C27.1827 31.5407 27.4482 31.8118 27.5707 32.0149C27.6933 32.218 27.8226 32.5617 27.8589 32.7807C27.9077 33.0688 27.8544 33.3173 27.6649 33.6882C27.5219 33.9684 27.2269 34.3144 27.0079 34.4551C26.7889 34.5969 26.3816 34.766 26.1002 34.8318C25.8188 34.8964 24.9008 34.9781 24.0577 35.0133C22.889 35.0609 22.2842 35.0303 21.5047 34.8851C20.943 34.7807 20.0239 34.5107 19.4623 34.2861C18.9006 34.0615 18.1608 33.7143 17.817 33.5135C17.4732 33.3127 16.8105 32.8465 16.3419 32.4766C15.8744 32.1079 15.1448 31.3739 14.7216 30.8464C14.2983 30.3189 13.7298 29.4544 13.4564 28.9235C13.1841 28.3926 12.8334 27.5508 12.6769 27.0516C12.5191 26.5525 12.3353 25.7481 12.2672 25.2649C12.1992 24.7816 12.1436 24.0283 12.1436 23.5915C12.1436 23.1548 12.198 22.4015 12.265 21.9182C12.3319 21.4349 12.5384 20.5796 12.7256 20.018C12.9117 19.4564 13.2714 18.6135 13.5245 18.1461C13.7775 17.6776 14.2019 17.0139 14.4674 16.6713C14.7329 16.3276 15.3275 15.6889 15.7882 15.251C16.2488 14.8131 16.8559 14.2958 17.1362 14.1029C17.4164 13.9101 18.0042 13.572 18.4411 13.3519C18.8779 13.1307 19.5678 12.838 19.9729 12.7007Z" fill="#004A68"/>
<path d="M22.0719 21.6901C22.2909 21.5188 22.6358 21.3158 22.8378 21.2386C23.05 21.1581 23.4721 21.1218 23.8307 21.1524C24.2119 21.1853 24.6431 21.318 24.937 21.4916C25.2025 21.647 25.5599 21.9885 25.7313 22.2494C25.9752 22.6204 26.0512 22.887 26.0807 23.469C26.1114 24.0816 26.0694 24.3051 25.847 24.7248C25.6745 25.0493 25.3727 25.3703 25.0153 25.6063C24.6873 25.8241 24.2425 26.0056 23.9441 26.0442C23.6627 26.0805 23.2293 26.0521 22.9796 25.9818C22.73 25.9103 22.3272 25.688 22.0844 25.4872C21.8404 25.2864 21.5397 24.9177 21.4138 24.6681C21.2674 24.3777 21.1846 23.9897 21.1846 23.5904C21.1853 23.1744 21.267 22.8057 21.4297 22.4843C21.5647 22.2188 21.854 21.8614 22.0719 21.6901Z" fill="#3CAFAA"/>
</svg>
