<svg width="33" height="40" viewBox="0 0 33 40" fill="none" xmlns="http://www.w3.org/2000/svg">
<path d="M3.70007 0.347039C4.00095 0.240731 4.44015 0.121134 4.67695 0.0820495C4.9239 0.0406205 9.88017 0.00622652 16.3213 0.00075475C23.819 -0.00471701 27.7038 0.0195151 28.0438 0.0750144C28.3228 0.11957 28.7979 0.243076 29.0988 0.347821C29.3997 0.453348 29.8342 0.653458 30.064 0.793379C30.2945 0.932518 30.7118 1.2577 30.9924 1.51565C31.2722 1.77361 31.6535 2.21291 31.8395 2.49275C32.0247 2.77259 32.267 3.2205 32.3764 3.4894C32.4866 3.75829 32.6296 4.28593 32.6945 4.66192C32.7969 5.25521 32.8125 7.28446 32.8125 20.0024C32.8125 32.7203 32.7969 34.7496 32.6945 35.3429C32.6296 35.7189 32.4866 36.2465 32.3764 36.5154C32.267 36.7843 32.0247 37.233 31.8395 37.512C31.6535 37.7911 31.2722 38.2312 30.9924 38.4892C30.7118 38.7471 30.2945 39.0723 30.064 39.2114C29.8342 39.3513 29.3997 39.5515 29.0988 39.657C28.7979 39.7625 28.3056 39.8876 28.0047 39.9337C27.6257 39.9923 23.9464 40.0111 16.0478 39.9939C5.63819 39.972 4.60036 39.9579 4.20805 39.8383C3.97125 39.7664 3.60239 39.6312 3.38747 39.5382C3.17256 39.4444 2.76853 39.2185 2.48875 39.0355C2.20897 38.8526 1.77368 38.479 1.52125 38.2054C1.26805 37.931 0.948413 37.5136 0.810088 37.2775C0.672544 37.0415 0.469354 36.6014 0.359162 36.3004C0.24819 35.9995 0.118461 35.4547 0.0700076 35.0888C0.00592461 34.6089 -0.0112684 30.3003 0.0067061 19.5725C0.0293696 6.02908 0.0426551 4.67911 0.161443 4.25153C0.23256 3.99358 0.367759 3.60665 0.461539 3.39169C0.5561 3.17672 0.782735 2.77259 0.964825 2.49275C1.1477 2.21291 1.52672 1.77361 1.8065 1.51565C2.08706 1.2577 2.50438 0.932518 2.73492 0.793379C2.96468 0.653458 3.3992 0.452566 3.70007 0.347039Z" fill="#3CAFAA"/>
<path d="M30.3267 0.96204C30.1423 0.836971 29.9961 0.722846 30.0016 0.709557C30.0079 0.696269 30.1196 0.749423 30.2501 0.826809C30.3806 0.904977 30.7229 1.19654 31.0113 1.47639C31.3231 1.77811 31.3591 1.82345 31.0988 1.58738C30.8589 1.3693 30.5112 1.08789 30.3267 0.96204Z" fill="#95BAF9" fill-opacity="0.25"/>
<path d="M30.4275 38.9846C30.5565 38.8868 30.8558 38.6219 31.0918 38.3952C31.3278 38.1693 31.5396 37.9848 31.5607 37.9848C31.5818 37.9856 31.3622 38.2138 31.0723 38.4913C30.7823 38.7696 30.4658 39.0338 30.3689 39.0799C30.2533 39.1336 30.2728 39.1018 30.4275 38.9846Z" fill="#95BAF9" fill-opacity="0.25"/>
<path d="M5.47063 7.84681C5.76916 7.57087 6.04269 7.40516 6.39905 7.28165C6.90312 7.1089 6.91953 7.10812 16.7555 7.1433L17.2611 7.39031C17.5503 7.53101 17.8996 7.78271 18.0754 7.97657C18.245 8.16339 18.4724 8.50889 18.5811 8.74574C18.7428 9.09671 18.7796 9.29761 18.7811 9.84166C18.7835 10.4318 18.7553 10.5647 18.5365 11.0142C18.3951 11.3042 18.145 11.6528 17.9504 11.8287C17.7636 11.9983 17.4174 12.2266 16.7516 12.5369H6.59208L6.14272 12.3219C5.89577 12.2039 5.54331 11.9577 5.35966 11.7748C5.176 11.5918 4.94312 11.2667 4.84309 11.0517C4.74305 10.8367 4.6313 10.4678 4.59457 10.2309C4.55315 9.96438 4.5594 9.63764 4.61098 9.37108C4.65631 9.13424 4.77353 8.78248 4.87044 8.5894C4.96813 8.39633 5.23852 8.06177 5.47063 7.84681Z" fill="#004A68"/>
<path d="M5.76447 17.7476C5.99736 17.5905 6.34904 17.4193 6.54597 17.3685C6.81559 17.2981 9.29451 17.2786 26.2077 17.3051L26.6375 17.5139C26.8736 17.6288 27.2166 17.8664 27.3995 18.0415C27.5863 18.2205 27.8403 18.5918 27.9794 18.888C28.188 19.3336 28.2263 19.5071 28.2263 20.0019C28.2263 20.4967 28.188 20.6703 27.9794 21.1158C27.8403 21.4121 27.5863 21.7834 27.3995 21.9624C27.2166 22.1375 26.8736 22.3751 26.2077 22.6987H6.59208L6.16226 22.49C5.92624 22.3751 5.58317 22.1375 5.40029 21.9624C5.21352 21.7834 4.95953 21.4121 4.82042 21.1158C4.6102 20.6679 4.57347 20.4991 4.57503 20.0019C4.57659 19.5728 4.6227 19.3109 4.74774 19.0248C4.8423 18.8099 5.01423 18.4988 5.13068 18.3338C5.24634 18.1689 5.53237 17.9055 5.76447 17.7476Z" fill="#004A68"/>
<path d="M5.69492 27.936C5.88248 27.807 6.21384 27.6405 6.43109 27.5663C6.7984 27.4412 7.51816 27.4334 26.2108 27.467L26.7173 27.7124C27.0252 27.8617 27.3401 28.0916 27.5199 28.2987C27.6832 28.4863 27.8856 28.7802 27.9692 28.9522C28.0528 29.1242 28.1537 29.4587 28.1919 29.6948C28.2342 29.9488 28.2341 30.3084 28.1927 30.5742C28.1537 30.8212 28.0372 31.1909 27.9333 31.3949C27.8301 31.599 27.5925 31.914 27.4058 32.0945C27.2198 32.2751 26.8564 32.5213 26.1296 32.8606H6.67023L6.20133 32.6417C5.94344 32.5213 5.58004 32.2751 5.39404 32.0945C5.20726 31.914 4.9736 31.6083 4.87435 31.4145C4.7751 31.2206 4.65631 30.8689 4.61098 30.6328C4.5594 30.3662 4.55315 30.0395 4.59457 29.7729C4.6313 29.5369 4.71336 29.2203 4.77744 29.0694C4.84074 28.9186 4.99704 28.6551 5.12364 28.4832C5.25025 28.3112 5.50736 28.065 5.69492 27.936Z" fill="#004A68"/>
<path d="M13.9767 12.6352C12.7091 12.6469 10.6514 12.6469 9.40495 12.6352C8.15846 12.6227 9.19551 12.6133 11.7104 12.6133C14.2252 12.6133 15.2443 12.6227 13.9767 12.6352Z" fill="#5985E9"/>
<path d="M21.0884 27.4089C18.4883 27.4207 14.2502 27.4207 11.6713 27.4089C9.09235 27.3972 11.2196 27.3878 16.3994 27.3878C21.5784 27.3878 23.6884 27.3972 21.0884 27.4089Z" fill="#5985E9"/>
</svg>
