<svg width="16" height="16" viewBox="0 0 16 16" fill="none" xmlns="http://www.w3.org/2000/svg">
<path d="M3 11.25C3 11.7919 3.34312 12.25 3.75 12.25C3.8369 12.2472 3.92232 12.2267 4.00107 12.1898C4.07982 12.153 4.15026 12.1005 4.20813 12.0356C4.34571 11.8919 4.53474 11.8087 4.73365 11.8044C4.93255 11.8001 5.12504 11.8749 5.26875 12.0125C5.41246 12.1501 5.49564 12.3391 5.49998 12.538C5.50431 12.7369 5.42946 12.9294 5.29187 13.0731C5.09455 13.285 4.85599 13.4544 4.59084 13.5708C4.3257 13.6872 4.03956 13.7482 3.75 13.75C2.50937 13.75 1.5 12.625 1.5 11.25C1.5 9.875 2.50937 8.75 3.75 8.75C4.03956 8.75182 4.3257 8.8128 4.59084 8.92919C4.85599 9.04559 5.09455 9.21495 5.29187 9.42688C5.42946 9.57059 5.50431 9.76307 5.49998 9.96198C5.49564 10.1609 5.41246 10.3499 5.26875 10.4875C5.12504 10.6251 4.93255 10.6999 4.73365 10.6956C4.53474 10.6913 4.34571 10.6081 4.20813 10.4644C4.15026 10.3995 4.07982 10.347 4.00107 10.3102C3.92232 10.2733 3.8369 10.2528 3.75 10.25C3.34312 10.25 3 10.7069 3 11.25ZM9.09437 10.8931C8.77375 10.6775 8.38625 10.5656 8.04438 10.4669C7.87687 10.4216 7.71185 10.3676 7.55 10.305C7.70312 10.2313 8.15687 10.2238 8.55437 10.3256C8.74674 10.3764 8.95141 10.3487 9.12336 10.2486C9.2953 10.1485 9.42044 9.98424 9.47125 9.79187C9.52205 9.59951 9.49436 9.39484 9.39427 9.22289C9.29417 9.05095 9.12986 8.92581 8.9375 8.875C8.69139 8.81436 8.44042 8.77546 8.1875 8.75875C7.56687 8.7175 7.0625 8.82625 6.68125 9.08187C6.49537 9.20666 6.33919 9.37076 6.22373 9.56257C6.10828 9.75438 6.03638 9.96921 6.01312 10.1919C5.94438 10.7381 6.16813 11.2087 6.645 11.5162C6.94375 11.7094 7.2925 11.81 7.62937 11.9075C7.81687 11.9631 8.12562 12.0513 8.24687 12.1281C8.2451 12.1436 8.24044 12.1587 8.23312 12.1725C8.14812 12.2694 7.635 12.2844 7.20875 12.1687C7.01894 12.1206 6.81782 12.1486 6.64838 12.2468C6.47893 12.3449 6.35461 12.5055 6.30197 12.6941C6.24932 12.8827 6.27254 13.0845 6.36665 13.2562C6.46077 13.4279 6.61831 13.556 6.80562 13.6131C7.13585 13.702 7.47615 13.748 7.81812 13.75C8.2225 13.75 8.67688 13.6769 9.05188 13.4281C9.24175 13.3026 9.40156 13.1366 9.51986 12.9422C9.63817 12.7477 9.71206 12.5295 9.73625 12.3031C9.8125 11.7206 9.5825 11.2206 9.09437 10.8919V10.8931ZM13.5 8.7925C13.3125 8.72648 13.1065 8.73758 12.9272 8.82336C12.7479 8.90915 12.61 9.0626 12.5437 9.25L12 10.7688L11.4563 9.25C11.4269 9.15292 11.3781 9.06281 11.3129 8.98512C11.2477 8.90742 11.1675 8.84376 11.077 8.79797C10.9865 8.75219 10.8876 8.72523 10.7864 8.71874C10.6852 8.71224 10.5837 8.72634 10.4881 8.76018C10.3925 8.79403 10.3048 8.84691 10.2302 8.91564C10.1556 8.98436 10.0957 9.0675 10.0542 9.16003C10.0126 9.25255 9.9903 9.35254 9.98851 9.45394C9.98671 9.55535 10.0055 9.65606 10.0437 9.75L11.2937 13.25C11.3458 13.3956 11.4416 13.5216 11.568 13.6107C11.6945 13.6998 11.8453 13.7476 12 13.7476C12.1547 13.7476 12.3055 13.6998 12.432 13.6107C12.5584 13.5216 12.6542 13.3956 12.7063 13.25L13.9563 9.75C14.0227 9.56252 14.012 9.35633 13.9264 9.17676C13.8409 8.99719 13.6875 8.85897 13.5 8.7925ZM2.25 6.75V2.5C2.25 2.16848 2.3817 1.85054 2.61612 1.61612C2.85054 1.3817 3.16848 1.25 3.5 1.25H9.5C9.59852 1.24992 9.69609 1.26926 9.78714 1.3069C9.87818 1.34454 9.96092 1.39975 10.0306 1.46938L13.5306 4.96938C13.6003 5.03908 13.6555 5.12182 13.6931 5.21286C13.7307 5.30391 13.7501 5.40148 13.75 5.5V6.75C13.75 6.94891 13.671 7.13968 13.5303 7.28033C13.3897 7.42098 13.1989 7.5 13 7.5C12.8011 7.5 12.6103 7.42098 12.4697 7.28033C12.329 7.13968 12.25 6.94891 12.25 6.75V6.5H9.25C9.05109 6.5 8.86032 6.42098 8.71967 6.28033C8.57902 6.13968 8.5 5.94891 8.5 5.75V2.75H3.75V6.75C3.75 6.94891 3.67098 7.13968 3.53033 7.28033C3.38968 7.42098 3.19891 7.5 3 7.5C2.80109 7.5 2.61032 7.42098 2.46967 7.28033C2.32902 7.13968 2.25 6.94891 2.25 6.75ZM10 5H11.4375L10 3.5625V5Z" fill="#737373"/>
</svg>
