<svg width="44" height="40" viewBox="0 0 44 40" fill="none" xmlns="http://www.w3.org/2000/svg">
<path d="M19.7891 0.294417C20.0202 0.218768 20.3798 0.123787 20.5874 0.0834409C20.795 0.0422543 21.2487 0.00527036 21.5958 0.000227098C21.942 -0.00397562 22.4723 0.0506597 22.7723 0.122106C23.0723 0.193552 23.5437 0.372588 23.8193 0.520523C24.095 0.667618 24.5109 0.977779 24.7437 1.20893C25.0101 1.47286 26.1714 3.16067 27.8689 5.74786C29.3546 8.01313 30.9563 10.4717 31.4286 11.2114C31.9008 11.9511 32.4437 12.7176 32.6344 12.9152C32.826 13.1127 33.0487 13.2926 33.1294 13.3144C33.2689 13.3523 33.2765 14.0608 33.2765 40L20.1882 39.9992C8.68152 39.9975 7.03362 39.9815 6.55379 39.868C6.25295 39.7966 5.78488 39.6176 5.51177 39.4696C5.2395 39.3225 4.82186 38.993 4.58404 38.7392C4.31933 38.4559 4.08488 38.0979 3.97816 37.8146C3.88236 37.5607 3.64791 36.653 3.45799 35.7973C3.26723 34.9416 2.50421 31.4626 1.76135 28.0643C1.01934 24.666 0.318496 21.4795 0.205051 20.9827C0.057992 20.3363 -0.000831469 19.8345 8.86683e-06 19.2176C0.000849203 18.7435 0.0588324 18.1097 0.129421 17.8097C0.199168 17.5096 0.415135 16.9422 0.607572 16.5488C0.882361 15.9899 1.10589 15.6873 1.63446 15.1594C2.1353 14.6585 2.47312 14.4046 2.94034 14.1751C3.28656 14.0054 3.81597 13.8028 4.11681 13.7246C4.59412 13.6002 5.35379 13.5784 10.1672 13.5464C13.5731 13.5237 15.7034 13.4792 15.7555 13.4287C15.8084 13.3775 15.8563 11.725 15.8857 9.00076C15.9252 5.24017 15.9513 4.58707 16.0756 4.15083C16.1555 3.87345 16.3571 3.36324 16.5252 3.0161C16.7571 2.53699 16.9941 2.22346 17.5118 1.71241C17.9672 1.26104 18.3874 0.938273 18.7807 0.734862C19.1042 0.567594 19.558 0.369226 19.7891 0.294417Z" fill="#3CAFAA"/>
<path d="M33.2766 39.9999L33.2901 26.7101C33.3018 14.5819 33.3144 13.427 33.4371 13.4875C33.5102 13.5245 34.6296 13.5598 35.9237 13.5648C38.022 13.5741 38.3447 13.5942 38.9069 13.7489C39.2531 13.8447 39.764 14.038 40.0413 14.1801C40.3186 14.3213 40.7632 14.6096 41.0287 14.8206C41.2943 15.0316 41.6817 15.4216 41.8901 15.6872C42.0976 15.9528 42.3959 16.4353 42.5522 16.7589C42.7085 17.0825 42.8791 17.5456 42.9304 17.7885C42.9959 18.0962 43.0245 20.7884 43.0253 26.6983C43.0262 34.9751 43.0228 35.1819 42.8531 35.8392C42.7581 36.209 42.5497 36.7579 42.3909 37.058C42.2312 37.3581 41.9405 37.7994 41.7438 38.0372C41.5472 38.2751 41.2153 38.6105 41.0077 38.7828C40.7993 38.9551 40.3833 39.2182 40.0833 39.3686C39.7825 39.5183 39.2909 39.7091 38.9909 39.7914C38.5338 39.9175 38.0237 39.9469 33.2766 39.9999Z" fill="#004A68"/>
</svg>
