<svg width="50" height="40" viewBox="0 0 50 40" fill="none" xmlns="http://www.w3.org/2000/svg">
<path d="M19.3589 0.309252C19.7346 0.219364 20.3279 0.10505 20.6763 0.0571753C21.0247 0.00832321 21.7712 -0.0131717 22.3353 0.00832321C22.8993 0.0298181 23.6673 0.11189 24.043 0.19103C24.4188 0.270171 24.9457 0.406957 25.2141 0.495867C25.4824 0.583801 26.0972 0.84858 26.5803 1.08209C27.0633 1.31658 27.8752 1.82269 28.3856 2.20667C28.896 2.58967 29.6289 3.21889 30.0143 3.60482C30.6584 4.24771 30.7316 4.29363 30.8887 4.1588C30.9834 4.07771 31.4362 3.66832 31.8948 3.24722C32.3535 2.82611 33.1673 2.18908 33.7041 1.83051C34.2408 1.47291 35.0751 1.01077 35.5582 0.804613C36.0412 0.59748 36.8092 0.33661 37.2659 0.223273C37.9032 0.0659687 38.4116 0.0180936 39.4616 0.0151625C40.4394 0.0132084 41.064 0.0630376 41.6573 0.192984C42.114 0.292643 42.8381 0.493913 43.2675 0.64047C43.6969 0.787026 44.3117 1.0391 44.6337 1.20129C44.9557 1.36348 45.59 1.77677 46.0428 2.11874C46.4956 2.46168 47.1104 3.03422 47.409 3.39182C47.7076 3.74942 48.1712 4.40697 48.4395 4.85445C48.7079 5.30194 49.067 6.04254 49.2378 6.50077C49.4086 6.959 49.6389 7.78461 49.7501 8.33566C49.8897 9.02643 49.9521 9.7084 49.9511 10.534C49.9511 11.1925 49.8838 12.1705 49.8028 12.7079C49.7208 13.2453 49.5071 14.1246 49.3276 14.662C49.147 15.1994 48.8133 16.0123 48.5859 16.4695C48.3576 16.9268 47.9731 17.6078 47.732 17.984C47.49 18.3601 47.0021 19.0411 46.6469 19.4984C46.2926 19.9556 45.4963 20.8516 44.8786 21.4896C44.2609 22.1286 43.2499 23.0988 42.6332 23.6459C42.0164 24.1921 40.457 25.516 39.1689 26.5858C37.8807 27.6557 36.4101 28.9034 35.8997 29.3567C35.3894 29.8111 34.2261 30.9171 33.3137 31.8159C31.8821 33.2268 31.6011 33.4603 31.2644 33.5219C31.0497 33.5609 30.6769 33.5668 30.4349 33.5355C30.1832 33.5023 29.8348 33.3616 29.6191 33.2053C29.4112 33.0558 29.0824 32.7393 28.532 32.0749L28.776 31.8843C28.9097 31.7798 29.5684 31.2258 30.2398 30.6542C30.9111 30.0817 32.0539 29.0196 32.7809 28.2927C33.5079 27.5668 34.4008 26.5995 34.7638 26.1423C35.1278 25.685 35.6724 24.9385 35.9739 24.4813C36.2754 24.024 36.7312 23.2111 36.9859 22.6738C37.2415 22.1364 37.5636 21.345 37.7022 20.9151C37.8407 20.4852 38.0213 19.7377 38.1032 19.2541C38.1862 18.7705 38.2594 17.7592 38.2662 17.0069C38.276 16.0142 38.2311 15.4114 38.1032 14.8086C38.0056 14.3513 37.7958 13.6048 37.6368 13.1476C37.4777 12.6903 37.1928 12.0308 37.0034 11.682C36.8141 11.3332 36.4492 10.7607 36.1915 10.4119C35.9339 10.0631 35.444 9.50811 35.1034 9.1808C34.7629 8.85251 34.1773 8.38353 33.8016 8.1383C33.4259 7.89306 32.8111 7.55989 32.4354 7.3977C32.0597 7.23551 31.3356 6.99027 30.8253 6.85446C30.3149 6.71768 29.4815 6.55646 28.9711 6.49491C28.4569 6.43433 27.6742 6.41381 27.2146 6.44899C26.7579 6.48416 26.0338 6.59457 25.6044 6.6952C25.175 6.79486 24.4285 7.04596 23.9455 7.25309C23.4624 7.45925 22.628 7.91944 22.0913 8.27508C21.5546 8.62975 20.6871 9.32247 20.164 9.81295C19.6409 10.3034 19.1794 10.706 19.1393 10.7069C19.0993 10.7069 18.8905 10.5281 18.6758 10.3073C18.4611 10.0865 17.8902 9.58627 17.4072 9.19643C16.9241 8.80562 16.2215 8.28583 15.8458 8.04254C15.4701 7.79828 14.8992 7.48172 14.5772 7.3381C14.2552 7.19447 13.6189 6.9678 13.1622 6.83394C12.7055 6.70009 12.32 6.58187 12.3035 6.57112C12.2878 6.56135 12.4001 6.26628 12.5533 5.91748C12.7065 5.5677 13.0305 4.97463 13.2725 4.59847C13.5155 4.22231 13.9448 3.65074 14.2288 3.32831C14.5118 3.00589 15.0359 2.50858 15.392 2.22328C15.7492 1.93798 16.3045 1.55596 16.6265 1.37521C16.9485 1.19445 17.5409 0.91795 17.9439 0.759669C18.346 0.602365 18.9832 0.400117 19.3589 0.309252Z" fill="#004A68"/>
<path d="M7.96598 6.6544C8.32803 6.57623 8.73398 6.49416 8.86865 6.47267C9.00332 6.4502 9.63958 6.42968 10.2836 6.42577C10.9277 6.42088 11.6528 6.4541 11.8938 6.49807C12.1349 6.54204 12.7057 6.69055 13.1624 6.82733C13.6191 6.9651 14.2554 7.1947 14.5774 7.33833C14.8995 7.48195 15.4703 7.79851 15.8461 8.04278C16.2218 8.28606 16.9244 8.80585 17.4074 9.19666C17.8905 9.5865 18.4614 10.0867 18.676 10.3076C18.8907 10.5284 19.0996 10.7072 19.1396 10.7072C19.1796 10.7062 19.6412 10.3037 20.1642 9.81318C20.6873 9.3227 21.5548 8.62998 22.0916 8.27531C22.6283 7.91967 23.4626 7.45948 23.9457 7.25333C24.4287 7.04619 25.1753 6.79509 25.6046 6.69543C26.034 6.5948 26.7581 6.48439 27.2148 6.44922C27.6744 6.41405 28.4571 6.43456 28.9714 6.49514C29.4817 6.55669 30.3151 6.71791 30.8255 6.85469C31.3359 6.9905 32.06 7.23574 32.4357 7.39793C32.8114 7.56012 33.4262 7.89329 33.8019 8.13853C34.1776 8.38376 34.7631 8.85274 35.1037 9.18103C35.4442 9.50834 35.9341 10.0633 36.1917 10.4121C36.4494 10.7609 36.8144 11.3335 37.0037 11.6823C37.193 12.0311 37.4779 12.6906 37.637 13.1478C37.7961 13.6051 38.0059 14.3515 38.1035 14.8088C38.2313 15.4116 38.2762 16.0145 38.2664 17.0071C38.2596 17.7595 38.1864 18.7707 38.1035 19.2543C38.0215 19.738 37.841 20.4854 37.7024 20.9153C37.5638 21.3452 37.2418 22.1366 36.9861 22.674C36.7314 23.2114 36.2757 24.0243 35.9741 24.4815C35.6726 24.9388 35.1281 25.6852 34.7641 26.1425C34.401 26.5997 33.5081 27.567 32.7811 28.292C32.0541 29.0179 30.9768 30.0233 30.3864 30.5265C29.796 31.0297 29.027 31.694 28.6786 32.0028C28.3302 32.3115 27.3192 33.1684 26.4341 33.9061C25.549 34.6428 24.1867 35.8338 23.409 36.5509C22.6312 37.2681 21.5763 38.291 21.0669 38.8245C20.216 39.7136 20.0959 39.8035 19.6031 39.9207C19.1659 40.0253 18.9844 40.0263 18.6273 39.9247C18.2496 39.8182 17.8827 39.4996 15.9924 37.6325C14.7843 36.4395 13.0727 34.8733 12.1866 34.1494C11.3005 33.4273 9.65422 32.0438 8.52808 31.0766C7.40194 30.1093 6.04451 28.9007 5.51267 28.3897C4.98083 27.8787 4.14939 26.9779 3.66537 26.3867C3.18134 25.7956 2.52556 24.9163 2.20743 24.4327C1.8893 23.949 1.4609 23.2016 1.25597 22.7717C1.05006 22.3418 0.748523 21.5944 0.585555 21.1107C0.423562 20.6271 0.217656 19.8132 0.128852 19.3032C0.00394225 18.5841 -0.0214301 17.991 0.0156526 16.6652C0.0537111 15.3159 0.110311 14.7805 0.284014 14.1249C0.405021 13.6676 0.660696 12.9211 0.85294 12.4639C1.04518 12.0066 1.41894 11.3032 1.6834 10.9006C1.94785 10.4971 2.45335 9.86691 2.80759 9.49857C3.1628 9.1312 3.71611 8.63096 4.03815 8.38865C4.36018 8.14537 4.95253 7.78288 5.35556 7.58161C5.75761 7.38034 6.36167 7.12142 6.69736 7.00613C7.03306 6.89084 7.60394 6.73256 7.96598 6.6544Z" fill="#3CAFAA"/>
</svg>
