<svg width="16" height="16" viewBox="0 0 16 16" fill="none" xmlns="http://www.w3.org/2000/svg">
<path d="M14.3838 4.40942L11.5913 1.6163C11.4752 1.50017 11.3374 1.40805 11.1857 1.3452C11.034 1.28235 10.8714 1.25 10.7072 1.25C10.543 1.25 10.3804 1.28235 10.2287 1.3452C10.077 1.40805 9.93921 1.50017 9.82313 1.6163L2.11626 9.3238C1.99976 9.43953 1.90739 9.57725 1.84452 9.72895C1.78165 9.88065 1.74953 10.0433 1.75001 10.2075V13.0007C1.75001 13.3322 1.8817 13.6501 2.11612 13.8846C2.35054 14.119 2.66848 14.2507 3.00001 14.2507H5.79313C5.95734 14.2511 6.12001 14.219 6.27171 14.1561C6.42341 14.0932 6.56112 14.0009 6.67688 13.8844L14.3838 6.17692C14.6181 5.94251 14.7497 5.62463 14.7497 5.29317C14.7497 4.96172 14.6181 4.64383 14.3838 4.40942ZM5.68751 12.7507H3.25001V10.3132L8.5 5.06317L10.9375 7.50067L5.68751 12.7507ZM12 6.43817L9.5625 4.00067L10.7088 2.85442L13.1463 5.29192L12 6.43817Z" fill="#262626"/>
</svg>
