<svg width="24" height="24" viewBox="0 0 24 24" fill="none" xmlns="http://www.w3.org/2000/svg">
<path opacity="0.2" d="M19.875 12.375L14.3785 17.8716C13.8159 18.434 13.0529 18.75 12.2574 18.75C11.4618 18.75 10.6989 18.434 10.1363 17.8716L6.12845 13.8638C5.56598 13.3012 5.25 12.5382 5.25 11.7427C5.25 10.9471 5.56598 10.1842 6.12845 9.62156L11.625 4.125L19.875 12.375Z" fill="white"/>
<path d="M22.2806 6.21979C22.2109 6.15006 22.1282 6.09474 22.0371 6.057C21.9461 6.01925 21.8485 5.99983 21.7499 5.99983C21.6514 5.99983 21.5538 6.01925 21.4627 6.057C21.3717 6.09474 21.289 6.15006 21.2193 6.21979L17.9999 9.4401L14.5602 6.00042L17.7806 2.78104C17.9213 2.64031 18.0003 2.44944 18.0003 2.25042C18.0003 2.05139 17.9213 1.86052 17.7806 1.71979C17.6398 1.57906 17.449 1.5 17.2499 1.5C17.0509 1.5 16.86 1.57906 16.7193 1.71979L13.4999 4.9401L11.0306 2.46979C10.8898 2.32906 10.699 2.25 10.4999 2.25C10.3009 2.25 10.11 2.32906 9.9693 2.46979C9.82857 2.61052 9.74951 2.80139 9.74951 3.00042C9.74951 3.19944 9.82857 3.39031 9.9693 3.53104L10.5646 4.12542L5.59587 9.09417C5.24763 9.44239 4.97139 9.85579 4.78292 10.3108C4.59445 10.7658 4.49745 11.2534 4.49745 11.7459C4.49745 12.2384 4.59445 12.726 4.78292 13.181C4.97139 13.636 5.24763 14.0494 5.59587 14.3976L7.06868 15.8704L2.4693 20.4698C2.39962 20.5395 2.34435 20.6222 2.30663 20.7132C2.26892 20.8043 2.24951 20.9019 2.24951 21.0004C2.24951 21.099 2.26892 21.1965 2.30663 21.2876C2.34435 21.3786 2.39962 21.4614 2.4693 21.531C2.61003 21.6718 2.80091 21.7508 2.99993 21.7508C3.09847 21.7508 3.19606 21.7314 3.2871 21.6937C3.37815 21.656 3.46087 21.6007 3.53055 21.531L8.13274 16.9289L9.60555 18.4017C9.95378 18.7499 10.3672 19.0261 10.8222 19.2146C11.2771 19.4031 11.7648 19.5001 12.2573 19.5001C12.7497 19.5001 13.2374 19.4031 13.6924 19.2146C14.1474 19.0261 14.5608 18.7499 14.909 18.4017L19.8777 13.4329L20.4721 14.0282C20.5418 14.0979 20.6245 14.1532 20.7156 14.1909C20.8066 14.2286 20.9042 14.248 21.0027 14.248C21.1013 14.248 21.1989 14.2286 21.2899 14.1909C21.381 14.1532 21.4637 14.0979 21.5334 14.0282C21.6031 13.9585 21.6583 13.8758 21.696 13.7848C21.7337 13.6937 21.7532 13.5962 21.7532 13.4976C21.7532 13.3991 21.7337 13.3015 21.696 13.2104C21.6583 13.1194 21.6031 13.0367 21.5334 12.967L19.0602 10.5004L22.2806 7.28104C22.3503 7.21139 22.4056 7.12867 22.4433 7.03762C22.4811 6.94657 22.5005 6.84898 22.5005 6.75042C22.5005 6.65186 22.4811 6.55426 22.4433 6.46321C22.4056 6.37216 22.3503 6.28945 22.2806 6.21979ZM13.8487 17.3442C13.6397 17.5532 13.3916 17.7191 13.1186 17.8322C12.8455 17.9454 12.5528 18.0036 12.2573 18.0036C11.9617 18.0036 11.669 17.9454 11.396 17.8322C11.1229 17.7191 10.8748 17.5532 10.6659 17.3442L6.65618 13.3345C6.44712 13.1255 6.28128 12.8774 6.16814 12.6044C6.05499 12.3313 5.99675 12.0386 5.99675 11.7431C5.99675 11.4475 6.05499 11.1548 6.16814 10.8818C6.28128 10.6087 6.44712 10.3606 6.65618 10.1517L11.6249 5.18292L18.8146 12.3754L13.8487 17.3442Z" fill="white"/>
</svg>
