<svg width="16" height="16" viewBox="0 0 16 16" fill="none" xmlns="http://www.w3.org/2000/svg">
<path d="M6 0C9.31371 0 12 2.68629 12 6C12 7.47681 11.4649 8.82772 10.5801 9.87305L15.3535 14.6465C15.5488 14.8417 15.5488 15.1583 15.3535 15.3535C15.1583 15.5488 14.8417 15.5488 14.6465 15.3535L9.87305 10.5801C8.82772 11.4649 7.47681 12 6 12C2.68629 12 0 9.31371 0 6C0 2.68629 2.68629 0 6 0ZM6 1C3.23858 1 1 3.23858 1 6C1 8.76142 3.23858 11 6 11C8.76142 11 11 8.76142 11 6C11 3.23858 8.76142 1 6 1Z" fill="#737373"/>
</svg>
