<svg width="24" height="24" viewBox="0 0 24 24" fill="none" xmlns="http://www.w3.org/2000/svg">
<path opacity="0.2" d="M3 5.25V18.75C3 19.1478 3.15804 19.5294 3.43934 19.8107C3.72064 20.092 4.10218 20.25 4.5 20.25H19.5V3.75H4.5C4.10218 3.75 3.72064 3.90804 3.43934 4.18934C3.15804 4.47064 3 4.85218 3 5.25Z" fill="white"/>
<path d="M12.75 20.25C12.75 20.4489 12.829 20.6397 12.9697 20.7803C13.1103 20.921 13.3011 21 13.5 21H19.5C19.6989 21 19.8897 20.921 20.0303 20.7803C20.171 20.6397 20.25 20.4489 20.25 20.25V3.75C20.25 3.55109 20.171 3.36032 20.0303 3.21967C19.8897 3.07902 19.6989 3 19.5 3H13.5C13.3011 3 13.1103 3.07902 12.9697 3.21967C12.829 3.36032 12.75 3.55109 12.75 3.75C12.75 3.94891 12.829 4.13968 12.9697 4.28033C13.1103 4.42098 13.3011 4.5 13.5 4.5H18.75V19.5H13.5C13.3011 19.5 13.1103 19.579 12.9697 19.7197C12.829 19.8603 12.75 20.0511 12.75 20.25ZM2.46938 11.4694L6.21937 7.71937C6.36011 7.57864 6.55098 7.49958 6.75 7.49958C6.94902 7.49958 7.13989 7.57864 7.28063 7.71937C7.42136 7.86011 7.50042 8.05098 7.50042 8.25C7.50042 8.44902 7.42136 8.63989 7.28063 8.78063L4.81031 11.25H13.5C13.6989 11.25 13.8897 11.329 14.0303 11.4697C14.171 11.6103 14.25 11.8011 14.25 12C14.25 12.1989 14.171 12.3897 14.0303 12.5303C13.8897 12.671 13.6989 12.75 13.5 12.75H4.81031L7.28063 15.2194C7.42136 15.3601 7.50042 15.551 7.50042 15.75C7.50042 15.949 7.42136 16.1399 7.28063 16.2806C7.13989 16.4214 6.94902 16.5004 6.75 16.5004C6.55098 16.5004 6.36011 16.4214 6.21937 16.2806L2.46938 12.5306C2.39964 12.461 2.34432 12.3783 2.30658 12.2872C2.26884 12.1962 2.24941 12.0986 2.24941 12C2.24941 11.9014 2.26884 11.8038 2.30658 11.7128C2.34432 11.6217 2.39964 11.539 2.46938 11.4694Z" fill="white"/>
</svg>
