<svg width="24" height="24" viewBox="0 0 24 24" fill="none" xmlns="http://www.w3.org/2000/svg">
<path d="M15.4107 16.9783C16.1028 16.3007 16.5773 15.4322 16.7737 14.4838C16.9702 13.5354 16.8797 12.5499 16.5138 11.6532C16.1478 10.7564 15.5231 9.98895 14.7192 9.44873C13.9152 8.9085 12.9686 8.61999 12.0001 8.61999C11.0315 8.61999 10.0849 8.9085 9.28101 9.44873C8.4771 9.98895 7.85233 10.7564 7.4864 11.6532C7.12047 12.5499 7.02996 13.5354 7.22642 14.4838C7.42288 15.4322 7.8974 16.3007 8.58946 16.9783C7.41772 17.6011 6.44353 18.5393 5.77696 19.6867C5.6342 19.9447 5.59841 20.2483 5.67728 20.5324C5.75615 20.8165 5.94338 21.0582 6.19869 21.2057C6.45399 21.3531 6.75696 21.3944 7.04242 21.3207C7.32788 21.2471 7.57302 21.0643 7.72508 20.8117C8.16468 20.069 8.79018 19.4535 9.53995 19.0261C10.2897 18.5986 11.1379 18.3737 12.001 18.3737C12.8641 18.3737 13.7123 18.5986 14.4621 19.0261C15.2119 19.4535 15.8374 20.069 16.277 20.8117C16.3493 20.9425 16.447 21.0575 16.5644 21.1501C16.6817 21.2427 16.8163 21.311 16.9603 21.351C17.1043 21.391 17.2549 21.4018 17.4031 21.383C17.5514 21.3642 17.6944 21.3159 17.8239 21.2412C17.9533 21.1665 18.0665 21.0667 18.157 20.9477C18.2474 20.8287 18.3132 20.6928 18.3506 20.5481C18.3879 20.4034 18.3961 20.2527 18.3745 20.1048C18.353 19.9569 18.3022 19.8148 18.2251 19.6867C17.558 18.539 16.5831 17.6009 15.4107 16.9783ZM9.37508 13.5001C9.37508 12.981 9.52903 12.4735 9.81747 12.0418C10.1059 11.6101 10.5159 11.2736 10.9955 11.075C11.4752 10.8763 12.003 10.8243 12.5122 10.9256C13.0214 11.0269 13.4891 11.2769 13.8562 11.644C14.2233 12.0111 14.4734 12.4788 14.5746 12.988C14.6759 13.4972 14.6239 14.025 14.4253 14.5047C14.2266 14.9843 13.8901 15.3943 13.4585 15.6828C13.0268 15.9712 12.5193 16.1251 12.0001 16.1251C11.3039 16.1251 10.6362 15.8486 10.1439 15.3563C9.65164 14.864 9.37508 14.1963 9.37508 13.5001ZM23.176 14.3992C23.0579 14.488 22.9233 14.5527 22.7802 14.5895C22.637 14.6264 22.488 14.6346 22.3416 14.6138C22.1953 14.593 22.0544 14.5435 21.9272 14.4683C21.8 14.393 21.6888 14.2934 21.6001 14.1751C20.8191 13.1355 19.7391 12.3386 18.8504 12.1464C18.6141 12.0953 18.4005 11.9694 18.2413 11.7874C18.0822 11.6054 17.9859 11.3769 17.9667 11.1359C17.9476 10.8949 18.0066 10.6541 18.135 10.4493C18.2635 10.2444 18.4545 10.0864 18.6798 9.99859C18.9603 9.8891 19.2103 9.71367 19.4086 9.48713C19.607 9.2606 19.7478 8.98963 19.8193 8.69714C19.8908 8.40465 19.8908 8.09924 19.8193 7.80675C19.7478 7.51426 19.607 7.24329 19.4086 7.01675C19.2103 6.79022 18.9603 6.61479 18.6798 6.5053C18.3993 6.39581 18.0965 6.35548 17.7972 6.38773C17.4978 6.41997 17.2106 6.52384 16.9599 6.69054C16.7091 6.85725 16.5022 7.08189 16.3566 7.34546C16.2876 7.47903 16.1925 7.59741 16.0769 7.69359C15.9614 7.78978 15.8277 7.86183 15.6838 7.90548C15.54 7.94913 15.3888 7.96349 15.2393 7.94773C15.0897 7.93196 14.9449 7.88638 14.8133 7.81368C14.6817 7.74098 14.566 7.64264 14.473 7.52446C14.3801 7.40629 14.3117 7.27068 14.2721 7.12565C14.2324 6.98062 14.2222 6.82911 14.2421 6.68008C14.262 6.53104 14.3116 6.38751 14.3879 6.25796C14.6663 5.76573 15.0429 5.33599 15.4944 4.99543C15.9458 4.65488 16.4625 4.4108 17.0122 4.27833C17.562 4.14587 18.1331 4.12787 18.6902 4.22543C19.2472 4.323 19.7782 4.53406 20.2502 4.84549C20.7222 5.15693 21.1252 5.56209 21.434 6.03581C21.7428 6.50953 21.951 7.0417 22.0455 7.59925C22.14 8.1568 22.1188 8.72782 21.9833 9.27685C21.8478 9.82588 21.6009 10.3412 21.2579 10.7908C22.0834 11.3406 22.808 12.0285 23.4001 12.8242C23.5792 13.0628 23.6562 13.3627 23.6142 13.6581C23.5722 13.9535 23.4146 14.2201 23.176 14.3992ZM5.14977 12.1492C4.26102 12.3414 3.18102 13.1383 2.40008 14.1789C2.22044 14.4175 1.95338 14.5749 1.65766 14.6166C1.36194 14.6582 1.06178 14.5807 0.823206 14.4011C0.584635 14.2214 0.427199 13.9544 0.385531 13.6587C0.343862 13.3629 0.421376 13.0628 0.601018 12.8242C1.19337 12.0287 1.91797 11.3409 2.74321 10.7908C2.40018 10.3412 2.15325 9.82588 2.01777 9.27685C1.88228 8.72782 1.86113 8.1568 1.95563 7.59925C2.05013 7.0417 2.25827 6.50953 2.5671 6.03581C2.87593 5.56209 3.27887 5.15693 3.75089 4.84549C4.22291 4.53406 4.75392 4.323 5.31094 4.22543C5.86796 4.12787 6.43909 4.14587 6.98886 4.27833C7.53863 4.4108 8.05529 4.65488 8.50675 4.99543C8.95821 5.33599 9.33483 5.76573 9.61321 6.25796C9.68952 6.38751 9.73908 6.53104 9.75897 6.68008C9.77887 6.82911 9.76869 6.98062 9.72903 7.12565C9.68937 7.27068 9.62105 7.40629 9.52809 7.52446C9.43513 7.64264 9.31943 7.74098 9.18782 7.81368C9.05621 7.88638 8.91137 7.93196 8.76184 7.94773C8.61232 7.96349 8.46115 7.94913 8.31727 7.90548C8.17339 7.86183 8.03972 7.78978 7.92416 7.69359C7.8086 7.59741 7.71349 7.47903 7.64446 7.34546C7.49889 7.08189 7.29198 6.85725 7.04124 6.69054C6.7905 6.52384 6.50329 6.41997 6.20392 6.38773C5.90455 6.35548 5.60182 6.39581 5.32133 6.5053C5.04084 6.61479 4.79085 6.79022 4.59249 7.01675C4.39414 7.24329 4.25325 7.51426 4.18176 7.80675C4.11027 8.09924 4.11027 8.40465 4.18176 8.69714C4.25325 8.98963 4.39413 9.2606 4.59249 9.48713C4.79085 9.71367 5.04084 9.8891 5.32133 9.99859C5.54662 10.0864 5.73763 10.2444 5.86606 10.4493C5.99449 10.6541 6.0535 10.8949 6.03436 11.1359C6.01521 11.3769 5.91892 11.6054 5.75976 11.7874C5.60059 11.9694 5.38703 12.0953 5.15071 12.1464L5.14977 12.1492Z" fill="#737373"/>
</svg>
