<svg width="49" height="40" viewBox="0 0 49 40" fill="none" xmlns="http://www.w3.org/2000/svg">
<path d="M14.9062 0.371302C15.2949 0.265628 15.8684 0.142028 16.1797 0.0957959C16.491 0.0505073 17.1494 0.00710574 17.6418 0.000501156C18.1342 -0.00610343 18.92 0.0533379 19.3869 0.133536C19.8539 0.212791 20.5123 0.367528 20.8491 0.476975C21.1858 0.586422 21.7594 0.816639 22.1225 0.988359C22.4857 1.15913 23.08 1.50069 23.4432 1.746C23.8064 1.99131 24.4261 2.51308 24.8195 2.90746C25.2128 3.30091 25.7373 3.89815 25.9854 4.23593C26.2326 4.57371 26.6061 5.18888 26.8155 5.60402C27.0249 6.01917 27.2966 6.65604 27.4202 7.01929C27.5428 7.38254 27.7079 8.01941 27.7852 8.43456C27.8626 8.8497 27.9267 9.67811 27.9267 10.2744C27.9267 10.8707 27.8626 11.6991 27.7852 12.1143C27.7079 12.5294 27.5438 13.1663 27.4202 13.5295C27.2976 13.8928 27.0872 14.423 26.9532 14.7089C26.8193 14.9948 26.4872 15.5675 26.2165 15.9827C25.9467 16.3978 25.3392 17.1243 24.8666 17.597C24.395 18.0697 23.6903 18.6613 23.3017 18.9123C22.913 19.1632 22.2754 19.5152 21.8867 19.6935C21.4981 19.8718 20.7755 20.1219 20.2831 20.2483C19.6803 20.404 19.0011 20.4964 18.2078 20.5323C17.4777 20.5653 16.723 20.5408 16.2268 20.4691C15.7854 20.4049 15.0854 20.2464 14.6704 20.1162C14.2553 19.9869 13.5969 19.7227 13.2082 19.5312C12.8187 19.3387 12.248 19.0132 11.9395 18.8085C11.631 18.6037 11.0415 18.1178 10.6311 17.7282C10.2208 17.3394 9.68309 16.7441 9.43783 16.4072C9.19163 16.0704 8.83883 15.5175 8.653 15.1807C8.46811 14.8438 8.21341 14.2909 8.0889 13.9541C7.96344 13.6173 7.77949 13.0229 7.68044 12.6332C7.53612 12.0643 7.50216 11.5934 7.50404 10.2272C7.50687 8.90632 7.54366 8.3921 7.67384 7.91563C7.76534 7.57879 7.98608 6.92022 8.16436 6.45318C8.34265 5.98614 8.73507 5.2219 9.03693 4.75486C9.33879 4.28782 9.85949 3.61415 10.1944 3.25656C10.5292 2.89992 11.1424 2.35362 11.5575 2.04226C11.9725 1.73185 12.7366 1.27141 13.2554 1.02044C13.7742 0.769464 14.5166 0.476975 14.9062 0.371302Z" fill="#004A68"/>
<path d="M8.53886 24.1827C9.0058 24.0591 9.68498 23.9195 10.0482 23.8723C10.4113 23.8251 14.0195 23.7931 25.4241 23.8176L26.5561 24.1252C27.1787 24.2941 28.0277 24.5799 28.4427 24.7602C28.8578 24.9413 29.5285 25.2904 29.9341 25.5367C30.3388 25.782 30.9972 26.2622 31.3962 26.601C31.7953 26.9406 32.3763 27.5256 32.6876 27.9002C32.9989 28.2747 33.4668 28.9314 33.7281 29.3588C33.9894 29.7853 34.345 30.475 34.5186 30.8902C34.6922 31.3053 34.9384 32.0478 35.0667 32.5413C35.2327 33.182 35.3138 33.8 35.3506 34.7114C35.3921 35.7464 35.3714 36.0917 35.2402 36.5512C35.1506 36.8626 34.9686 37.3079 34.8346 37.5419C34.6997 37.7759 34.4384 38.1514 34.2516 38.3779C34.0658 38.6043 33.6592 38.9572 33.3479 39.1619C33.0367 39.3667 32.6178 39.5846 32.4178 39.6469C32.2169 39.7082 32.0047 39.8139 31.9462 39.8809C31.8594 39.98 29.2049 40.0026 17.972 39.9998C5.9372 39.9969 4.0336 39.9771 3.56289 39.8545C3.2648 39.7762 2.75541 39.579 2.43091 39.4157C2.09321 39.2459 1.61967 38.8911 1.32252 38.5864C1.0367 38.293 0.689561 37.8429 0.549951 37.5853C0.410341 37.3277 0.230168 36.8626 0.149043 36.5512C0.0622586 36.221 0.000943312 35.5917 0 35.0416C0 34.5227 0.0660318 33.7377 0.146213 33.2961C0.227338 32.8546 0.402794 32.1545 0.536744 31.7393C0.670695 31.3242 0.998024 30.5599 1.26309 30.041C1.52816 29.5221 1.93379 28.8427 2.16396 28.5314C2.39412 28.22 2.81862 27.7152 3.10821 27.4086C3.39687 27.1029 3.95153 26.5981 4.34112 26.2886C4.72976 25.9782 5.34575 25.5527 5.70892 25.3432C6.0721 25.1328 6.66638 24.8366 7.02956 24.6837C7.39273 24.5309 8.07192 24.3054 8.53886 24.1827Z" fill="#004A68"/>
<path d="M27.4517 0.47637C27.7885 0.366922 28.4045 0.21313 28.8195 0.135762C29.3459 0.0366929 29.9732 0.00555696 30.8948 0.0329188C31.9136 0.0621677 32.4315 0.126327 33.1588 0.314086C33.7172 0.458443 34.5247 0.766972 35.1397 1.07078C35.7104 1.35384 36.4538 1.79446 36.7905 2.05015C37.1273 2.30584 37.6989 2.82855 38.0602 3.21067C38.4206 3.59279 38.962 4.28816 39.2629 4.7552C39.5639 5.22224 39.9582 5.9761 40.1402 6.42993C40.3213 6.88376 40.5581 7.69047 40.6675 8.22261C40.8354 9.04441 40.8581 9.4086 40.8175 10.6522C40.7788 11.8372 40.7222 12.2844 40.5213 13.0109C40.3855 13.5034 40.0893 14.2894 39.8629 14.7564C39.6374 15.2235 39.1997 15.9453 38.8913 16.3604C38.5828 16.7755 38.0159 17.4124 37.631 17.7757C37.2461 18.1389 36.6773 18.605 36.366 18.8107C36.0547 19.0173 35.5237 19.3249 35.1869 19.4966C34.8501 19.6674 34.1917 19.9297 33.7248 20.0807C33.2578 20.2307 32.5154 20.4062 32.074 20.4694C31.5797 20.5411 30.8203 20.5656 30.093 20.5326C29.3025 20.4977 28.6186 20.4043 28.0177 20.2496C27.5244 20.1231 26.7612 19.8523 26.3198 19.6476C25.8783 19.4419 25.2434 19.0862 24.9086 18.855C24.5728 18.6248 24.2643 18.4154 24.2218 18.389C24.1803 18.3625 24.5001 17.9814 24.934 17.5398C25.367 17.0982 25.9443 16.3981 26.2151 15.983C26.4867 15.5679 26.8188 14.9951 26.9527 14.7093C27.0867 14.4234 27.297 13.8931 27.4197 13.5299C27.5432 13.1666 27.7074 12.5297 27.7847 12.1146C27.8621 11.6994 27.9262 10.871 27.9262 10.2747C27.9262 9.67845 27.8621 8.85004 27.7847 8.4349C27.7074 8.01975 27.5423 7.38288 27.4197 7.01963C27.2961 6.65638 27.0244 6.01951 26.815 5.60436C26.6056 5.18921 26.233 4.57404 25.9858 4.23627C25.7387 3.89943 25.2246 3.3154 24.1501 2.25489L24.7397 1.82087C25.0642 1.58311 25.6689 1.22741 26.0839 1.03115C26.499 0.835848 27.115 0.585817 27.4517 0.47637Z" fill="#3CAFAA"/>
<path d="M26.7443 24.184C26.2254 24.0472 25.5462 23.9028 25.235 23.8613C24.9237 23.8208 27.7461 23.7972 31.508 23.8094C37.4848 23.8283 38.4366 23.85 39.0545 23.9878C39.4431 24.0736 40.0383 24.2359 40.3751 24.3472C40.7119 24.4595 41.3062 24.6954 41.6957 24.8728C42.0844 25.0492 42.7428 25.42 43.1579 25.6955C43.5729 25.971 44.2682 26.5305 44.703 26.9391C45.1379 27.3485 45.7454 28.0222 46.0529 28.4374C46.3595 28.8525 46.8151 29.5951 47.066 30.0885C47.316 30.582 47.6301 31.3245 47.7641 31.7397C47.898 32.1548 48.0735 32.8549 48.1546 33.2965C48.2348 33.738 48.3018 34.5447 48.3018 35.0891C48.3027 35.8071 48.2518 36.2487 48.1169 36.6931C48.014 37.0299 47.7669 37.5611 47.566 37.8725C47.366 38.1838 46.9924 38.6226 46.7359 38.8471C46.4802 39.0717 46.0161 39.3755 45.7048 39.5208C45.3935 39.667 44.9162 39.834 44.6436 39.8907C44.3125 39.9605 42.1099 39.9963 37.9932 39.9992C32.9635 40.0029 31.8579 39.9812 31.9457 39.8812C32.0042 39.8142 32.2164 39.7086 32.4173 39.6472C32.6173 39.585 33.0361 39.367 33.3474 39.1623C33.6587 38.9575 34.0653 38.6047 34.2511 38.3782C34.4379 38.1518 34.6992 37.7762 34.8341 37.5423C34.968 37.3083 35.1501 36.8629 35.2397 36.5516C35.3708 36.0921 35.3916 35.7468 35.3501 34.7117C35.3133 33.8003 35.2322 33.1823 35.0661 32.5416C34.9379 32.0482 34.6917 31.3056 34.5181 30.8905C34.3445 30.4753 33.9889 29.7856 33.7276 29.3592C33.4663 28.9318 32.9984 28.2751 32.6871 27.9005C32.3758 27.5259 31.7947 26.941 31.3957 26.6013C30.9967 26.2626 30.3383 25.7823 29.9336 25.537C29.528 25.2907 28.8573 24.9407 28.4422 24.7605C28.0272 24.5793 27.2631 24.3199 26.7443 24.184Z" fill="#3CAFAA"/>
</svg>
