<svg width="33" height="34" viewBox="0 0 33 34" fill="none" xmlns="http://www.w3.org/2000/svg">
<path d="M32.4843 33.5933C32.0128 33.4375 31.523 33.3436 31.027 33.3141C30.3585 33.2144 29.69 33.148 29.0215 33.0948C26.2127 32.8766 23.3941 32.8078 20.5781 32.8887C17.1084 32.9685 17.4427 32.9286 13.9731 33.0084C11.4767 33.1685 8.96995 33.0144 6.51245 32.5497C5.46635 32.3017 4.48425 31.8381 3.62975 31.1888C2.77525 30.5396 2.06735 29.7191 1.55195 28.7806C0.882451 27.5326 0.53125 26.1402 0.52915 24.7257C0.41725 22.6725 0.977851 20.6387 2.12695 18.9292C3.49195 17.1717 5.33355 15.8387 7.43495 15.087C9.52565 14.2947 11.7131 13.7828 13.9397 13.5647C15.4387 13.3638 16.9471 13.2396 18.4589 13.1925L21.3268 13.126C18.6527 14.0699 15.8182 14.7214 13.1442 15.7451C10.7438 16.6036 8.61165 18.0727 6.96035 20.006C6.32915 20.7219 5.90555 21.5948 5.73485 22.5315C5.56405 23.4682 5.65265 24.4334 5.99095 25.324C6.32465 26.2934 6.94085 27.1422 7.76105 27.7625C8.58125 28.3827 9.56845 28.7464 10.5971 28.8072C16.567 28.9269 21.7012 28.6676 27.6844 28.8072C28.2059 28.8072 27.9986 22.3393 27.992 21.7809C27.9518 18.7763 28.1257 15.6985 27.5574 12.7404C27.2542 10.6962 26.3198 8.79606 24.8833 7.30286C22.9346 5.51686 20.3591 4.56216 17.7101 4.64386C16.8059 4.65886 15.9073 4.78836 15.0361 5.02946C13.6647 5.47266 12.3802 6.14726 11.2389 7.02366C10.9715 7.20976 8.51125 8.97136 8.67175 9.15076L5.83715 5.99996C5.61655 5.75396 10.5703 2.67626 10.8846 2.48346C13.9464 0.828258 15.2232 0.595558 18.606 0.489258C20.2334 0.496858 21.8508 0.743257 23.4059 1.22046C24.9693 1.73566 26.4225 2.53596 27.6911 3.58026C31.5619 6.83086 31.7022 12.2219 31.856 16.8352C31.9696 19.6537 32.15 22.4656 32.2436 25.2774C32.2904 26.7 32.3173 28.1225 32.2972 29.5451C32.2243 30.8973 32.2869 32.2534 32.4843 33.5933Z" fill="url(#paint0_linear_7351_609)"/>
<path d="M31.8026 33.8661C26.3308 33.3422 20.8288 33.2001 15.337 33.4406C12.7632 33.5536 10.1627 33.7531 7.63567 33.2745C5.10867 32.7958 2.60166 31.5461 1.24456 29.3724C0.808263 28.6666 0.492062 27.894 0.308662 27.0857C0.122962 26.2679 0.0332629 25.4314 0.0412629 24.593C0.0555629 23.7441 0.133764 22.8975 0.275264 22.0603C0.343064 21.8727 0.392263 21.679 0.422363 21.482C0.425063 21.3639 0.454765 21.2479 0.509265 21.143C0.599665 20.7537 0.724863 20.3733 0.883563 20.0062C1.25706 19.3294 1.70556 18.6962 2.22066 18.1184C2.73656 17.5343 3.30496 16.9981 3.91866 16.5164C4.54946 16.0331 5.22046 15.6039 5.92426 15.2334L6.49247 14.9409C9.30307 13.7008 12.3247 13.0015 15.3972 12.8802C18.4523 12.6742 21.5275 12.7473 24.5826 12.508C19.8361 14.5953 14.4078 15.1071 10.0423 17.9057C8.11026 19.1421 6.35206 21.0034 6.18496 23.2834C6.12686 24.193 6.33456 25.0998 6.78286 25.8948C7.23126 26.6897 7.90116 27.3387 8.71196 27.7638C9.98536 28.2655 11.3581 28.468 12.7231 28.3554L27.3837 28.2357C27.5442 24.4866 27.5308 20.7375 27.3837 16.9883C27.2768 13.9438 27.016 10.68 25.0907 8.29347C23.1654 5.90707 19.7426 4.81687 16.6607 5.27557C13.5535 5.84997 10.7384 7.46657 8.68516 9.85567L5.62336 6.55187C5.54206 6.48297 5.47666 6.39737 5.43166 6.30107C5.38666 6.20467 5.36316 6.09977 5.36266 5.99347C5.40576 5.84777 5.49776 5.72107 5.62336 5.63457C10.1092 1.22067 16.8679 -1.11923 22.9648 0.529371C25.0882 1.06897 27.0288 2.16107 28.5871 3.69347C30.262 5.53707 31.3911 7.80557 31.8494 10.2479C32.2999 12.6773 32.5237 15.1428 32.5179 17.6132L32.9926 33.9857C32.5982 33.9392 32.1971 33.8993 31.8026 33.8661ZM22.6372 32.3239C24.8433 32.3239 27.0027 32.4103 29.0617 32.5765C29.8639 32.643 30.5124 32.7161 31.1074 32.8025H31.2277L31.8962 32.8889C31.8109 31.9186 31.7885 30.9439 31.8294 29.9707V29.5652C31.8294 28.0164 31.8294 26.4808 31.7826 25.3242C31.7291 23.782 31.6489 22.2132 31.5753 20.671C31.5085 19.4013 31.4416 18.1317 31.3948 16.862V16.543C31.221 12.0759 31.0271 7.01057 27.4238 3.98597C26.2131 2.98477 24.8258 2.21607 23.3325 1.71927C21.8152 1.25917 20.2391 1.01957 18.6529 1.00797C15.3571 1.08777 14.1872 1.28047 11.1655 2.91577C10.7577 3.13517 7.52196 5.18917 6.55936 5.96687L8.68516 8.34007C9.41196 7.71497 10.1755 7.13347 10.9716 6.59837C12.1574 5.67387 13.4968 4.96297 14.9292 4.49787C15.8304 4.24387 16.7604 4.10537 17.6969 4.08567C20.4831 4.02367 23.1854 5.03607 25.2378 6.91087C26.7602 8.46997 27.7457 10.4693 28.0522 12.621C28.4221 14.9619 28.5698 17.3321 28.4935 19.7005C28.4935 20.3652 28.4935 21.0765 28.4935 21.7545V22.0337C28.6472 28.5615 28.3196 28.8872 28.0857 29.1265C27.971 29.2372 27.8176 29.2992 27.6578 29.2993C24.7096 29.2461 21.9219 29.2993 19.2278 29.2993C16.5337 29.2993 13.5989 29.3791 10.537 29.2993C9.39876 29.2393 8.30476 28.841 7.39666 28.156C6.48846 27.471 5.80786 26.5309 5.44286 25.4571C5.07666 24.4828 4.98146 23.4282 5.16726 22.4046C5.35316 21.3809 5.81326 20.4261 6.49916 19.6406C8.22986 17.6369 10.4658 16.1273 12.9771 15.2667C14.4947 14.6817 16.0724 14.2164 17.5966 13.7643H17.7036C16.8679 13.7643 16.3665 13.8574 15.5509 13.9505C15.1431 13.9904 14.6551 14.0502 14.0133 14.11C11.8303 14.3153 9.68386 14.8048 7.62896 15.5658C5.62296 16.2842 3.86496 17.5573 2.56156 19.2352C1.48806 20.8459 0.960965 22.756 1.05736 24.686C1.06066 26.0169 1.39116 27.3268 2.02006 28.5016C2.50066 29.3758 3.15996 30.1403 3.95556 30.7459C4.75116 31.3516 5.66546 31.7849 6.63956 32.0181C9.06196 32.4752 11.533 32.6249 13.9933 32.4635C15.7181 32.4236 16.5002 32.4169 17.2824 32.4036C18.0646 32.3904 18.8534 32.4036 20.625 32.3438L22.6372 32.3239Z" fill="url(#paint1_linear_7351_609)"/>
<path d="M2.02683 20.1525L0.863631 20.0195C0.104031 21.8008 -0.161468 23.7519 0.0948325 25.6698L2.02683 20.1525Z" fill="url(#paint2_linear_7351_609)"/>
<defs>
<linearGradient id="paint0_linear_7351_609" x1="16.4963" y1="0" x2="16.4963" y2="33.9857" gradientUnits="userSpaceOnUse">
<stop stop-color="white"/>
<stop offset="1" stop-color="#3CAFAA"/>
</linearGradient>
<linearGradient id="paint1_linear_7351_609" x1="16.4963" y1="0" x2="16.4963" y2="33.9857" gradientUnits="userSpaceOnUse">
<stop stop-color="white"/>
<stop offset="1" stop-color="#3CAFAA"/>
</linearGradient>
<linearGradient id="paint2_linear_7351_609" x1="16.4963" y1="0" x2="16.4963" y2="33.9857" gradientUnits="userSpaceOnUse">
<stop stop-color="white"/>
<stop offset="1" stop-color="#3CAFAA"/>
</linearGradient>
</defs>
</svg>
